%TF.GenerationSoftware,KiCad,Pcbnew,8.0.6*%
%TF.CreationDate,2025-09-09T16:11:22-07:00*%
%TF.ProjectId,Multimodal_Actuator_mk2,4d756c74-696d-46f6-9461-6c5f41637475,rev?*%
%TF.SameCoordinates,Original*%
%TF.FileFunction,Paste,Top*%
%TF.FilePolarity,Positive*%
%FSLAX46Y46*%
G04 Gerber Fmt 4.6, Leading zero omitted, Abs format (unit mm)*
G04 Created by KiCad (PCBNEW 8.0.6) date 2025-09-09 16:11:22*
%MOMM*%
%LPD*%
G01*
G04 APERTURE LIST*
G04 Aperture macros list*
%AMRoundRect*
0 Rectangle with rounded corners*
0 $1 Rounding radius*
0 $2 $3 $4 $5 $6 $7 $8 $9 X,Y pos of 4 corners*
0 Add a 4 corners polygon primitive as box body*
4,1,4,$2,$3,$4,$5,$6,$7,$8,$9,$2,$3,0*
0 Add four circle primitives for the rounded corners*
1,1,$1+$1,$2,$3*
1,1,$1+$1,$4,$5*
1,1,$1+$1,$6,$7*
1,1,$1+$1,$8,$9*
0 Add four rect primitives between the rounded corners*
20,1,$1+$1,$2,$3,$4,$5,0*
20,1,$1+$1,$4,$5,$6,$7,0*
20,1,$1+$1,$6,$7,$8,$9,0*
20,1,$1+$1,$8,$9,$2,$3,0*%
G04 Aperture macros list end*
%ADD10C,0.000000*%
%ADD11RoundRect,0.079500X0.100500X-0.079500X0.100500X0.079500X-0.100500X0.079500X-0.100500X-0.079500X0*%
%ADD12RoundRect,0.079500X-0.079500X-0.100500X0.079500X-0.100500X0.079500X0.100500X-0.079500X0.100500X0*%
%ADD13RoundRect,0.079500X0.079500X0.100500X-0.079500X0.100500X-0.079500X-0.100500X0.079500X-0.100500X0*%
%ADD14RoundRect,0.375000X-0.625000X-0.375000X0.625000X-0.375000X0.625000X0.375000X-0.625000X0.375000X0*%
%ADD15RoundRect,0.079500X-0.100500X0.079500X-0.100500X-0.079500X0.100500X-0.079500X0.100500X0.079500X0*%
%ADD16R,1.730000X1.140000*%
%ADD17R,0.475000X0.250000*%
%ADD18R,0.250000X0.475000*%
%ADD19RoundRect,0.232500X0.232500X-0.757500X0.232500X0.757500X-0.232500X0.757500X-0.232500X-0.757500X0*%
%ADD20RoundRect,0.100000X0.100000X-0.687500X0.100000X0.687500X-0.100000X0.687500X-0.100000X-0.687500X0*%
%ADD21R,0.750000X0.250000*%
%ADD22R,0.700000X0.250000*%
%ADD23RoundRect,0.113750X0.341250X0.421250X-0.341250X0.421250X-0.341250X-0.421250X0.341250X-0.421250X0*%
%ADD24R,0.800000X0.800000*%
%ADD25C,0.228600*%
%ADD26RoundRect,0.147500X0.457500X0.147500X-0.457500X0.147500X-0.457500X-0.147500X0.457500X-0.147500X0*%
%ADD27R,0.812800X1.346200*%
%ADD28R,0.400000X1.350000*%
%ADD29R,2.100000X1.600000*%
%ADD30R,1.800000X1.900000*%
%ADD31R,1.900000X1.900000*%
%ADD32RoundRect,0.044250X-0.250750X0.560750X-0.250750X-0.560750X0.250750X-0.560750X0.250750X0.560750X0*%
%ADD33RoundRect,0.175000X0.175000X0.325000X-0.175000X0.325000X-0.175000X-0.325000X0.175000X-0.325000X0*%
%ADD34RoundRect,0.150000X0.200000X0.150000X-0.200000X0.150000X-0.200000X-0.150000X0.200000X-0.150000X0*%
%ADD35R,0.812800X0.254000*%
%ADD36R,1.092200X0.304800*%
%ADD37R,0.508000X0.254000*%
%ADD38R,0.711200X0.254000*%
%ADD39R,0.254000X0.711200*%
%ADD40R,0.304800X1.092200*%
%ADD41R,0.254000X0.406400*%
%ADD42RoundRect,0.250000X0.287500X0.275000X-0.287500X0.275000X-0.287500X-0.275000X0.287500X-0.275000X0*%
%ADD43RoundRect,0.250000X-0.625000X0.375000X-0.625000X-0.375000X0.625000X-0.375000X0.625000X0.375000X0*%
%ADD44R,0.304800X0.304800*%
%ADD45RoundRect,0.087500X-0.087500X0.725000X-0.087500X-0.725000X0.087500X-0.725000X0.087500X0.725000X0*%
%ADD46R,1.000000X0.970000*%
G04 APERTURE END LIST*
D10*
%TO.C,U4001*%
G36*
X129992000Y-95677000D02*
G01*
X129408000Y-95677000D01*
X129408000Y-93723000D01*
X129992000Y-93723000D01*
X129992000Y-95677000D01*
G37*
G36*
X131992000Y-95677000D02*
G01*
X131408000Y-95677000D01*
X131408000Y-93723000D01*
X131992000Y-93723000D01*
X131992000Y-95677000D01*
G37*
%TD*%
D11*
%TO.C,R4003*%
X133300000Y-98065000D03*
X133300000Y-97375000D03*
%TD*%
%TO.C,R3003*%
X155900000Y-94790000D03*
X155900000Y-94100000D03*
%TD*%
D12*
%TO.C,C2014*%
X144535000Y-107700000D03*
X145225000Y-107700000D03*
%TD*%
D13*
%TO.C,C2012*%
X145945000Y-106900000D03*
X145255000Y-106900000D03*
%TD*%
D12*
%TO.C,C2013*%
X144535000Y-108500000D03*
X145225000Y-108500000D03*
%TD*%
%TO.C,R2011*%
X139990400Y-88950000D03*
X140680400Y-88950000D03*
%TD*%
D14*
%TO.C,J1001*%
X141560000Y-122600000D03*
X144100000Y-122600000D03*
X149180000Y-122600000D03*
X146640000Y-122600000D03*
%TD*%
D15*
%TO.C,R4002*%
X134100000Y-97450000D03*
X134100000Y-98140000D03*
%TD*%
D12*
%TO.C,C2008*%
X121755000Y-103250000D03*
X122445000Y-103250000D03*
%TD*%
D13*
%TO.C,C3001*%
X127020000Y-97262500D03*
X126330000Y-97262500D03*
%TD*%
D15*
%TO.C,R2007*%
X139990400Y-91360000D03*
X139990400Y-92050000D03*
%TD*%
D13*
%TO.C,C5003*%
X127020000Y-95862500D03*
X126330000Y-95862500D03*
%TD*%
D16*
%TO.C,L2001*%
X125800000Y-100750000D03*
X125800000Y-102444000D03*
%TD*%
D11*
%TO.C,D3001*%
X142900000Y-111790000D03*
X142900000Y-111100000D03*
%TD*%
D13*
%TO.C,R2006*%
X128125000Y-100650000D03*
X127435000Y-100650000D03*
%TD*%
D17*
%TO.C,U2002*%
X143237500Y-99250000D03*
X143237500Y-99750000D03*
X143237500Y-100250000D03*
X143237500Y-100750000D03*
D18*
X143900000Y-100912500D03*
X144400000Y-100912500D03*
X144900000Y-100912500D03*
D17*
X145562500Y-100750000D03*
X145562500Y-100250000D03*
X145562500Y-99750000D03*
X145562500Y-99250000D03*
D18*
X144900000Y-99087500D03*
X144400000Y-99087500D03*
X143900000Y-99087500D03*
%TD*%
D19*
%TO.C,U5001*%
X142620000Y-116500000D03*
X143780000Y-116500000D03*
D20*
X140925000Y-119362500D03*
X141575000Y-119362500D03*
X142225000Y-119362500D03*
X142875000Y-119362500D03*
X143525000Y-119362500D03*
X144175000Y-119362500D03*
X144825000Y-119362500D03*
X145475000Y-119362500D03*
X145475000Y-113637500D03*
X144825000Y-113637500D03*
X144175000Y-113637500D03*
X143525000Y-113637500D03*
X142875000Y-113637500D03*
X142225000Y-113637500D03*
X141575000Y-113637500D03*
X140925000Y-113637500D03*
%TD*%
D13*
%TO.C,C2003*%
X128145000Y-99750000D03*
X127455000Y-99750000D03*
%TD*%
D15*
%TO.C,C2010*%
X137300000Y-100725000D03*
X137300000Y-101415000D03*
%TD*%
D21*
%TO.C,IC2001*%
X131400000Y-102950000D03*
D22*
X131425000Y-102450000D03*
X131425000Y-101950000D03*
X131425000Y-101450000D03*
X130025000Y-101450000D03*
X130025000Y-101950000D03*
X130025000Y-102450000D03*
X130025000Y-102950000D03*
%TD*%
D13*
%TO.C,R2008*%
X130100000Y-99550000D03*
X129410000Y-99550000D03*
%TD*%
D12*
%TO.C,R2012*%
X141500400Y-89840400D03*
X142190400Y-89840400D03*
%TD*%
D13*
%TO.C,C5004*%
X127020000Y-95162500D03*
X126330000Y-95162500D03*
%TD*%
D11*
%TO.C,R2002*%
X145800000Y-95900000D03*
X145800000Y-95210000D03*
%TD*%
%TO.C,R1002*%
X152100000Y-110490000D03*
X152100000Y-109800000D03*
%TD*%
D13*
%TO.C,R4004*%
X131645000Y-99550000D03*
X130955000Y-99550000D03*
%TD*%
D11*
%TO.C,C5002*%
X142100000Y-112200000D03*
X142100000Y-111510000D03*
%TD*%
D23*
%TO.C,D2004*%
X134462500Y-103750000D03*
X137672500Y-103750000D03*
%TD*%
D24*
%TO.C,D2001*%
X142325000Y-94525000D03*
X140675000Y-94525000D03*
%TD*%
D25*
%TO.C,U2005*%
X144900000Y-105099900D03*
X145300050Y-105099900D03*
X145700100Y-105099900D03*
X144900000Y-105499950D03*
X145300050Y-105499950D03*
X145700100Y-105499950D03*
X144900000Y-105900000D03*
X145300050Y-105900000D03*
X145700100Y-105900000D03*
%TD*%
D26*
%TO.C,U6002*%
X124555000Y-97600000D03*
X124555000Y-96650000D03*
X124555000Y-95700000D03*
X122045000Y-95700000D03*
X122045000Y-97600000D03*
%TD*%
D13*
%TO.C,C2017*%
X122445000Y-101650000D03*
X121755000Y-101650000D03*
%TD*%
D12*
%TO.C,C2006*%
X135000000Y-102150000D03*
X135690000Y-102150000D03*
%TD*%
D27*
%TO.C,SW2001*%
X134607700Y-87550000D03*
X138392300Y-87550000D03*
%TD*%
D28*
%TO.C,J2001*%
X129600000Y-89675000D03*
X128950000Y-89675000D03*
X128300000Y-89675000D03*
X127650000Y-89675000D03*
X127000000Y-89675000D03*
D29*
X131400000Y-89550000D03*
X125200000Y-89550000D03*
D30*
X132300000Y-87000000D03*
D31*
X129500000Y-87000000D03*
X127100000Y-87000000D03*
D30*
X124300000Y-87000000D03*
%TD*%
D32*
%TO.C,U2006*%
X142800000Y-104000000D03*
X141850000Y-104000000D03*
X140900000Y-104000000D03*
X140900000Y-106510000D03*
X142800000Y-106510000D03*
%TD*%
D13*
%TO.C,C3002*%
X127020000Y-96562500D03*
X126330000Y-96562500D03*
%TD*%
%TO.C,R4005*%
X133400000Y-99150000D03*
X132710000Y-99150000D03*
%TD*%
%TO.C,C2002*%
X138400000Y-89750000D03*
X137710000Y-89750000D03*
%TD*%
D33*
%TO.C,D2003*%
X137900000Y-97950000D03*
D34*
X137900000Y-96250000D03*
X135900000Y-96250000D03*
X135900000Y-98150000D03*
%TD*%
D35*
%TO.C,U4001*%
X132094000Y-97500000D03*
D36*
X131954000Y-96850001D03*
X131954000Y-96200000D03*
D37*
X132246000Y-95550000D03*
X132246000Y-94699999D03*
X132246000Y-93850000D03*
X129154000Y-93850000D03*
X129154000Y-94699999D03*
X129154000Y-95550000D03*
D36*
X129446000Y-96200000D03*
X129446000Y-96850001D03*
D38*
X129256000Y-97500000D03*
D39*
X129450000Y-98394000D03*
X129949999Y-98394000D03*
D40*
X130450000Y-98204000D03*
X130950000Y-98204000D03*
D39*
X131450001Y-98394000D03*
X131950000Y-98394000D03*
D41*
X130950000Y-96525000D03*
X130450000Y-96525000D03*
%TD*%
D13*
%TO.C,C4002*%
X127020000Y-97962500D03*
X126330000Y-97962500D03*
%TD*%
D42*
%TO.C,C6001*%
X127400000Y-93962500D03*
X125975000Y-93962500D03*
%TD*%
D13*
%TO.C,C2001*%
X125965000Y-91950000D03*
X125275000Y-91950000D03*
%TD*%
D12*
%TO.C,C2009*%
X121755000Y-102450000D03*
X122445000Y-102450000D03*
%TD*%
%TO.C,C2020*%
X127435000Y-101550000D03*
X128125000Y-101550000D03*
%TD*%
D13*
%TO.C,C2011*%
X146900000Y-102000000D03*
X146210000Y-102000000D03*
%TD*%
D12*
%TO.C,R2001*%
X125275000Y-91250000D03*
X125965000Y-91250000D03*
%TD*%
%TO.C,C2015*%
X121735000Y-104900000D03*
X122425000Y-104900000D03*
%TD*%
D24*
%TO.C,D2002*%
X145800000Y-94100000D03*
X145800000Y-92600000D03*
%TD*%
D15*
%TO.C,R3002*%
X155900000Y-91410000D03*
X155900000Y-92100000D03*
%TD*%
D43*
%TO.C,D6002*%
X148900000Y-116100000D03*
X148900000Y-118900000D03*
%TD*%
D44*
%TO.C,LED2001*%
X140600000Y-90450000D03*
X140600000Y-89840400D03*
X139990400Y-89840400D03*
X139990400Y-90450000D03*
%TD*%
D13*
%TO.C,R6001*%
X148925000Y-114700000D03*
X148235000Y-114700000D03*
%TD*%
D12*
%TO.C,C6002*%
X121755000Y-104050000D03*
X122445000Y-104050000D03*
%TD*%
D11*
%TO.C,C2019*%
X128100000Y-103095000D03*
X128100000Y-102405000D03*
%TD*%
D15*
%TO.C,R2003*%
X141235400Y-91900000D03*
X141235400Y-92590000D03*
%TD*%
D45*
%TO.C,U3001*%
X159100000Y-94987500D03*
X158600000Y-94987500D03*
X158100000Y-94987500D03*
X157600000Y-94987500D03*
X157100000Y-94987500D03*
X157100000Y-99212500D03*
X157600000Y-99212500D03*
X158100000Y-99212500D03*
X158600000Y-99212500D03*
X159100000Y-99212500D03*
%TD*%
D46*
%TO.C,FL2001*%
X134600000Y-101050000D03*
X136070000Y-101050000D03*
%TD*%
D12*
%TO.C,C2022*%
X132710000Y-99850000D03*
X133400000Y-99850000D03*
%TD*%
M02*
