%TF.GenerationSoftware,KiCad,Pcbnew,8.0.6*%
%TF.CreationDate,2025-09-09T16:11:22-07:00*%
%TF.ProjectId,Multimodal_Actuator_mk2,4d756c74-696d-46f6-9461-6c5f41637475,rev?*%
%TF.SameCoordinates,Original*%
%TF.FileFunction,Copper,L3,Inr*%
%TF.FilePolarity,Positive*%
%FSLAX46Y46*%
G04 Gerber Fmt 4.6, Leading zero omitted, Abs format (unit mm)*
G04 Created by KiCad (PCBNEW 8.0.6) date 2025-09-09 16:11:22*
%MOMM*%
%LPD*%
G01*
G04 APERTURE LIST*
%TA.AperFunction,ComponentPad*%
%ADD10R,1.524000X1.524000*%
%TD*%
%TA.AperFunction,ComponentPad*%
%ADD11C,1.524000*%
%TD*%
%TA.AperFunction,ComponentPad*%
%ADD12R,1.650000X1.650000*%
%TD*%
%TA.AperFunction,ComponentPad*%
%ADD13C,1.650000*%
%TD*%
%TA.AperFunction,HeatsinkPad*%
%ADD14C,0.500000*%
%TD*%
%TA.AperFunction,ComponentPad*%
%ADD15C,1.000000*%
%TD*%
%TA.AperFunction,ComponentPad*%
%ADD16R,4.050000X4.050000*%
%TD*%
%TA.AperFunction,ComponentPad*%
%ADD17C,4.050000*%
%TD*%
%TA.AperFunction,ComponentPad*%
%ADD18C,2.700000*%
%TD*%
%TA.AperFunction,ViaPad*%
%ADD19C,0.600000*%
%TD*%
%TA.AperFunction,ViaPad*%
%ADD20C,0.400000*%
%TD*%
%TA.AperFunction,Conductor*%
%ADD21C,0.300000*%
%TD*%
%TA.AperFunction,Conductor*%
%ADD22C,0.200000*%
%TD*%
%TA.AperFunction,Conductor*%
%ADD23C,0.210000*%
%TD*%
%TA.AperFunction,Conductor*%
%ADD24C,0.400000*%
%TD*%
G04 APERTURE END LIST*
D10*
%TO.N,Net-(U1005--RG)*%
%TO.C,U1005*%
X153780000Y-106380000D03*
D11*
%TO.N,/VB*%
X153780000Y-108920000D03*
%TO.N,Net-(U1005-+IN)*%
X153780000Y-111460000D03*
%TO.N,GND*%
X153780000Y-114000000D03*
X161400000Y-114000000D03*
%TO.N,/InAmpOutput*%
X161400000Y-111460000D03*
%TO.N,VCC*%
X161400000Y-108920000D03*
%TO.N,Net-(U1005-+RG)*%
X161400000Y-106380000D03*
%TD*%
D12*
%TO.N,/VA*%
%TO.C,P1001*%
X155360000Y-120000000D03*
D13*
%TO.N,Net-(U1005-+IN)*%
X160440000Y-120000000D03*
%TD*%
D14*
%TO.N,GND*%
%TO.C,U5001*%
X141700000Y-117250000D03*
X143200000Y-117250000D03*
X144700000Y-117250000D03*
X141700000Y-115750000D03*
X143200000Y-115750000D03*
X144700000Y-115750000D03*
%TD*%
D15*
%TO.N,Net-(U2001-SWDCLK)*%
%TO.C,TP2003*%
X155700000Y-88900000D03*
%TD*%
%TO.N,GND*%
%TO.C,TPGND2001*%
X127100000Y-105000000D03*
%TD*%
%TO.N,Net-(U2001-SWDIO)*%
%TO.C,TP2004*%
X155700000Y-86800000D03*
%TD*%
%TO.N,Net-(D2003-I{slash}O2)*%
%TO.C,TP2001*%
X136600000Y-94400000D03*
%TD*%
%TO.N,/Arduino_nano_Rev2/RESETN*%
%TO.C,TP2005*%
X157700000Y-92800000D03*
%TD*%
%TO.N,Net-(D2003-I{slash}O1)*%
%TO.C,TP2002*%
X138000000Y-92900000D03*
%TD*%
D16*
%TO.N,Vin*%
%TO.C,J1003*%
X134500000Y-109137500D03*
D17*
%TO.N,GND*%
X127300000Y-109137500D03*
D18*
X137650000Y-115137500D03*
X124150000Y-115137500D03*
%TD*%
D19*
%TO.N,GND*%
X144100000Y-102100000D03*
%TO.N,VUSB*%
X136700000Y-99400000D03*
X134200000Y-99400000D03*
%TO.N,GND*%
X144200000Y-94251728D03*
X152349998Y-98475002D03*
X135400000Y-121600000D03*
X142000000Y-87900000D03*
X133500000Y-96600000D03*
X156600000Y-97765000D03*
X150300000Y-91550000D03*
X148300000Y-91550000D03*
X141958741Y-101471331D03*
X141900000Y-109900000D03*
X133400000Y-100700000D03*
%TO.N,+3.3V*%
X144100000Y-103400000D03*
X120700000Y-105450000D03*
X120700000Y-104050000D03*
X120800000Y-95550000D03*
X120800000Y-96250000D03*
X120700000Y-104750000D03*
X141235400Y-91085400D03*
X120800000Y-94850000D03*
%TO.N,/Arduino_nano_Rev2/LG*%
X143800000Y-96075000D03*
%TO.N,/CLK*%
X134900000Y-115300000D03*
D20*
X146475000Y-99075000D03*
D19*
%TO.N,Net-(J6001-CS)*%
X124200000Y-92300000D03*
X131600000Y-119100000D03*
X147500000Y-114700000D03*
D20*
%TO.N,Net-(U2001-TRACE_D3{slash}GPIO_33)*%
X147279856Y-95900336D03*
D19*
%TO.N,Net-(JP2003-A)*%
X127400000Y-102400000D03*
X123800000Y-99200000D03*
%TO.N,/MCP4728_Quad_DAC/LDAC*%
X156600000Y-96300000D03*
%TO.N,/SDA*%
X154500000Y-94075000D03*
%TO.N,/SCL*%
X154600000Y-92075000D03*
%TO.N,Net-(D3001-A)*%
X142900000Y-110400000D03*
D20*
%TO.N,/Arduino_nano_Rev2/SDA1*%
X144092157Y-97807843D03*
X144900000Y-104100000D03*
%TO.N,/Arduino_nano_Rev2/SCL1*%
X145200000Y-103400000D03*
X144200000Y-97075000D03*
D19*
%TO.N,/Arduino_nano_Rev2/LR*%
X143800000Y-95075000D03*
D20*
%TO.N,/Arduino_nano_Rev2/LB*%
X150461677Y-96972468D03*
%TO.N,/BIN2*%
X151300000Y-96500000D03*
D19*
%TO.N,Net-(U5001-VCP)*%
X144400000Y-111300000D03*
D20*
%TO.N,/AIN1*%
X151400000Y-95900000D03*
D19*
X140500000Y-111800000D03*
X146080000Y-112071472D03*
%TO.N,/BIN1*%
X154148507Y-100435072D03*
%TO.N,/AIN2*%
X141300000Y-111800000D03*
%TO.N,Net-(U2001-SWDCLK)*%
X146250002Y-90500000D03*
D20*
%TO.N,Net-(JP2001-A)*%
X149300000Y-98300000D03*
D19*
%TO.N,/DO*%
X127860000Y-97760000D03*
D20*
X147400000Y-94325000D03*
D19*
%TO.N,/InAmpOutput*%
X154309988Y-99651537D03*
D20*
%TO.N,Net-(JP2002-A)*%
X146400000Y-103000000D03*
X148300000Y-98300000D03*
D19*
%TO.N,/DI*%
X134900000Y-117800000D03*
D20*
X147400000Y-93600000D03*
%TO.N,Net-(U2001-VBUS)*%
X146500000Y-98400000D03*
X137900000Y-100700000D03*
%TO.N,/Arduino_nano_Rev2/D8*%
X152300000Y-99600000D03*
X149300000Y-103000000D03*
D19*
%TO.N,VDD_ENV*%
X147700000Y-101650000D03*
%TO.N,Net-(U2001-SWDIO)*%
X152300000Y-89800000D03*
D20*
%TO.N,/CS*%
X147400000Y-92100000D03*
X134700000Y-120400000D03*
D19*
%TO.N,/Arduino_nano_Rev2/BMI270_INT2*%
X150300000Y-101030000D03*
D20*
%TO.N,/Arduino_nano_Rev2/BMI270_INT1*%
X147300000Y-96500000D03*
X142600000Y-100300000D03*
D19*
%TO.N,Net-(D6002-A)*%
X147300000Y-118900000D03*
%TO.N,Net-(J6001-DATA_IN)*%
X123800000Y-93400000D03*
X134900000Y-116565000D03*
%TO.N,Net-(J6001-SCLK)*%
X127724296Y-95726140D03*
X131600000Y-114000000D03*
%TO.N,Net-(U2004-D)*%
X142212900Y-97234412D03*
%TO.N,VCC*%
X155900000Y-95500000D03*
X143500000Y-112324794D03*
X155900000Y-90700000D03*
X143540000Y-105237587D03*
X134400000Y-94150000D03*
%TD*%
D21*
%TO.N,/CLK*%
X141300000Y-103400000D02*
X141300000Y-108900000D01*
X144080000Y-101470000D02*
X143230000Y-101470000D01*
X141300000Y-108900000D02*
X134900000Y-115300000D01*
X146475000Y-99075000D02*
X144080000Y-101470000D01*
X143230000Y-101470000D02*
X141300000Y-103400000D01*
%TO.N,Net-(J6001-CS)*%
X123000000Y-110500000D02*
X131600000Y-119100000D01*
X123000000Y-93001471D02*
X123000000Y-110500000D01*
X123701471Y-92300000D02*
X123000000Y-93001471D01*
X124200000Y-92300000D02*
X123701471Y-92300000D01*
D22*
%TO.N,Net-(U2001-SWDCLK)*%
X154100000Y-90500000D02*
X155700000Y-88900000D01*
X146250002Y-90500000D02*
X154100000Y-90500000D01*
%TO.N,/DO*%
X138479643Y-93651728D02*
X134371371Y-97760000D01*
X146726728Y-93651728D02*
X138479643Y-93651728D01*
X134371371Y-97760000D02*
X127860000Y-97760000D01*
X147400000Y-94325000D02*
X146726728Y-93651728D01*
D21*
%TO.N,/InAmpOutput*%
X162600000Y-110260000D02*
X161400000Y-111460000D01*
X162600000Y-96300000D02*
X162600000Y-110260000D01*
X156300000Y-90000000D02*
X162600000Y-96300000D01*
X154309988Y-99651537D02*
X153700000Y-99041549D01*
X155600000Y-90000000D02*
X156300000Y-90000000D01*
X153700000Y-99041549D02*
X153700000Y-91900000D01*
X153700000Y-91900000D02*
X155600000Y-90000000D01*
D22*
%TO.N,Net-(JP2002-A)*%
X146400000Y-100300000D02*
X146400000Y-103000000D01*
X148300000Y-98400000D02*
X146400000Y-100300000D01*
%TO.N,Net-(U2001-VBUS)*%
X138300000Y-101100000D02*
X141481543Y-101100000D01*
X145800000Y-98700000D02*
X146100000Y-98400000D01*
X142207270Y-100871331D02*
X142435939Y-101100000D01*
X143651471Y-101100000D02*
X145800000Y-98951471D01*
X141710212Y-100871331D02*
X142207270Y-100871331D01*
X146100000Y-98400000D02*
X146500000Y-98400000D01*
X142435939Y-101100000D02*
X143651471Y-101100000D01*
X137900000Y-100700000D02*
X138300000Y-101100000D01*
X141481543Y-101100000D02*
X141710212Y-100871331D01*
X145800000Y-98951471D02*
X145800000Y-98700000D01*
%TO.N,/Arduino_nano_Rev2/D8*%
X152300000Y-100000000D02*
X149300000Y-103000000D01*
X152300000Y-99600000D02*
X152300000Y-100000000D01*
%TO.N,Net-(U2001-SWDIO)*%
X153800000Y-89800000D02*
X154900000Y-88700000D01*
X154900000Y-88700000D02*
X154900000Y-88400000D01*
X154900000Y-88400000D02*
X155700000Y-87600000D01*
X152300000Y-89800000D02*
X153800000Y-89800000D01*
X155700000Y-87600000D02*
X155700000Y-86800000D01*
D23*
%TO.N,/Arduino_nano_Rev2/BMI270_INT1*%
X142600000Y-100300000D02*
X143500000Y-100300000D01*
X143500000Y-100300000D02*
X147300000Y-96500000D01*
D21*
%TO.N,Net-(J6001-DATA_IN)*%
X126600000Y-103200000D02*
X130800000Y-107400000D01*
X123800000Y-93400000D02*
X126600000Y-96200000D01*
X126600000Y-96200000D02*
X126600000Y-103200000D01*
X133065000Y-116565000D02*
X134900000Y-116565000D01*
X130800000Y-114300000D02*
X133065000Y-116565000D01*
X130800000Y-107400000D02*
X130800000Y-114300000D01*
D22*
%TO.N,Net-(J6001-SCLK)*%
X127260000Y-100460000D02*
X131600000Y-104800000D01*
X131600000Y-104800000D02*
X131600000Y-114000000D01*
X127724296Y-95726140D02*
X127260000Y-96190436D01*
X127260000Y-96190436D02*
X127260000Y-100460000D01*
D24*
%TO.N,VCC*%
X154036765Y-101536765D02*
X150335942Y-105237587D01*
X155900000Y-95500000D02*
X155900000Y-99673529D01*
X161400000Y-108920000D02*
X154036765Y-101556765D01*
X155900000Y-99673529D02*
X154036765Y-101536765D01*
X155900000Y-90700000D02*
X155900000Y-95500000D01*
X150335942Y-105237587D02*
X143540000Y-105237587D01*
D22*
X154036765Y-101556765D02*
X154036765Y-101536765D01*
%TD*%
%TA.AperFunction,Conductor*%
%TO.N,GND*%
G36*
X144896632Y-85803868D02*
G01*
X144900000Y-85812000D01*
X144900000Y-89450000D01*
X152027558Y-89450000D01*
X152035690Y-89453368D01*
X152039058Y-89461500D01*
X152035690Y-89469632D01*
X151955567Y-89549754D01*
X151943610Y-89573221D01*
X151895095Y-89668438D01*
X151895094Y-89668439D01*
X151895094Y-89668441D01*
X151895093Y-89668444D01*
X151874258Y-89799997D01*
X151874258Y-89800002D01*
X151895093Y-89931555D01*
X151895094Y-89931558D01*
X151895095Y-89931562D01*
X151955567Y-90050245D01*
X152049755Y-90144433D01*
X152168438Y-90204905D01*
X152168443Y-90204905D01*
X152168444Y-90204906D01*
X152299997Y-90225742D01*
X152300000Y-90225742D01*
X152300003Y-90225742D01*
X152407067Y-90208784D01*
X152431562Y-90204905D01*
X152550245Y-90144433D01*
X152644433Y-90050245D01*
X152644435Y-90050242D01*
X152656391Y-90026779D01*
X152663084Y-90021063D01*
X152666637Y-90020500D01*
X153843858Y-90020500D01*
X153843860Y-90020500D01*
X153924903Y-89986931D01*
X155060100Y-88851732D01*
X155068231Y-88848365D01*
X155076363Y-88851733D01*
X155079731Y-88859865D01*
X155079647Y-88861251D01*
X155074943Y-88899998D01*
X155074943Y-88900001D01*
X155093105Y-89049583D01*
X155093106Y-89049586D01*
X155120901Y-89122874D01*
X155130470Y-89148105D01*
X155130204Y-89156903D01*
X155127849Y-89160315D01*
X154012034Y-90276132D01*
X154003902Y-90279500D01*
X146616639Y-90279500D01*
X146608507Y-90276132D01*
X146606393Y-90273221D01*
X146594437Y-90249757D01*
X146500247Y-90155567D01*
X146478393Y-90144432D01*
X146381564Y-90095095D01*
X146381561Y-90095094D01*
X146381560Y-90095094D01*
X146381557Y-90095093D01*
X146250005Y-90074258D01*
X146249999Y-90074258D01*
X146118446Y-90095093D01*
X146118443Y-90095094D01*
X146118441Y-90095094D01*
X146118440Y-90095095D01*
X146073061Y-90118217D01*
X145999756Y-90155567D01*
X145905569Y-90249754D01*
X145894999Y-90270500D01*
X145845097Y-90368438D01*
X145845096Y-90368439D01*
X145845096Y-90368441D01*
X145845095Y-90368444D01*
X145824260Y-90499997D01*
X145824260Y-90500002D01*
X145845095Y-90631555D01*
X145845096Y-90631558D01*
X145845097Y-90631562D01*
X145905569Y-90750245D01*
X145999757Y-90844433D01*
X146118440Y-90904905D01*
X146118445Y-90904905D01*
X146118446Y-90904906D01*
X146249999Y-90925742D01*
X146250002Y-90925742D01*
X146250005Y-90925742D01*
X146357069Y-90908784D01*
X146381564Y-90904905D01*
X146500247Y-90844433D01*
X146594435Y-90750245D01*
X146594437Y-90750242D01*
X146606393Y-90726779D01*
X146613086Y-90721063D01*
X146616639Y-90720500D01*
X154143858Y-90720500D01*
X154143860Y-90720500D01*
X154224903Y-90686931D01*
X155438951Y-89472881D01*
X155447082Y-89469514D01*
X155452425Y-89470830D01*
X155478352Y-89484438D01*
X155624658Y-89520500D01*
X155624661Y-89520500D01*
X155775339Y-89520500D01*
X155775342Y-89520500D01*
X155921648Y-89484438D01*
X156055073Y-89414412D01*
X156101537Y-89373248D01*
X162689500Y-89373248D01*
X162689500Y-89626751D01*
X162729155Y-89877123D01*
X162807489Y-90118213D01*
X162807490Y-90118216D01*
X162807491Y-90118217D01*
X162922577Y-90344086D01*
X163071579Y-90549170D01*
X163250830Y-90728421D01*
X163455914Y-90877423D01*
X163681783Y-90992509D01*
X163922874Y-91070844D01*
X164048062Y-91090672D01*
X164173249Y-91110500D01*
X164173251Y-91110500D01*
X164426751Y-91110500D01*
X164526899Y-91094637D01*
X164677126Y-91070844D01*
X164918217Y-90992509D01*
X165144086Y-90877423D01*
X165349170Y-90728421D01*
X165528421Y-90549170D01*
X165677423Y-90344086D01*
X165792509Y-90118217D01*
X165870844Y-89877126D01*
X165910500Y-89626749D01*
X165910500Y-89373251D01*
X165901192Y-89314486D01*
X165876774Y-89160315D01*
X165870844Y-89122874D01*
X165792509Y-88881783D01*
X165677423Y-88655914D01*
X165528421Y-88450830D01*
X165349170Y-88271579D01*
X165144086Y-88122577D01*
X164918217Y-88007491D01*
X164918216Y-88007490D01*
X164918213Y-88007489D01*
X164677123Y-87929155D01*
X164426751Y-87889500D01*
X164426749Y-87889500D01*
X164173251Y-87889500D01*
X164173249Y-87889500D01*
X163922876Y-87929155D01*
X163681786Y-88007489D01*
X163455912Y-88122578D01*
X163250830Y-88271579D01*
X163071579Y-88450830D01*
X162922578Y-88655912D01*
X162807489Y-88881786D01*
X162729155Y-89122876D01*
X162689500Y-89373248D01*
X156101537Y-89373248D01*
X156167862Y-89314489D01*
X156253460Y-89190478D01*
X156306894Y-89049586D01*
X156325057Y-88900000D01*
X156322845Y-88881786D01*
X156306894Y-88750416D01*
X156306894Y-88750414D01*
X156253460Y-88609522D01*
X156167862Y-88485511D01*
X156167859Y-88485508D01*
X156167857Y-88485506D01*
X156055075Y-88385590D01*
X156055073Y-88385588D01*
X155921648Y-88315562D01*
X155775342Y-88279500D01*
X155624658Y-88279500D01*
X155478352Y-88315562D01*
X155478350Y-88315563D01*
X155344928Y-88385587D01*
X155344924Y-88385590D01*
X155232142Y-88485506D01*
X155232136Y-88485513D01*
X155224830Y-88496098D01*
X155146540Y-88609522D01*
X155144300Y-88615430D01*
X155142753Y-88619508D01*
X155136719Y-88625917D01*
X155127922Y-88626183D01*
X155121513Y-88620149D01*
X155120500Y-88615430D01*
X155120500Y-88496098D01*
X155123868Y-88487966D01*
X155489257Y-88122577D01*
X155886931Y-87724903D01*
X155920500Y-87643860D01*
X155920500Y-87556139D01*
X155920500Y-87391992D01*
X155923868Y-87383860D01*
X155926653Y-87381811D01*
X156055073Y-87314412D01*
X156167862Y-87214489D01*
X156253460Y-87090478D01*
X156306894Y-86949586D01*
X156325057Y-86800000D01*
X156306894Y-86650414D01*
X156253460Y-86509522D01*
X156167862Y-86385511D01*
X156167859Y-86385508D01*
X156167857Y-86385506D01*
X156055075Y-86285590D01*
X156055073Y-86285588D01*
X155921648Y-86215562D01*
X155775342Y-86179500D01*
X155624658Y-86179500D01*
X155478352Y-86215562D01*
X155478350Y-86215563D01*
X155344928Y-86285587D01*
X155344924Y-86285590D01*
X155232142Y-86385506D01*
X155232136Y-86385513D01*
X155146540Y-86509522D01*
X155093106Y-86650415D01*
X155093105Y-86650416D01*
X155074943Y-86799998D01*
X155074943Y-86800001D01*
X155093105Y-86949583D01*
X155093106Y-86949586D01*
X155146540Y-87090478D01*
X155232138Y-87214489D01*
X155232140Y-87214491D01*
X155232142Y-87214493D01*
X155296588Y-87271587D01*
X155344927Y-87314412D01*
X155473344Y-87381810D01*
X155478979Y-87388571D01*
X155479500Y-87391992D01*
X155479500Y-87503902D01*
X155476132Y-87512034D01*
X154713070Y-88275095D01*
X154713069Y-88275096D01*
X154713069Y-88275097D01*
X154696308Y-88315563D01*
X154679500Y-88356141D01*
X154679500Y-88603902D01*
X154676132Y-88612034D01*
X153712034Y-89576132D01*
X153703902Y-89579500D01*
X152666637Y-89579500D01*
X152658505Y-89576132D01*
X152656391Y-89573221D01*
X152644435Y-89549757D01*
X152564310Y-89469632D01*
X152560942Y-89461500D01*
X152564310Y-89453368D01*
X152572442Y-89450000D01*
X153699999Y-89450000D01*
X153700000Y-89450000D01*
X153700000Y-85812000D01*
X153703368Y-85803868D01*
X153711500Y-85800500D01*
X164160438Y-85800500D01*
X167588000Y-85800500D01*
X167596132Y-85803868D01*
X167599500Y-85812000D01*
X167599500Y-93088000D01*
X167596132Y-93096132D01*
X167588000Y-93099500D01*
X164160438Y-93099500D01*
X164084012Y-93119978D01*
X164015489Y-93159539D01*
X163959539Y-93215489D01*
X163919978Y-93284012D01*
X163910829Y-93318157D01*
X163899500Y-93360438D01*
X163899500Y-115660438D01*
X163899500Y-115739562D01*
X163919979Y-115815989D01*
X163959540Y-115884511D01*
X164015489Y-115940460D01*
X164084011Y-115980021D01*
X164160438Y-116000500D01*
X170288000Y-116000500D01*
X170296132Y-116003868D01*
X170299500Y-116012000D01*
X170299500Y-124188000D01*
X170296132Y-124196132D01*
X170288000Y-124199500D01*
X114312000Y-124199500D01*
X114303868Y-124196132D01*
X114300500Y-124188000D01*
X114300500Y-120373248D01*
X116089500Y-120373248D01*
X116089500Y-120626751D01*
X116129155Y-120877123D01*
X116207489Y-121118213D01*
X116207490Y-121118216D01*
X116207491Y-121118217D01*
X116322577Y-121344086D01*
X116471579Y-121549170D01*
X116650830Y-121728421D01*
X116855914Y-121877423D01*
X117081783Y-121992509D01*
X117322874Y-122070844D01*
X117448062Y-122090672D01*
X117573249Y-122110500D01*
X117573251Y-122110500D01*
X117826751Y-122110500D01*
X117926899Y-122094637D01*
X118077126Y-122070844D01*
X118318217Y-121992509D01*
X118544086Y-121877423D01*
X118749170Y-121728421D01*
X118928421Y-121549170D01*
X119077423Y-121344086D01*
X119192509Y-121118217D01*
X119270844Y-120877126D01*
X119310500Y-120626749D01*
X119310500Y-120399998D01*
X134374556Y-120399998D01*
X134374556Y-120400001D01*
X134394181Y-120511305D01*
X134394182Y-120511307D01*
X134450695Y-120609191D01*
X134537278Y-120681843D01*
X134566808Y-120692591D01*
X134643481Y-120720499D01*
X134643487Y-120720500D01*
X134756513Y-120720500D01*
X134756518Y-120720499D01*
X134809617Y-120701171D01*
X134862722Y-120681843D01*
X134949305Y-120609191D01*
X135005817Y-120511308D01*
X135011845Y-120477126D01*
X135025444Y-120400001D01*
X135025444Y-120399998D01*
X135005818Y-120288694D01*
X135005817Y-120288692D01*
X134970056Y-120226751D01*
X134949305Y-120190809D01*
X134862722Y-120118157D01*
X134862720Y-120118156D01*
X134862717Y-120118155D01*
X134756518Y-120079500D01*
X134756513Y-120079500D01*
X134643487Y-120079500D01*
X134643481Y-120079500D01*
X134537282Y-120118155D01*
X134537279Y-120118156D01*
X134450695Y-120190808D01*
X134394182Y-120288692D01*
X134394181Y-120288694D01*
X134374556Y-120399998D01*
X119310500Y-120399998D01*
X119310500Y-120373251D01*
X119308968Y-120363581D01*
X119270844Y-120122876D01*
X119270844Y-120122874D01*
X119192509Y-119881783D01*
X119077423Y-119655914D01*
X118928421Y-119450830D01*
X118749170Y-119271579D01*
X118544086Y-119122577D01*
X118318217Y-119007491D01*
X118318216Y-119007490D01*
X118318213Y-119007489D01*
X118077123Y-118929155D01*
X117826751Y-118889500D01*
X117826749Y-118889500D01*
X117573251Y-118889500D01*
X117573249Y-118889500D01*
X117322876Y-118929155D01*
X117081786Y-119007489D01*
X116855912Y-119122578D01*
X116650830Y-119271579D01*
X116471579Y-119450830D01*
X116322578Y-119655912D01*
X116207489Y-119881786D01*
X116129155Y-120122876D01*
X116089500Y-120373248D01*
X114300500Y-120373248D01*
X114300500Y-116812000D01*
X114303868Y-116803868D01*
X114312000Y-116800500D01*
X119839562Y-116800500D01*
X119915989Y-116780021D01*
X119984511Y-116740460D01*
X120040460Y-116684511D01*
X120080021Y-116615989D01*
X120100500Y-116539562D01*
X120100500Y-115137500D01*
X122295274Y-115137500D01*
X122314152Y-115401454D01*
X122314153Y-115401461D01*
X122370400Y-115660026D01*
X122370402Y-115660033D01*
X122462880Y-115907976D01*
X122462889Y-115907994D01*
X122589700Y-116140232D01*
X122589708Y-116140244D01*
X122677038Y-116256905D01*
X123359520Y-115574422D01*
X123450924Y-115711217D01*
X123576283Y-115836576D01*
X123713075Y-115927977D01*
X123030593Y-116610460D01*
X123147255Y-116697791D01*
X123147267Y-116697799D01*
X123379505Y-116824610D01*
X123379523Y-116824619D01*
X123627466Y-116917097D01*
X123627473Y-116917099D01*
X123886038Y-116973346D01*
X123886045Y-116973347D01*
X124150000Y-116992225D01*
X124413954Y-116973347D01*
X124413961Y-116973346D01*
X124672526Y-116917099D01*
X124672533Y-116917097D01*
X124920476Y-116824619D01*
X124920494Y-116824610D01*
X125152732Y-116697799D01*
X125152744Y-116697791D01*
X125269405Y-116610460D01*
X124586923Y-115927978D01*
X124723717Y-115836576D01*
X124849076Y-115711217D01*
X124940478Y-115574423D01*
X125622960Y-116256905D01*
X125710291Y-116140244D01*
X125710299Y-116140232D01*
X125837110Y-115907994D01*
X125837119Y-115907976D01*
X125929597Y-115660033D01*
X125929599Y-115660026D01*
X125985846Y-115401461D01*
X125985847Y-115401454D01*
X126004725Y-115137500D01*
X125985847Y-114873545D01*
X125985846Y-114873538D01*
X125929599Y-114614973D01*
X125929597Y-114614966D01*
X125837119Y-114367023D01*
X125837110Y-114367005D01*
X125710299Y-114134767D01*
X125710291Y-114134755D01*
X125622960Y-114018093D01*
X124940477Y-114700575D01*
X124849076Y-114563783D01*
X124723717Y-114438424D01*
X124586922Y-114347020D01*
X125269405Y-113664538D01*
X125152744Y-113577208D01*
X125152732Y-113577200D01*
X124920494Y-113450389D01*
X124920476Y-113450380D01*
X124672533Y-113357902D01*
X124672526Y-113357900D01*
X124413961Y-113301653D01*
X124413954Y-113301652D01*
X124150000Y-113282774D01*
X123886045Y-113301652D01*
X123886038Y-113301653D01*
X123627473Y-113357900D01*
X123627466Y-113357902D01*
X123379523Y-113450380D01*
X123379505Y-113450389D01*
X123147267Y-113577200D01*
X123147255Y-113577208D01*
X123030593Y-113664538D01*
X123713076Y-114347021D01*
X123576283Y-114438424D01*
X123450924Y-114563783D01*
X123359521Y-114700576D01*
X122677038Y-114018093D01*
X122589708Y-114134755D01*
X122589700Y-114134767D01*
X122462889Y-114367005D01*
X122462880Y-114367023D01*
X122370402Y-114614966D01*
X122370400Y-114614973D01*
X122314153Y-114873538D01*
X122314152Y-114873545D01*
X122295274Y-115137500D01*
X120100500Y-115137500D01*
X120100500Y-110553804D01*
X122729499Y-110553804D01*
X122729500Y-110553806D01*
X122751948Y-110608000D01*
X122770681Y-110653226D01*
X122770682Y-110653227D01*
X131176021Y-119058566D01*
X131179389Y-119066698D01*
X131179247Y-119068497D01*
X131174258Y-119099997D01*
X131174258Y-119100002D01*
X131195093Y-119231555D01*
X131195094Y-119231558D01*
X131195095Y-119231562D01*
X131255567Y-119350245D01*
X131349755Y-119444433D01*
X131468438Y-119504905D01*
X131468443Y-119504905D01*
X131468444Y-119504906D01*
X131599997Y-119525742D01*
X131600000Y-119525742D01*
X131600003Y-119525742D01*
X131707067Y-119508784D01*
X131731562Y-119504905D01*
X131850245Y-119444433D01*
X131944433Y-119350245D01*
X132004905Y-119231562D01*
X132021310Y-119127983D01*
X132025742Y-119100002D01*
X132025742Y-119099997D01*
X132004906Y-118968444D01*
X132004905Y-118968441D01*
X132004905Y-118968438D01*
X131970033Y-118899997D01*
X146874258Y-118899997D01*
X146874258Y-118900002D01*
X146895093Y-119031555D01*
X146895094Y-119031558D01*
X146895095Y-119031562D01*
X146955567Y-119150245D01*
X147049755Y-119244433D01*
X147168438Y-119304905D01*
X147168443Y-119304905D01*
X147168444Y-119304906D01*
X147299997Y-119325742D01*
X147300000Y-119325742D01*
X147300003Y-119325742D01*
X147407067Y-119308784D01*
X147431562Y-119304905D01*
X147550245Y-119244433D01*
X147631548Y-119163130D01*
X154414500Y-119163130D01*
X154414500Y-120836870D01*
X154421491Y-120872017D01*
X154421492Y-120872018D01*
X154448122Y-120911874D01*
X154448124Y-120911876D01*
X154487983Y-120938509D01*
X154523130Y-120945500D01*
X154523131Y-120945500D01*
X156196869Y-120945500D01*
X156196870Y-120945500D01*
X156232017Y-120938509D01*
X156271876Y-120911876D01*
X156298509Y-120872017D01*
X156305500Y-120836870D01*
X156305500Y-120000000D01*
X159489925Y-120000000D01*
X159508180Y-120185350D01*
X159508180Y-120185352D01*
X159508181Y-120185354D01*
X159562243Y-120363571D01*
X159562246Y-120363581D01*
X159641209Y-120511308D01*
X159650042Y-120527833D01*
X159768196Y-120671804D01*
X159912167Y-120789958D01*
X159912169Y-120789959D01*
X160075239Y-120877123D01*
X160076422Y-120877755D01*
X160254650Y-120931820D01*
X160440000Y-120950075D01*
X160625350Y-120931820D01*
X160803578Y-120877755D01*
X160967833Y-120789958D01*
X161111804Y-120671804D01*
X161229958Y-120527833D01*
X161317755Y-120363578D01*
X161371820Y-120185350D01*
X161390075Y-120000000D01*
X161387440Y-119973248D01*
X165389500Y-119973248D01*
X165389500Y-120226751D01*
X165429155Y-120477123D01*
X165507489Y-120718213D01*
X165507490Y-120718216D01*
X165507491Y-120718217D01*
X165622577Y-120944086D01*
X165771579Y-121149170D01*
X165950830Y-121328421D01*
X166155914Y-121477423D01*
X166381783Y-121592509D01*
X166622874Y-121670844D01*
X166748062Y-121690672D01*
X166873249Y-121710500D01*
X166873251Y-121710500D01*
X167126751Y-121710500D01*
X167226899Y-121694637D01*
X167377126Y-121670844D01*
X167618217Y-121592509D01*
X167844086Y-121477423D01*
X168049170Y-121328421D01*
X168228421Y-121149170D01*
X168377423Y-120944086D01*
X168492509Y-120718217D01*
X168570844Y-120477126D01*
X168610500Y-120226749D01*
X168610500Y-119973251D01*
X168570844Y-119722874D01*
X168492509Y-119481783D01*
X168377423Y-119255914D01*
X168228421Y-119050830D01*
X168049170Y-118871579D01*
X167844086Y-118722577D01*
X167618217Y-118607491D01*
X167618216Y-118607490D01*
X167618213Y-118607489D01*
X167377123Y-118529155D01*
X167126751Y-118489500D01*
X167126749Y-118489500D01*
X166873251Y-118489500D01*
X166873249Y-118489500D01*
X166622876Y-118529155D01*
X166381786Y-118607489D01*
X166155912Y-118722578D01*
X165950830Y-118871579D01*
X165771579Y-119050830D01*
X165622578Y-119255912D01*
X165507489Y-119481786D01*
X165429155Y-119722876D01*
X165389500Y-119973248D01*
X161387440Y-119973248D01*
X161371820Y-119814650D01*
X161317755Y-119636422D01*
X161229958Y-119472167D01*
X161111804Y-119328196D01*
X160967833Y-119210042D01*
X160967831Y-119210041D01*
X160967830Y-119210040D01*
X160803581Y-119122246D01*
X160803571Y-119122243D01*
X160625354Y-119068181D01*
X160625352Y-119068180D01*
X160625350Y-119068180D01*
X160440000Y-119049925D01*
X160254650Y-119068180D01*
X160254647Y-119068180D01*
X160254645Y-119068181D01*
X160076428Y-119122243D01*
X160076418Y-119122246D01*
X159912169Y-119210040D01*
X159768196Y-119328196D01*
X159650040Y-119472169D01*
X159562246Y-119636418D01*
X159562243Y-119636428D01*
X159508181Y-119814645D01*
X159508180Y-119814647D01*
X159508180Y-119814650D01*
X159489925Y-120000000D01*
X156305500Y-120000000D01*
X156305500Y-119163130D01*
X156298509Y-119127983D01*
X156271876Y-119088124D01*
X156271874Y-119088122D01*
X156239810Y-119066698D01*
X156232017Y-119061491D01*
X156232014Y-119061490D01*
X156232013Y-119061490D01*
X156214202Y-119057947D01*
X156196870Y-119054500D01*
X154523130Y-119054500D01*
X154511522Y-119056808D01*
X154487986Y-119061490D01*
X154487981Y-119061492D01*
X154448125Y-119088122D01*
X154448122Y-119088125D01*
X154421492Y-119127981D01*
X154421491Y-119127983D01*
X154414500Y-119163130D01*
X147631548Y-119163130D01*
X147644433Y-119150245D01*
X147704905Y-119031562D01*
X147721124Y-118929156D01*
X147725742Y-118900002D01*
X147725742Y-118899997D01*
X147704906Y-118768444D01*
X147704905Y-118768441D01*
X147704905Y-118768438D01*
X147644433Y-118649755D01*
X147550245Y-118555567D01*
X147431562Y-118495095D01*
X147431559Y-118495094D01*
X147431558Y-118495094D01*
X147431555Y-118495093D01*
X147300003Y-118474258D01*
X147299997Y-118474258D01*
X147168444Y-118495093D01*
X147168441Y-118495094D01*
X147168439Y-118495094D01*
X147168438Y-118495095D01*
X147108008Y-118525885D01*
X147049754Y-118555567D01*
X146955567Y-118649754D01*
X146940540Y-118679247D01*
X146895095Y-118768438D01*
X146895094Y-118768439D01*
X146895094Y-118768441D01*
X146895093Y-118768444D01*
X146874258Y-118899997D01*
X131970033Y-118899997D01*
X131944433Y-118849755D01*
X131850245Y-118755567D01*
X131731562Y-118695095D01*
X131731559Y-118695094D01*
X131731558Y-118695094D01*
X131731555Y-118695093D01*
X131600003Y-118674258D01*
X131599997Y-118674258D01*
X131568497Y-118679247D01*
X131559938Y-118677193D01*
X131558566Y-118676021D01*
X130682542Y-117799997D01*
X134474258Y-117799997D01*
X134474258Y-117800002D01*
X134495093Y-117931555D01*
X134495094Y-117931558D01*
X134495095Y-117931562D01*
X134555567Y-118050245D01*
X134649755Y-118144433D01*
X134768438Y-118204905D01*
X134768443Y-118204905D01*
X134768444Y-118204906D01*
X134899997Y-118225742D01*
X134900000Y-118225742D01*
X134900003Y-118225742D01*
X135007067Y-118208784D01*
X135031562Y-118204905D01*
X135150245Y-118144433D01*
X135244433Y-118050245D01*
X135304905Y-117931562D01*
X135305110Y-117930266D01*
X141373285Y-117930266D01*
X141532050Y-117985821D01*
X141700000Y-118004745D01*
X141867949Y-117985821D01*
X142026712Y-117930266D01*
X142873285Y-117930266D01*
X143032050Y-117985821D01*
X143200000Y-118004745D01*
X143367949Y-117985821D01*
X143526712Y-117930266D01*
X144373285Y-117930266D01*
X144532050Y-117985821D01*
X144700000Y-118004745D01*
X144867949Y-117985821D01*
X145026712Y-117930266D01*
X144699999Y-117603553D01*
X144373285Y-117930266D01*
X143526712Y-117930266D01*
X143199999Y-117603553D01*
X142873285Y-117930266D01*
X142026712Y-117930266D01*
X141699999Y-117603553D01*
X141373285Y-117930266D01*
X135305110Y-117930266D01*
X135325742Y-117800000D01*
X135304905Y-117668438D01*
X135244433Y-117549755D01*
X135150245Y-117455567D01*
X135031562Y-117395095D01*
X135031559Y-117395094D01*
X135031558Y-117395094D01*
X135031555Y-117395093D01*
X134900003Y-117374258D01*
X134899997Y-117374258D01*
X134768444Y-117395093D01*
X134768441Y-117395094D01*
X134768439Y-117395094D01*
X134768438Y-117395095D01*
X134708008Y-117425885D01*
X134649754Y-117455567D01*
X134555567Y-117549754D01*
X134528156Y-117603553D01*
X134495095Y-117668438D01*
X134495094Y-117668439D01*
X134495094Y-117668441D01*
X134495093Y-117668444D01*
X134474258Y-117799997D01*
X130682542Y-117799997D01*
X130132545Y-117250000D01*
X140945254Y-117250000D01*
X140964178Y-117417949D01*
X141019732Y-117576712D01*
X141346446Y-117250000D01*
X141326555Y-117230109D01*
X141600000Y-117230109D01*
X141600000Y-117269891D01*
X141615224Y-117306645D01*
X141643355Y-117334776D01*
X141680109Y-117350000D01*
X141719891Y-117350000D01*
X141756645Y-117334776D01*
X141784776Y-117306645D01*
X141800000Y-117269891D01*
X141800000Y-117249999D01*
X142053553Y-117249999D01*
X142380266Y-117576712D01*
X142435821Y-117417949D01*
X142438572Y-117393543D01*
X142442830Y-117385840D01*
X142451288Y-117383403D01*
X142458991Y-117387661D01*
X142461428Y-117393543D01*
X142464178Y-117417949D01*
X142519732Y-117576712D01*
X142846445Y-117249999D01*
X142826555Y-117230109D01*
X143100000Y-117230109D01*
X143100000Y-117269891D01*
X143115224Y-117306645D01*
X143143355Y-117334776D01*
X143180109Y-117350000D01*
X143219891Y-117350000D01*
X143256645Y-117334776D01*
X143284776Y-117306645D01*
X143300000Y-117269891D01*
X143300000Y-117249999D01*
X143553553Y-117249999D01*
X143880266Y-117576712D01*
X143935821Y-117417949D01*
X143938572Y-117393543D01*
X143942830Y-117385840D01*
X143951288Y-117383403D01*
X143958991Y-117387661D01*
X143961428Y-117393543D01*
X143964178Y-117417949D01*
X144019732Y-117576712D01*
X144346445Y-117249999D01*
X144326555Y-117230109D01*
X144600000Y-117230109D01*
X144600000Y-117269891D01*
X144615224Y-117306645D01*
X144643355Y-117334776D01*
X144680109Y-117350000D01*
X144719891Y-117350000D01*
X144756645Y-117334776D01*
X144784776Y-117306645D01*
X144800000Y-117269891D01*
X144800000Y-117249999D01*
X145053553Y-117249999D01*
X145380266Y-117576712D01*
X145435821Y-117417949D01*
X145454745Y-117250000D01*
X145435821Y-117082050D01*
X145380266Y-116923285D01*
X145053553Y-117249999D01*
X144800000Y-117249999D01*
X144800000Y-117230109D01*
X144784776Y-117193355D01*
X144756645Y-117165224D01*
X144719891Y-117150000D01*
X144680109Y-117150000D01*
X144643355Y-117165224D01*
X144615224Y-117193355D01*
X144600000Y-117230109D01*
X144326555Y-117230109D01*
X144019732Y-116923286D01*
X143964178Y-117082050D01*
X143961428Y-117106456D01*
X143957170Y-117114159D01*
X143948712Y-117116596D01*
X143941009Y-117112338D01*
X143938572Y-117106456D01*
X143935821Y-117082050D01*
X143880266Y-116923285D01*
X143553553Y-117249999D01*
X143300000Y-117249999D01*
X143300000Y-117230109D01*
X143284776Y-117193355D01*
X143256645Y-117165224D01*
X143219891Y-117150000D01*
X143180109Y-117150000D01*
X143143355Y-117165224D01*
X143115224Y-117193355D01*
X143100000Y-117230109D01*
X142826555Y-117230109D01*
X142519732Y-116923286D01*
X142464178Y-117082050D01*
X142461428Y-117106456D01*
X142457170Y-117114159D01*
X142448712Y-117116596D01*
X142441009Y-117112338D01*
X142438572Y-117106456D01*
X142435821Y-117082050D01*
X142380266Y-116923285D01*
X142053553Y-117249999D01*
X141800000Y-117249999D01*
X141800000Y-117230109D01*
X141784776Y-117193355D01*
X141756645Y-117165224D01*
X141719891Y-117150000D01*
X141680109Y-117150000D01*
X141643355Y-117165224D01*
X141615224Y-117193355D01*
X141600000Y-117230109D01*
X141326555Y-117230109D01*
X141019732Y-116923286D01*
X140964178Y-117082050D01*
X140945254Y-117250000D01*
X130132545Y-117250000D01*
X123273868Y-110391323D01*
X123270500Y-110383191D01*
X123270500Y-109137495D01*
X124770008Y-109137495D01*
X124770008Y-109137504D01*
X124789957Y-109454588D01*
X124849489Y-109766671D01*
X124849492Y-109766686D01*
X124947671Y-110068845D01*
X124947674Y-110068853D01*
X125082949Y-110356330D01*
X125253194Y-110624594D01*
X125346528Y-110737416D01*
X126184728Y-109899216D01*
X126270278Y-110016966D01*
X126420534Y-110167222D01*
X126538281Y-110252770D01*
X125697076Y-111093976D01*
X125944362Y-111273642D01*
X125944363Y-111273643D01*
X126222781Y-111426704D01*
X126222786Y-111426706D01*
X126518188Y-111543664D01*
X126825922Y-111622677D01*
X126825935Y-111622680D01*
X127141126Y-111662499D01*
X127141141Y-111662500D01*
X127458859Y-111662500D01*
X127458873Y-111662499D01*
X127774064Y-111622680D01*
X127774077Y-111622677D01*
X128081811Y-111543664D01*
X128377213Y-111426706D01*
X128377218Y-111426704D01*
X128655636Y-111273643D01*
X128655637Y-111273642D01*
X128902922Y-111093976D01*
X128061717Y-110252771D01*
X128179466Y-110167222D01*
X128329722Y-110016966D01*
X128415271Y-109899217D01*
X129253470Y-110737417D01*
X129346805Y-110624594D01*
X129517050Y-110356330D01*
X129652325Y-110068853D01*
X129652328Y-110068845D01*
X129750507Y-109766686D01*
X129750510Y-109766671D01*
X129810042Y-109454588D01*
X129829992Y-109137504D01*
X129829992Y-109137495D01*
X129810042Y-108820411D01*
X129750510Y-108508328D01*
X129750507Y-108508313D01*
X129652328Y-108206154D01*
X129652325Y-108206146D01*
X129517050Y-107918669D01*
X129346805Y-107650405D01*
X129253469Y-107537581D01*
X128415269Y-108375781D01*
X128329722Y-108258034D01*
X128179466Y-108107778D01*
X128061716Y-108022228D01*
X128902922Y-107181022D01*
X128655637Y-107001357D01*
X128655636Y-107001356D01*
X128377218Y-106848295D01*
X128377213Y-106848293D01*
X128081811Y-106731335D01*
X127774077Y-106652322D01*
X127774064Y-106652319D01*
X127458873Y-106612500D01*
X127141126Y-106612500D01*
X126825935Y-106652319D01*
X126825922Y-106652322D01*
X126518188Y-106731335D01*
X126222786Y-106848293D01*
X126222781Y-106848295D01*
X125944363Y-107001356D01*
X125944362Y-107001357D01*
X125697075Y-107181022D01*
X126538282Y-108022229D01*
X126420534Y-108107778D01*
X126270278Y-108258034D01*
X126184729Y-108375782D01*
X125346528Y-107537581D01*
X125253194Y-107650405D01*
X125082949Y-107918669D01*
X124947674Y-108206146D01*
X124947671Y-108206154D01*
X124849492Y-108508313D01*
X124849489Y-108508328D01*
X124789957Y-108820411D01*
X124770008Y-109137495D01*
X123270500Y-109137495D01*
X123270500Y-105862075D01*
X126591476Y-105862075D01*
X126715461Y-105928348D01*
X126715471Y-105928351D01*
X126903961Y-105985529D01*
X127100000Y-106004838D01*
X127296038Y-105985529D01*
X127484528Y-105928351D01*
X127484538Y-105928348D01*
X127608522Y-105862075D01*
X127099999Y-105353553D01*
X126591476Y-105862075D01*
X123270500Y-105862075D01*
X123270500Y-105000000D01*
X126095161Y-105000000D01*
X126114470Y-105196038D01*
X126171648Y-105384528D01*
X126171651Y-105384538D01*
X126237923Y-105508522D01*
X126746446Y-104999999D01*
X126237923Y-104491476D01*
X126171651Y-104615461D01*
X126171648Y-104615471D01*
X126114470Y-104803961D01*
X126095161Y-105000000D01*
X123270500Y-105000000D01*
X123270500Y-99199997D01*
X123374258Y-99199997D01*
X123374258Y-99200002D01*
X123395093Y-99331555D01*
X123395094Y-99331558D01*
X123395095Y-99331562D01*
X123455567Y-99450245D01*
X123549755Y-99544433D01*
X123668438Y-99604905D01*
X123668443Y-99604905D01*
X123668444Y-99604906D01*
X123799997Y-99625742D01*
X123800000Y-99625742D01*
X123800003Y-99625742D01*
X123907067Y-99608784D01*
X123931562Y-99604905D01*
X124050245Y-99544433D01*
X124144433Y-99450245D01*
X124204905Y-99331562D01*
X124214903Y-99268438D01*
X124225742Y-99200002D01*
X124225742Y-99199997D01*
X124204906Y-99068444D01*
X124204905Y-99068441D01*
X124204905Y-99068438D01*
X124144433Y-98949755D01*
X124050245Y-98855567D01*
X123931562Y-98795095D01*
X123931559Y-98795094D01*
X123931558Y-98795094D01*
X123931555Y-98795093D01*
X123800003Y-98774258D01*
X123799997Y-98774258D01*
X123668444Y-98795093D01*
X123668441Y-98795094D01*
X123668439Y-98795094D01*
X123668438Y-98795095D01*
X123608008Y-98825885D01*
X123549754Y-98855567D01*
X123455567Y-98949754D01*
X123443082Y-98974258D01*
X123395095Y-99068438D01*
X123395094Y-99068439D01*
X123395094Y-99068441D01*
X123395093Y-99068444D01*
X123374258Y-99199997D01*
X123270500Y-99199997D01*
X123270500Y-93399997D01*
X123374258Y-93399997D01*
X123374258Y-93400002D01*
X123395093Y-93531555D01*
X123395094Y-93531558D01*
X123395095Y-93531562D01*
X123455567Y-93650245D01*
X123549755Y-93744433D01*
X123668438Y-93804905D01*
X123668443Y-93804905D01*
X123668444Y-93804906D01*
X123799997Y-93825742D01*
X123800000Y-93825742D01*
X123800001Y-93825742D01*
X123803737Y-93825149D01*
X123831502Y-93820751D01*
X123840059Y-93822805D01*
X123841432Y-93823977D01*
X126326132Y-96308677D01*
X126329500Y-96316809D01*
X126329500Y-103253804D01*
X126329499Y-103253804D01*
X126329500Y-103253806D01*
X126353623Y-103312044D01*
X126370681Y-103353226D01*
X126370682Y-103353227D01*
X127003257Y-103985802D01*
X127006625Y-103993934D01*
X127003257Y-104002066D01*
X126996252Y-104005379D01*
X126903961Y-104014470D01*
X126715471Y-104071648D01*
X126715461Y-104071651D01*
X126591476Y-104137923D01*
X127241612Y-104788059D01*
X127149728Y-104750000D01*
X127050272Y-104750000D01*
X126958386Y-104788060D01*
X126888060Y-104858386D01*
X126850000Y-104950272D01*
X126850000Y-105049728D01*
X126888060Y-105141614D01*
X126958386Y-105211940D01*
X127050272Y-105250000D01*
X127149728Y-105250000D01*
X127241614Y-105211940D01*
X127311940Y-105141614D01*
X127350000Y-105049728D01*
X127350000Y-104950272D01*
X127311940Y-104858387D01*
X127962075Y-105508522D01*
X128028348Y-105384538D01*
X128028351Y-105384528D01*
X128085529Y-105196038D01*
X128094619Y-105103746D01*
X128098768Y-105095983D01*
X128107191Y-105093428D01*
X128114196Y-105096741D01*
X130526132Y-107508677D01*
X130529500Y-107516809D01*
X130529500Y-114353804D01*
X130529499Y-114353804D01*
X130550666Y-114404905D01*
X130553623Y-114412044D01*
X130570681Y-114453226D01*
X132911774Y-116794319D01*
X132982074Y-116823438D01*
X133011194Y-116835500D01*
X133011195Y-116835500D01*
X133118805Y-116835500D01*
X134571058Y-116835500D01*
X134579190Y-116838868D01*
X134649755Y-116909433D01*
X134768438Y-116969905D01*
X134768443Y-116969905D01*
X134768444Y-116969906D01*
X134899997Y-116990742D01*
X134900000Y-116990742D01*
X134900003Y-116990742D01*
X135009836Y-116973346D01*
X135031562Y-116969905D01*
X135150245Y-116909433D01*
X135244433Y-116815245D01*
X135304905Y-116696562D01*
X135325742Y-116565000D01*
X135304905Y-116433438D01*
X135244433Y-116314755D01*
X135150245Y-116220567D01*
X135031562Y-116160095D01*
X135031559Y-116160094D01*
X135031558Y-116160094D01*
X135031555Y-116160093D01*
X134900003Y-116139258D01*
X134899997Y-116139258D01*
X134768444Y-116160093D01*
X134768441Y-116160094D01*
X134768439Y-116160094D01*
X134768438Y-116160095D01*
X134708008Y-116190885D01*
X134649754Y-116220567D01*
X134579190Y-116291132D01*
X134571058Y-116294500D01*
X133181809Y-116294500D01*
X133173677Y-116291132D01*
X132182542Y-115299997D01*
X134474258Y-115299997D01*
X134474258Y-115300002D01*
X134495093Y-115431555D01*
X134495094Y-115431558D01*
X134495095Y-115431562D01*
X134555567Y-115550245D01*
X134649755Y-115644433D01*
X134768438Y-115704905D01*
X134768443Y-115704905D01*
X134768444Y-115704906D01*
X134899997Y-115725742D01*
X134900000Y-115725742D01*
X134900003Y-115725742D01*
X135007067Y-115708784D01*
X135031562Y-115704905D01*
X135150245Y-115644433D01*
X135244433Y-115550245D01*
X135304905Y-115431562D01*
X135325742Y-115300000D01*
X135320751Y-115268495D01*
X135322805Y-115259939D01*
X135323971Y-115258572D01*
X135815692Y-114766851D01*
X135823823Y-114763484D01*
X135831955Y-114766852D01*
X135835323Y-114774984D01*
X135835060Y-114777428D01*
X135814153Y-114873538D01*
X135814152Y-114873545D01*
X135795274Y-115137500D01*
X135814152Y-115401454D01*
X135814153Y-115401461D01*
X135870400Y-115660026D01*
X135870402Y-115660033D01*
X135962880Y-115907976D01*
X135962889Y-115907994D01*
X136089700Y-116140232D01*
X136089708Y-116140244D01*
X136177038Y-116256905D01*
X136859521Y-115574423D01*
X136950924Y-115711217D01*
X137076283Y-115836576D01*
X137213075Y-115927977D01*
X136530593Y-116610460D01*
X136647255Y-116697791D01*
X136647267Y-116697799D01*
X136879505Y-116824610D01*
X136879523Y-116824619D01*
X137127466Y-116917097D01*
X137127473Y-116917099D01*
X137386038Y-116973346D01*
X137386045Y-116973347D01*
X137650000Y-116992225D01*
X137913954Y-116973347D01*
X137913961Y-116973346D01*
X138172526Y-116917099D01*
X138172533Y-116917097D01*
X138420476Y-116824619D01*
X138420494Y-116824610D01*
X138652732Y-116697799D01*
X138652744Y-116697791D01*
X138769405Y-116610460D01*
X138589211Y-116430266D01*
X141373285Y-116430266D01*
X141532050Y-116485821D01*
X141556456Y-116488572D01*
X141564159Y-116492830D01*
X141566596Y-116501288D01*
X141562338Y-116508991D01*
X141556456Y-116511428D01*
X141532050Y-116514178D01*
X141373286Y-116569732D01*
X141699999Y-116896445D01*
X142026712Y-116569732D01*
X141867949Y-116514178D01*
X141843543Y-116511428D01*
X141835840Y-116507170D01*
X141833403Y-116498712D01*
X141837661Y-116491009D01*
X141843543Y-116488572D01*
X141867949Y-116485821D01*
X142026712Y-116430266D01*
X142873285Y-116430266D01*
X143032050Y-116485821D01*
X143056456Y-116488572D01*
X143064159Y-116492830D01*
X143066596Y-116501288D01*
X143062338Y-116508991D01*
X143056456Y-116511428D01*
X143032050Y-116514178D01*
X142873286Y-116569732D01*
X143199999Y-116896445D01*
X143526712Y-116569732D01*
X143367949Y-116514178D01*
X143343543Y-116511428D01*
X143335840Y-116507170D01*
X143333403Y-116498712D01*
X143337661Y-116491009D01*
X143343543Y-116488572D01*
X143367949Y-116485821D01*
X143526712Y-116430266D01*
X144373285Y-116430266D01*
X144532050Y-116485821D01*
X144556456Y-116488572D01*
X144564159Y-116492830D01*
X144566596Y-116501288D01*
X144562338Y-116508991D01*
X144556456Y-116511428D01*
X144532050Y-116514178D01*
X144373286Y-116569732D01*
X144699999Y-116896445D01*
X145026712Y-116569732D01*
X144867949Y-116514178D01*
X144843543Y-116511428D01*
X144835840Y-116507170D01*
X144833403Y-116498712D01*
X144837661Y-116491009D01*
X144843543Y-116488572D01*
X144867949Y-116485821D01*
X145026712Y-116430266D01*
X144699999Y-116103553D01*
X144373285Y-116430266D01*
X143526712Y-116430266D01*
X143199999Y-116103553D01*
X142873285Y-116430266D01*
X142026712Y-116430266D01*
X141699999Y-116103553D01*
X141373285Y-116430266D01*
X138589211Y-116430266D01*
X138086923Y-115927978D01*
X138223717Y-115836576D01*
X138349076Y-115711217D01*
X138440477Y-115574424D01*
X139122960Y-116256905D01*
X139210291Y-116140244D01*
X139210299Y-116140232D01*
X139337110Y-115907994D01*
X139337119Y-115907976D01*
X139396041Y-115750000D01*
X140945254Y-115750000D01*
X140964178Y-115917949D01*
X141019732Y-116076712D01*
X141346446Y-115750000D01*
X141326555Y-115730109D01*
X141600000Y-115730109D01*
X141600000Y-115769891D01*
X141615224Y-115806645D01*
X141643355Y-115834776D01*
X141680109Y-115850000D01*
X141719891Y-115850000D01*
X141756645Y-115834776D01*
X141784776Y-115806645D01*
X141800000Y-115769891D01*
X141800000Y-115749999D01*
X142053553Y-115749999D01*
X142380266Y-116076712D01*
X142435821Y-115917949D01*
X142438572Y-115893543D01*
X142442830Y-115885840D01*
X142451288Y-115883403D01*
X142458991Y-115887661D01*
X142461428Y-115893543D01*
X142464178Y-115917949D01*
X142519732Y-116076712D01*
X142846445Y-115749999D01*
X142826555Y-115730109D01*
X143100000Y-115730109D01*
X143100000Y-115769891D01*
X143115224Y-115806645D01*
X143143355Y-115834776D01*
X143180109Y-115850000D01*
X143219891Y-115850000D01*
X143256645Y-115834776D01*
X143284776Y-115806645D01*
X143300000Y-115769891D01*
X143300000Y-115749999D01*
X143553553Y-115749999D01*
X143880266Y-116076712D01*
X143935821Y-115917949D01*
X143938572Y-115893543D01*
X143942830Y-115885840D01*
X143951288Y-115883403D01*
X143958991Y-115887661D01*
X143961428Y-115893543D01*
X143964178Y-115917949D01*
X144019732Y-116076712D01*
X144346445Y-115749999D01*
X144326555Y-115730109D01*
X144600000Y-115730109D01*
X144600000Y-115769891D01*
X144615224Y-115806645D01*
X144643355Y-115834776D01*
X144680109Y-115850000D01*
X144719891Y-115850000D01*
X144756645Y-115834776D01*
X144784776Y-115806645D01*
X144800000Y-115769891D01*
X144800000Y-115749999D01*
X145053553Y-115749999D01*
X145380266Y-116076712D01*
X145435821Y-115917949D01*
X145454745Y-115750000D01*
X145435821Y-115582050D01*
X145380266Y-115423285D01*
X145053553Y-115749999D01*
X144800000Y-115749999D01*
X144800000Y-115730109D01*
X144784776Y-115693355D01*
X144756645Y-115665224D01*
X144719891Y-115650000D01*
X144680109Y-115650000D01*
X144643355Y-115665224D01*
X144615224Y-115693355D01*
X144600000Y-115730109D01*
X144326555Y-115730109D01*
X144019732Y-115423286D01*
X143964178Y-115582050D01*
X143961428Y-115606456D01*
X143957170Y-115614159D01*
X143948712Y-115616596D01*
X143941009Y-115612338D01*
X143938572Y-115606456D01*
X143935821Y-115582050D01*
X143880266Y-115423285D01*
X143553553Y-115749999D01*
X143300000Y-115749999D01*
X143300000Y-115730109D01*
X143284776Y-115693355D01*
X143256645Y-115665224D01*
X143219891Y-115650000D01*
X143180109Y-115650000D01*
X143143355Y-115665224D01*
X143115224Y-115693355D01*
X143100000Y-115730109D01*
X142826555Y-115730109D01*
X142519732Y-115423286D01*
X142464178Y-115582050D01*
X142461428Y-115606456D01*
X142457170Y-115614159D01*
X142448712Y-115616596D01*
X142441009Y-115612338D01*
X142438572Y-115606456D01*
X142435821Y-115582050D01*
X142380266Y-115423285D01*
X142053553Y-115749999D01*
X141800000Y-115749999D01*
X141800000Y-115730109D01*
X141784776Y-115693355D01*
X141756645Y-115665224D01*
X141719891Y-115650000D01*
X141680109Y-115650000D01*
X141643355Y-115665224D01*
X141615224Y-115693355D01*
X141600000Y-115730109D01*
X141326555Y-115730109D01*
X141019732Y-115423286D01*
X140964178Y-115582050D01*
X140945254Y-115750000D01*
X139396041Y-115750000D01*
X139429597Y-115660033D01*
X139429599Y-115660026D01*
X139485846Y-115401461D01*
X139485847Y-115401454D01*
X139504725Y-115137500D01*
X139499878Y-115069732D01*
X141373286Y-115069732D01*
X141699999Y-115396445D01*
X142026712Y-115069732D01*
X142873286Y-115069732D01*
X143199999Y-115396445D01*
X143526712Y-115069732D01*
X144373286Y-115069732D01*
X144699999Y-115396445D01*
X145026712Y-115069732D01*
X144867949Y-115014178D01*
X144700000Y-114995254D01*
X144532050Y-115014178D01*
X144373286Y-115069732D01*
X143526712Y-115069732D01*
X143367949Y-115014178D01*
X143200000Y-114995254D01*
X143032050Y-115014178D01*
X142873286Y-115069732D01*
X142026712Y-115069732D01*
X141867949Y-115014178D01*
X141700000Y-114995254D01*
X141532050Y-115014178D01*
X141373286Y-115069732D01*
X139499878Y-115069732D01*
X139485847Y-114873545D01*
X139485846Y-114873538D01*
X139448095Y-114699997D01*
X147074258Y-114699997D01*
X147074258Y-114700002D01*
X147095093Y-114831555D01*
X147095094Y-114831558D01*
X147095095Y-114831562D01*
X147155567Y-114950245D01*
X147249755Y-115044433D01*
X147368438Y-115104905D01*
X147368443Y-115104905D01*
X147368444Y-115104906D01*
X147499997Y-115125742D01*
X147500000Y-115125742D01*
X147500003Y-115125742D01*
X147607067Y-115108784D01*
X147631562Y-115104905D01*
X147750245Y-115044433D01*
X147844433Y-114950245D01*
X147904905Y-114831562D01*
X147925742Y-114700000D01*
X147904905Y-114568438D01*
X147844433Y-114449755D01*
X147750245Y-114355567D01*
X147631562Y-114295095D01*
X147631559Y-114295094D01*
X147631558Y-114295094D01*
X147631555Y-114295093D01*
X147500003Y-114274258D01*
X147499997Y-114274258D01*
X147368444Y-114295093D01*
X147368441Y-114295094D01*
X147368439Y-114295094D01*
X147368438Y-114295095D01*
X147309352Y-114325201D01*
X147249754Y-114355567D01*
X147155567Y-114449754D01*
X147125885Y-114508008D01*
X147095095Y-114568438D01*
X147095094Y-114568439D01*
X147095094Y-114568441D01*
X147095093Y-114568444D01*
X147074258Y-114699997D01*
X139448095Y-114699997D01*
X139429599Y-114614973D01*
X139429597Y-114614966D01*
X139337119Y-114367023D01*
X139337110Y-114367005D01*
X139210299Y-114134767D01*
X139210291Y-114134755D01*
X139122960Y-114018093D01*
X138440477Y-114700575D01*
X138349076Y-114563783D01*
X138223717Y-114438424D01*
X138086923Y-114347021D01*
X138433946Y-113999997D01*
X152513179Y-113999997D01*
X152513179Y-114000002D01*
X152532425Y-114219979D01*
X152532426Y-114219985D01*
X152589577Y-114433275D01*
X152589578Y-114433279D01*
X152682903Y-114633415D01*
X152728257Y-114698187D01*
X153373600Y-114052845D01*
X153373600Y-114053504D01*
X153401295Y-114156865D01*
X153454799Y-114249536D01*
X153530464Y-114325201D01*
X153623135Y-114378705D01*
X153726496Y-114406400D01*
X153727152Y-114406400D01*
X153081810Y-115051741D01*
X153146584Y-115097096D01*
X153346720Y-115190421D01*
X153346724Y-115190422D01*
X153560014Y-115247573D01*
X153560020Y-115247574D01*
X153779997Y-115266821D01*
X153780003Y-115266821D01*
X153999979Y-115247574D01*
X153999985Y-115247573D01*
X154213275Y-115190422D01*
X154213279Y-115190421D01*
X154413415Y-115097096D01*
X154478188Y-115051741D01*
X153832846Y-114406400D01*
X153833504Y-114406400D01*
X153936865Y-114378705D01*
X154029536Y-114325201D01*
X154105201Y-114249536D01*
X154158705Y-114156865D01*
X154186400Y-114053504D01*
X154186400Y-114052847D01*
X154831741Y-114698188D01*
X154877096Y-114633415D01*
X154970421Y-114433279D01*
X154970422Y-114433275D01*
X155027573Y-114219985D01*
X155027574Y-114219979D01*
X155046821Y-114000002D01*
X155046821Y-113999997D01*
X160133179Y-113999997D01*
X160133179Y-114000002D01*
X160152425Y-114219979D01*
X160152426Y-114219985D01*
X160209577Y-114433275D01*
X160209578Y-114433279D01*
X160302903Y-114633415D01*
X160348257Y-114698187D01*
X160993600Y-114052845D01*
X160993600Y-114053504D01*
X161021295Y-114156865D01*
X161074799Y-114249536D01*
X161150464Y-114325201D01*
X161243135Y-114378705D01*
X161346496Y-114406400D01*
X161347152Y-114406400D01*
X160701810Y-115051741D01*
X160766584Y-115097096D01*
X160966720Y-115190421D01*
X160966724Y-115190422D01*
X161180014Y-115247573D01*
X161180020Y-115247574D01*
X161399997Y-115266821D01*
X161400003Y-115266821D01*
X161619979Y-115247574D01*
X161619985Y-115247573D01*
X161833275Y-115190422D01*
X161833279Y-115190421D01*
X162033415Y-115097096D01*
X162098188Y-115051741D01*
X161452846Y-114406400D01*
X161453504Y-114406400D01*
X161556865Y-114378705D01*
X161649536Y-114325201D01*
X161725201Y-114249536D01*
X161778705Y-114156865D01*
X161806400Y-114053504D01*
X161806400Y-114052847D01*
X162451741Y-114698188D01*
X162497096Y-114633415D01*
X162590421Y-114433279D01*
X162590422Y-114433275D01*
X162647573Y-114219985D01*
X162647574Y-114219979D01*
X162666821Y-114000002D01*
X162666821Y-113999997D01*
X162647574Y-113780020D01*
X162647573Y-113780014D01*
X162590422Y-113566724D01*
X162590421Y-113566720D01*
X162497096Y-113366585D01*
X162451740Y-113301811D01*
X161806400Y-113947152D01*
X161806400Y-113946496D01*
X161778705Y-113843135D01*
X161725201Y-113750464D01*
X161649536Y-113674799D01*
X161556865Y-113621295D01*
X161453504Y-113593600D01*
X161452845Y-113593600D01*
X162098188Y-112948257D01*
X162033415Y-112902903D01*
X161833279Y-112809578D01*
X161833275Y-112809577D01*
X161619985Y-112752426D01*
X161619979Y-112752425D01*
X161400003Y-112733179D01*
X161399997Y-112733179D01*
X161180020Y-112752425D01*
X161180014Y-112752426D01*
X160966724Y-112809577D01*
X160966720Y-112809578D01*
X160766585Y-112902903D01*
X160701810Y-112948257D01*
X161347153Y-113593600D01*
X161346496Y-113593600D01*
X161243135Y-113621295D01*
X161150464Y-113674799D01*
X161074799Y-113750464D01*
X161021295Y-113843135D01*
X160993600Y-113946496D01*
X160993600Y-113947153D01*
X160348257Y-113301810D01*
X160302903Y-113366585D01*
X160209578Y-113566720D01*
X160209577Y-113566724D01*
X160152426Y-113780014D01*
X160152425Y-113780020D01*
X160133179Y-113999997D01*
X155046821Y-113999997D01*
X155027574Y-113780020D01*
X155027573Y-113780014D01*
X154970422Y-113566724D01*
X154970421Y-113566720D01*
X154877096Y-113366585D01*
X154831740Y-113301811D01*
X154186400Y-113947152D01*
X154186400Y-113946496D01*
X154158705Y-113843135D01*
X154105201Y-113750464D01*
X154029536Y-113674799D01*
X153936865Y-113621295D01*
X153833504Y-113593600D01*
X153832845Y-113593600D01*
X154478188Y-112948257D01*
X154413415Y-112902903D01*
X154213279Y-112809578D01*
X154213275Y-112809577D01*
X153999985Y-112752426D01*
X153999979Y-112752425D01*
X153780003Y-112733179D01*
X153779997Y-112733179D01*
X153560020Y-112752425D01*
X153560014Y-112752426D01*
X153346724Y-112809577D01*
X153346720Y-112809578D01*
X153146585Y-112902903D01*
X153081810Y-112948257D01*
X153727153Y-113593600D01*
X153726496Y-113593600D01*
X153623135Y-113621295D01*
X153530464Y-113674799D01*
X153454799Y-113750464D01*
X153401295Y-113843135D01*
X153373600Y-113946496D01*
X153373600Y-113947153D01*
X152728257Y-113301810D01*
X152682903Y-113366585D01*
X152589578Y-113566720D01*
X152589577Y-113566724D01*
X152532426Y-113780014D01*
X152532425Y-113780020D01*
X152513179Y-113999997D01*
X138433946Y-113999997D01*
X138769405Y-113664538D01*
X138652744Y-113577208D01*
X138652732Y-113577200D01*
X138420494Y-113450389D01*
X138420476Y-113450380D01*
X138172533Y-113357902D01*
X138172526Y-113357900D01*
X137913961Y-113301653D01*
X137913954Y-113301652D01*
X137650000Y-113282774D01*
X137386038Y-113301653D01*
X137386031Y-113301654D01*
X137289928Y-113322559D01*
X137281267Y-113320996D01*
X137276247Y-113313766D01*
X137277810Y-113305105D01*
X137279342Y-113303201D01*
X138257753Y-112324791D01*
X143074258Y-112324791D01*
X143074258Y-112324796D01*
X143095093Y-112456349D01*
X143095094Y-112456352D01*
X143095095Y-112456356D01*
X143155567Y-112575039D01*
X143249755Y-112669227D01*
X143368438Y-112729699D01*
X143368443Y-112729699D01*
X143368444Y-112729700D01*
X143499997Y-112750536D01*
X143500000Y-112750536D01*
X143500003Y-112750536D01*
X143609590Y-112733179D01*
X143631562Y-112729699D01*
X143750245Y-112669227D01*
X143844433Y-112575039D01*
X143904905Y-112456356D01*
X143925742Y-112324794D01*
X143922437Y-112303928D01*
X143904906Y-112193238D01*
X143904905Y-112193235D01*
X143904905Y-112193232D01*
X143844433Y-112074549D01*
X143841353Y-112071469D01*
X145654258Y-112071469D01*
X145654258Y-112071474D01*
X145675093Y-112203027D01*
X145675094Y-112203030D01*
X145675095Y-112203034D01*
X145735567Y-112321717D01*
X145829755Y-112415905D01*
X145948438Y-112476377D01*
X145948443Y-112476377D01*
X145948444Y-112476378D01*
X146079997Y-112497214D01*
X146080000Y-112497214D01*
X146080003Y-112497214D01*
X146187067Y-112480256D01*
X146211562Y-112476377D01*
X146330245Y-112415905D01*
X146424433Y-112321717D01*
X146484905Y-112203034D01*
X146494186Y-112144433D01*
X146505742Y-112071474D01*
X146505742Y-112071469D01*
X146484906Y-111939916D01*
X146484905Y-111939913D01*
X146484905Y-111939910D01*
X146424433Y-111821227D01*
X146330245Y-111727039D01*
X146211562Y-111666567D01*
X146211559Y-111666566D01*
X146211558Y-111666566D01*
X146211555Y-111666565D01*
X146080003Y-111645730D01*
X146079997Y-111645730D01*
X145948444Y-111666565D01*
X145948441Y-111666566D01*
X145948439Y-111666566D01*
X145948438Y-111666567D01*
X145888008Y-111697357D01*
X145829754Y-111727039D01*
X145735567Y-111821226D01*
X145705885Y-111879480D01*
X145675095Y-111939910D01*
X145675094Y-111939911D01*
X145675094Y-111939913D01*
X145675093Y-111939916D01*
X145654258Y-112071469D01*
X143841353Y-112071469D01*
X143750245Y-111980361D01*
X143631562Y-111919889D01*
X143631559Y-111919888D01*
X143631558Y-111919888D01*
X143631555Y-111919887D01*
X143500003Y-111899052D01*
X143499997Y-111899052D01*
X143368444Y-111919887D01*
X143368441Y-111919888D01*
X143368439Y-111919888D01*
X143368438Y-111919889D01*
X143308008Y-111950679D01*
X143249754Y-111980361D01*
X143155567Y-112074548D01*
X143132697Y-112119433D01*
X143095095Y-112193232D01*
X143095094Y-112193233D01*
X143095094Y-112193235D01*
X143095093Y-112193238D01*
X143074258Y-112324791D01*
X138257753Y-112324791D01*
X138782547Y-111799997D01*
X140074258Y-111799997D01*
X140074258Y-111800002D01*
X140095093Y-111931555D01*
X140095094Y-111931558D01*
X140095095Y-111931562D01*
X140155567Y-112050245D01*
X140249755Y-112144433D01*
X140368438Y-112204905D01*
X140368443Y-112204905D01*
X140368444Y-112204906D01*
X140499997Y-112225742D01*
X140500000Y-112225742D01*
X140500003Y-112225742D01*
X140607067Y-112208784D01*
X140631562Y-112204905D01*
X140750245Y-112144433D01*
X140844433Y-112050245D01*
X140889753Y-111961297D01*
X140896446Y-111955582D01*
X140905221Y-111956272D01*
X140910245Y-111961296D01*
X140955567Y-112050245D01*
X141049755Y-112144433D01*
X141168438Y-112204905D01*
X141168443Y-112204905D01*
X141168444Y-112204906D01*
X141299997Y-112225742D01*
X141300000Y-112225742D01*
X141300003Y-112225742D01*
X141407067Y-112208784D01*
X141431562Y-112204905D01*
X141550245Y-112144433D01*
X141644433Y-112050245D01*
X141704905Y-111931562D01*
X141722428Y-111820923D01*
X141725742Y-111800002D01*
X141725742Y-111799997D01*
X141704906Y-111668444D01*
X141704905Y-111668441D01*
X141704905Y-111668438D01*
X141644433Y-111549755D01*
X141550245Y-111455567D01*
X141431562Y-111395095D01*
X141431559Y-111395094D01*
X141431558Y-111395094D01*
X141431555Y-111395093D01*
X141300003Y-111374258D01*
X141299997Y-111374258D01*
X141168444Y-111395093D01*
X141168441Y-111395094D01*
X141168439Y-111395094D01*
X141168438Y-111395095D01*
X141108008Y-111425885D01*
X141049754Y-111455567D01*
X140955567Y-111549754D01*
X140910247Y-111638700D01*
X140903554Y-111644416D01*
X140894779Y-111643726D01*
X140889753Y-111638700D01*
X140881589Y-111622677D01*
X140844433Y-111549755D01*
X140750245Y-111455567D01*
X140631562Y-111395095D01*
X140631559Y-111395094D01*
X140631558Y-111395094D01*
X140631555Y-111395093D01*
X140500003Y-111374258D01*
X140499997Y-111374258D01*
X140368444Y-111395093D01*
X140368441Y-111395094D01*
X140368439Y-111395094D01*
X140368438Y-111395095D01*
X140308008Y-111425885D01*
X140249754Y-111455567D01*
X140155567Y-111549754D01*
X140155317Y-111550245D01*
X140095095Y-111668438D01*
X140095094Y-111668439D01*
X140095094Y-111668441D01*
X140095093Y-111668444D01*
X140074258Y-111799997D01*
X138782547Y-111799997D01*
X139282547Y-111299997D01*
X143974258Y-111299997D01*
X143974258Y-111300002D01*
X143995093Y-111431555D01*
X143995094Y-111431558D01*
X143995095Y-111431562D01*
X144055567Y-111550245D01*
X144149755Y-111644433D01*
X144268438Y-111704905D01*
X144268443Y-111704905D01*
X144268444Y-111704906D01*
X144399997Y-111725742D01*
X144400000Y-111725742D01*
X144400003Y-111725742D01*
X144507067Y-111708784D01*
X144531562Y-111704905D01*
X144650245Y-111644433D01*
X144744433Y-111550245D01*
X144790416Y-111459999D01*
X152892639Y-111459999D01*
X152892639Y-111460000D01*
X152912029Y-111644489D01*
X152912029Y-111644491D01*
X152912030Y-111644493D01*
X152917881Y-111662500D01*
X152969355Y-111820923D01*
X153062107Y-111981575D01*
X153062108Y-111981576D01*
X153145821Y-112074549D01*
X153186240Y-112119438D01*
X153336319Y-112228477D01*
X153505790Y-112303930D01*
X153687246Y-112342500D01*
X153687248Y-112342500D01*
X153872752Y-112342500D01*
X153872754Y-112342500D01*
X154054210Y-112303930D01*
X154223681Y-112228477D01*
X154373760Y-112119438D01*
X154497890Y-111981578D01*
X154512501Y-111956272D01*
X154533879Y-111919243D01*
X154590645Y-111820922D01*
X154647970Y-111644493D01*
X154667361Y-111460000D01*
X154647970Y-111275507D01*
X154590645Y-111099078D01*
X154590644Y-111099076D01*
X154497892Y-110938424D01*
X154497891Y-110938423D01*
X154373764Y-110800566D01*
X154373762Y-110800565D01*
X154373760Y-110800562D01*
X154223681Y-110691523D01*
X154183722Y-110673732D01*
X154054213Y-110616071D01*
X154054211Y-110616070D01*
X154054210Y-110616070D01*
X153872754Y-110577500D01*
X153687246Y-110577500D01*
X153505790Y-110616070D01*
X153505789Y-110616070D01*
X153505786Y-110616071D01*
X153336323Y-110691521D01*
X153336320Y-110691522D01*
X153336320Y-110691523D01*
X153186240Y-110800562D01*
X153186239Y-110800563D01*
X153186235Y-110800566D01*
X153062108Y-110938423D01*
X153062107Y-110938424D01*
X152969355Y-111099076D01*
X152912030Y-111275507D01*
X152912029Y-111275510D01*
X152892639Y-111459999D01*
X144790416Y-111459999D01*
X144804905Y-111431562D01*
X144825742Y-111300000D01*
X144821942Y-111276009D01*
X144804906Y-111168444D01*
X144804905Y-111168441D01*
X144804905Y-111168438D01*
X144744433Y-111049755D01*
X144650245Y-110955567D01*
X144531562Y-110895095D01*
X144531559Y-110895094D01*
X144531558Y-110895094D01*
X144531555Y-110895093D01*
X144400003Y-110874258D01*
X144399997Y-110874258D01*
X144268444Y-110895093D01*
X144268441Y-110895094D01*
X144268439Y-110895094D01*
X144268438Y-110895095D01*
X144208008Y-110925885D01*
X144149754Y-110955567D01*
X144055567Y-111049754D01*
X144033035Y-111093976D01*
X143995095Y-111168438D01*
X143995094Y-111168439D01*
X143995094Y-111168441D01*
X143995093Y-111168444D01*
X143974258Y-111299997D01*
X139282547Y-111299997D01*
X140182548Y-110399997D01*
X142474258Y-110399997D01*
X142474258Y-110400002D01*
X142495093Y-110531555D01*
X142495094Y-110531558D01*
X142495095Y-110531562D01*
X142555567Y-110650245D01*
X142649755Y-110744433D01*
X142768438Y-110804905D01*
X142768443Y-110804905D01*
X142768444Y-110804906D01*
X142899997Y-110825742D01*
X142900000Y-110825742D01*
X142900003Y-110825742D01*
X143007067Y-110808784D01*
X143031562Y-110804905D01*
X143150245Y-110744433D01*
X143244433Y-110650245D01*
X143304905Y-110531562D01*
X143323647Y-110413227D01*
X143325742Y-110400002D01*
X143325742Y-110399997D01*
X143304906Y-110268444D01*
X143304905Y-110268441D01*
X143304905Y-110268438D01*
X143244433Y-110149755D01*
X143150245Y-110055567D01*
X143031562Y-109995095D01*
X143031559Y-109995094D01*
X143031558Y-109995094D01*
X143031555Y-109995093D01*
X142900003Y-109974258D01*
X142899997Y-109974258D01*
X142768444Y-109995093D01*
X142768441Y-109995094D01*
X142768439Y-109995094D01*
X142768438Y-109995095D01*
X142725514Y-110016966D01*
X142649754Y-110055567D01*
X142555567Y-110149754D01*
X142546667Y-110167222D01*
X142495095Y-110268438D01*
X142495094Y-110268439D01*
X142495094Y-110268441D01*
X142495093Y-110268444D01*
X142474258Y-110399997D01*
X140182548Y-110399997D01*
X141529319Y-109053226D01*
X141570500Y-108953805D01*
X141570500Y-108919999D01*
X152892639Y-108919999D01*
X152892639Y-108920000D01*
X152912029Y-109104489D01*
X152912030Y-109104492D01*
X152969355Y-109280923D01*
X153062107Y-109441575D01*
X153062108Y-109441576D01*
X153106657Y-109491053D01*
X153186240Y-109579438D01*
X153336319Y-109688477D01*
X153505790Y-109763930D01*
X153687246Y-109802500D01*
X153687248Y-109802500D01*
X153872752Y-109802500D01*
X153872754Y-109802500D01*
X154054210Y-109763930D01*
X154223681Y-109688477D01*
X154373760Y-109579438D01*
X154497890Y-109441578D01*
X154590645Y-109280922D01*
X154647970Y-109104493D01*
X154667361Y-108920000D01*
X154647970Y-108735507D01*
X154590645Y-108559078D01*
X154589307Y-108556760D01*
X154497892Y-108398424D01*
X154497891Y-108398423D01*
X154373764Y-108260566D01*
X154373762Y-108260565D01*
X154373760Y-108260562D01*
X154223681Y-108151523D01*
X154223677Y-108151521D01*
X154054213Y-108076071D01*
X154054211Y-108076070D01*
X154054210Y-108076070D01*
X153872754Y-108037500D01*
X153687246Y-108037500D01*
X153505790Y-108076070D01*
X153505789Y-108076070D01*
X153505786Y-108076071D01*
X153336323Y-108151521D01*
X153336320Y-108151522D01*
X153336320Y-108151523D01*
X153186240Y-108260562D01*
X153186239Y-108260563D01*
X153186235Y-108260566D01*
X153062108Y-108398423D01*
X153062107Y-108398424D01*
X152969355Y-108559076D01*
X152912030Y-108735507D01*
X152912029Y-108735510D01*
X152892639Y-108919999D01*
X141570500Y-108919999D01*
X141570500Y-108846195D01*
X141570500Y-105237584D01*
X143114258Y-105237584D01*
X143114258Y-105237589D01*
X143135093Y-105369142D01*
X143135094Y-105369145D01*
X143135095Y-105369149D01*
X143195567Y-105487832D01*
X143289755Y-105582020D01*
X143408438Y-105642492D01*
X143408443Y-105642492D01*
X143408444Y-105642493D01*
X143539997Y-105663329D01*
X143540000Y-105663329D01*
X143540003Y-105663329D01*
X143647067Y-105646371D01*
X143671562Y-105642492D01*
X143742926Y-105606130D01*
X152897500Y-105606130D01*
X152897500Y-107153870D01*
X152904491Y-107189017D01*
X152904492Y-107189018D01*
X152931122Y-107228874D01*
X152931124Y-107228876D01*
X152970983Y-107255509D01*
X153006130Y-107262500D01*
X153006131Y-107262500D01*
X154553869Y-107262500D01*
X154553870Y-107262500D01*
X154589017Y-107255509D01*
X154628876Y-107228876D01*
X154655509Y-107189017D01*
X154662500Y-107153870D01*
X154662500Y-105606130D01*
X154655509Y-105570983D01*
X154632299Y-105536247D01*
X154628877Y-105531125D01*
X154628874Y-105531122D01*
X154589018Y-105504492D01*
X154589019Y-105504492D01*
X154589017Y-105504491D01*
X154589014Y-105504490D01*
X154589013Y-105504490D01*
X154571202Y-105500947D01*
X154553870Y-105497500D01*
X153006130Y-105497500D01*
X152994522Y-105499808D01*
X152970986Y-105504490D01*
X152970981Y-105504492D01*
X152931125Y-105531122D01*
X152931122Y-105531125D01*
X152904492Y-105570981D01*
X152904490Y-105570986D01*
X152897500Y-105606130D01*
X143742926Y-105606130D01*
X143790245Y-105582020D01*
X143810810Y-105561455D01*
X143818942Y-105558087D01*
X150378137Y-105558087D01*
X150459651Y-105536246D01*
X150532734Y-105494051D01*
X150592406Y-105434379D01*
X150592406Y-105434377D01*
X150593348Y-105433436D01*
X150593351Y-105433431D01*
X154018635Y-102008149D01*
X154026764Y-102004783D01*
X154034896Y-102008151D01*
X160583505Y-108556760D01*
X160586873Y-108564892D01*
X160586310Y-108568446D01*
X160532030Y-108735507D01*
X160532029Y-108735510D01*
X160512639Y-108919999D01*
X160512639Y-108920000D01*
X160532029Y-109104489D01*
X160532030Y-109104492D01*
X160589355Y-109280923D01*
X160682107Y-109441575D01*
X160682108Y-109441576D01*
X160726657Y-109491053D01*
X160806240Y-109579438D01*
X160956319Y-109688477D01*
X161125790Y-109763930D01*
X161307246Y-109802500D01*
X161307248Y-109802500D01*
X161492752Y-109802500D01*
X161492754Y-109802500D01*
X161674210Y-109763930D01*
X161843681Y-109688477D01*
X161993760Y-109579438D01*
X162117890Y-109441578D01*
X162210645Y-109280922D01*
X162267970Y-109104493D01*
X162287361Y-108920000D01*
X162267970Y-108735507D01*
X162210645Y-108559078D01*
X162209307Y-108556760D01*
X162117892Y-108398424D01*
X162117891Y-108398423D01*
X161993764Y-108260566D01*
X161993762Y-108260565D01*
X161993760Y-108260562D01*
X161843681Y-108151523D01*
X161843677Y-108151521D01*
X161674213Y-108076071D01*
X161674211Y-108076070D01*
X161674210Y-108076070D01*
X161492754Y-108037500D01*
X161307246Y-108037500D01*
X161125790Y-108076070D01*
X161125789Y-108076070D01*
X161125786Y-108076071D01*
X161052424Y-108108734D01*
X161043626Y-108108964D01*
X161039615Y-108106360D01*
X159313254Y-106379999D01*
X160512639Y-106379999D01*
X160512639Y-106380000D01*
X160532029Y-106564489D01*
X160532030Y-106564492D01*
X160589355Y-106740923D01*
X160682107Y-106901575D01*
X160682108Y-106901576D01*
X160793802Y-107025625D01*
X160806240Y-107039438D01*
X160956319Y-107148477D01*
X161125790Y-107223930D01*
X161307246Y-107262500D01*
X161307248Y-107262500D01*
X161492752Y-107262500D01*
X161492754Y-107262500D01*
X161674210Y-107223930D01*
X161843681Y-107148477D01*
X161993760Y-107039438D01*
X162117890Y-106901578D01*
X162210645Y-106740922D01*
X162267970Y-106564493D01*
X162287361Y-106380000D01*
X162267970Y-106195507D01*
X162210645Y-106019078D01*
X162202424Y-106004838D01*
X162117892Y-105858424D01*
X162117891Y-105858423D01*
X161993764Y-105720566D01*
X161993762Y-105720565D01*
X161993760Y-105720562D01*
X161843681Y-105611523D01*
X161843677Y-105611521D01*
X161674213Y-105536071D01*
X161674211Y-105536070D01*
X161674210Y-105536070D01*
X161492754Y-105497500D01*
X161307246Y-105497500D01*
X161125790Y-105536070D01*
X161125789Y-105536070D01*
X161125786Y-105536071D01*
X160956323Y-105611521D01*
X160956320Y-105611522D01*
X160956320Y-105611523D01*
X160806240Y-105720562D01*
X160806239Y-105720563D01*
X160806235Y-105720566D01*
X160682108Y-105858423D01*
X160682107Y-105858424D01*
X160589355Y-106019076D01*
X160532030Y-106195507D01*
X160532029Y-106195510D01*
X160512639Y-106379999D01*
X159313254Y-106379999D01*
X154488151Y-101554896D01*
X154484783Y-101546764D01*
X154488151Y-101538632D01*
X155247279Y-100779504D01*
X156095844Y-99930939D01*
X156095849Y-99930935D01*
X156096790Y-99929993D01*
X156096792Y-99929993D01*
X156156464Y-99870321D01*
X156198659Y-99797238D01*
X156220500Y-99715724D01*
X156220500Y-96529323D01*
X156223868Y-96521191D01*
X156232000Y-96517823D01*
X156240132Y-96521191D01*
X156242245Y-96524099D01*
X156255567Y-96550245D01*
X156349755Y-96644433D01*
X156468438Y-96704905D01*
X156468443Y-96704905D01*
X156468444Y-96704906D01*
X156599997Y-96725742D01*
X156600000Y-96725742D01*
X156600003Y-96725742D01*
X156707067Y-96708784D01*
X156731562Y-96704905D01*
X156850245Y-96644433D01*
X156944433Y-96550245D01*
X157004905Y-96431562D01*
X157023080Y-96316809D01*
X157025742Y-96300002D01*
X157025742Y-96299997D01*
X157004906Y-96168444D01*
X157004905Y-96168441D01*
X157004905Y-96168438D01*
X156944433Y-96049755D01*
X156850245Y-95955567D01*
X156731562Y-95895095D01*
X156731559Y-95895094D01*
X156731558Y-95895094D01*
X156731555Y-95895093D01*
X156600003Y-95874258D01*
X156599997Y-95874258D01*
X156468444Y-95895093D01*
X156468441Y-95895094D01*
X156468439Y-95895094D01*
X156468438Y-95895095D01*
X156408008Y-95925885D01*
X156349754Y-95955567D01*
X156255567Y-96049754D01*
X156247529Y-96065531D01*
X156242706Y-96074997D01*
X156242247Y-96075897D01*
X156235554Y-96081613D01*
X156226779Y-96080923D01*
X156221063Y-96074230D01*
X156220500Y-96070676D01*
X156220500Y-95778942D01*
X156223868Y-95770810D01*
X156244433Y-95750245D01*
X156304905Y-95631562D01*
X156310763Y-95594578D01*
X156325742Y-95500002D01*
X156325742Y-95499997D01*
X156304906Y-95368444D01*
X156304905Y-95368441D01*
X156304905Y-95368438D01*
X156244433Y-95249755D01*
X156223868Y-95229190D01*
X156220500Y-95221058D01*
X156220500Y-92799998D01*
X157074943Y-92799998D01*
X157074943Y-92800001D01*
X157093105Y-92949583D01*
X157093106Y-92949586D01*
X157146540Y-93090478D01*
X157232138Y-93214489D01*
X157232140Y-93214491D01*
X157232142Y-93214493D01*
X157293033Y-93268438D01*
X157344927Y-93314412D01*
X157478352Y-93384438D01*
X157624658Y-93420500D01*
X157624661Y-93420500D01*
X157775339Y-93420500D01*
X157775342Y-93420500D01*
X157921648Y-93384438D01*
X158055073Y-93314412D01*
X158167862Y-93214489D01*
X158253460Y-93090478D01*
X158306894Y-92949586D01*
X158325057Y-92800000D01*
X158319036Y-92750416D01*
X158315975Y-92725207D01*
X158306894Y-92650414D01*
X158253460Y-92509522D01*
X158167862Y-92385511D01*
X158167859Y-92385508D01*
X158167857Y-92385506D01*
X158055075Y-92285590D01*
X158055073Y-92285588D01*
X157921648Y-92215562D01*
X157775342Y-92179500D01*
X157624658Y-92179500D01*
X157514882Y-92206558D01*
X157478352Y-92215562D01*
X157478350Y-92215563D01*
X157344928Y-92285587D01*
X157344924Y-92285590D01*
X157232142Y-92385506D01*
X157232136Y-92385513D01*
X157166983Y-92479905D01*
X157146540Y-92509522D01*
X157095375Y-92644433D01*
X157093106Y-92650415D01*
X157093105Y-92650416D01*
X157074943Y-92799998D01*
X156220500Y-92799998D01*
X156220500Y-90978942D01*
X156223868Y-90970810D01*
X156244433Y-90950245D01*
X156304905Y-90831562D01*
X156325742Y-90700000D01*
X156323672Y-90686931D01*
X156304906Y-90568444D01*
X156304905Y-90568441D01*
X156304905Y-90568438D01*
X156244433Y-90449755D01*
X156150245Y-90355567D01*
X156031562Y-90295095D01*
X156031559Y-90295094D01*
X156031558Y-90295094D01*
X156031555Y-90295093D01*
X156020598Y-90293358D01*
X156013093Y-90288760D01*
X156011039Y-90280201D01*
X156015637Y-90272696D01*
X156022397Y-90270500D01*
X156183191Y-90270500D01*
X156191323Y-90273868D01*
X162326132Y-96408677D01*
X162329500Y-96416809D01*
X162329500Y-110143190D01*
X162326132Y-110151322D01*
X161809310Y-110668143D01*
X161801178Y-110671511D01*
X161796501Y-110670517D01*
X161674213Y-110616071D01*
X161674211Y-110616070D01*
X161674210Y-110616070D01*
X161492754Y-110577500D01*
X161307246Y-110577500D01*
X161125790Y-110616070D01*
X161125789Y-110616070D01*
X161125786Y-110616071D01*
X160956323Y-110691521D01*
X160956320Y-110691522D01*
X160956320Y-110691523D01*
X160806240Y-110800562D01*
X160806239Y-110800563D01*
X160806235Y-110800566D01*
X160682108Y-110938423D01*
X160682107Y-110938424D01*
X160589355Y-111099076D01*
X160532030Y-111275507D01*
X160532029Y-111275510D01*
X160512639Y-111459999D01*
X160512639Y-111460000D01*
X160532029Y-111644489D01*
X160532029Y-111644491D01*
X160532030Y-111644493D01*
X160537881Y-111662500D01*
X160589355Y-111820923D01*
X160682107Y-111981575D01*
X160682108Y-111981576D01*
X160765821Y-112074549D01*
X160806240Y-112119438D01*
X160956319Y-112228477D01*
X161125790Y-112303930D01*
X161307246Y-112342500D01*
X161307248Y-112342500D01*
X161492752Y-112342500D01*
X161492754Y-112342500D01*
X161674210Y-112303930D01*
X161843681Y-112228477D01*
X161993760Y-112119438D01*
X162117890Y-111981578D01*
X162132501Y-111956272D01*
X162153879Y-111919243D01*
X162210645Y-111820922D01*
X162267970Y-111644493D01*
X162287361Y-111460000D01*
X162267970Y-111275507D01*
X162210645Y-111099078D01*
X162207699Y-111093976D01*
X162190468Y-111064130D01*
X162189319Y-111055404D01*
X162192293Y-111050250D01*
X162829319Y-110413226D01*
X162846376Y-110372044D01*
X162870500Y-110313806D01*
X162870500Y-96246194D01*
X162843984Y-96182179D01*
X162829319Y-96146774D01*
X156453226Y-89770681D01*
X156412044Y-89753623D01*
X156353806Y-89729500D01*
X155546194Y-89729500D01*
X155539597Y-89732231D01*
X155517073Y-89741560D01*
X155517074Y-89741561D01*
X155446772Y-89770682D01*
X153470682Y-91746772D01*
X153470681Y-91746773D01*
X153470681Y-91746774D01*
X153457126Y-91779500D01*
X153438381Y-91824755D01*
X153429500Y-91846195D01*
X153429500Y-99095353D01*
X153429499Y-99095353D01*
X153429500Y-99095355D01*
X153447331Y-99138402D01*
X153470681Y-99194775D01*
X153470682Y-99194776D01*
X153886009Y-99610103D01*
X153889377Y-99618235D01*
X153889235Y-99620034D01*
X153884246Y-99651534D01*
X153884246Y-99651539D01*
X153905081Y-99783092D01*
X153905082Y-99783095D01*
X153905083Y-99783099D01*
X153965555Y-99901782D01*
X154059743Y-99995970D01*
X154069257Y-100000817D01*
X154074974Y-100007510D01*
X154074284Y-100016284D01*
X154067591Y-100022001D01*
X154065836Y-100022422D01*
X154016951Y-100030165D01*
X154016948Y-100030166D01*
X154016946Y-100030166D01*
X154016945Y-100030167D01*
X153956515Y-100060957D01*
X153898261Y-100090639D01*
X153804074Y-100184826D01*
X153774392Y-100243080D01*
X153743602Y-100303510D01*
X153743601Y-100303511D01*
X153743601Y-100303513D01*
X153743600Y-100303516D01*
X153722765Y-100435069D01*
X153722765Y-100435074D01*
X153743600Y-100566627D01*
X153743601Y-100566630D01*
X153743602Y-100566634D01*
X153804074Y-100685317D01*
X153898262Y-100779505D01*
X154016945Y-100839977D01*
X154016950Y-100839977D01*
X154016951Y-100839978D01*
X154148504Y-100860814D01*
X154148507Y-100860814D01*
X154148509Y-100860814D01*
X154176422Y-100856392D01*
X154245383Y-100845470D01*
X154253940Y-100847524D01*
X154258539Y-100855029D01*
X154256485Y-100863587D01*
X154255313Y-100864960D01*
X153839975Y-101280299D01*
X150206555Y-104913719D01*
X150198423Y-104917087D01*
X143818942Y-104917087D01*
X143810810Y-104913719D01*
X143790245Y-104893154D01*
X143767494Y-104881562D01*
X143671562Y-104832682D01*
X143671559Y-104832681D01*
X143671558Y-104832681D01*
X143671555Y-104832680D01*
X143540003Y-104811845D01*
X143539997Y-104811845D01*
X143408444Y-104832680D01*
X143408441Y-104832681D01*
X143408439Y-104832681D01*
X143408438Y-104832682D01*
X143357991Y-104858386D01*
X143289754Y-104893154D01*
X143195567Y-104987341D01*
X143165885Y-105045595D01*
X143135095Y-105106025D01*
X143135094Y-105106026D01*
X143135094Y-105106028D01*
X143135093Y-105106031D01*
X143114258Y-105237584D01*
X141570500Y-105237584D01*
X141570500Y-104099998D01*
X144574556Y-104099998D01*
X144574556Y-104100001D01*
X144594181Y-104211305D01*
X144594182Y-104211307D01*
X144594183Y-104211308D01*
X144650695Y-104309191D01*
X144737278Y-104381843D01*
X144764821Y-104391868D01*
X144843481Y-104420499D01*
X144843487Y-104420500D01*
X144956513Y-104420500D01*
X144956518Y-104420499D01*
X145028131Y-104394433D01*
X145062722Y-104381843D01*
X145149305Y-104309191D01*
X145205817Y-104211308D01*
X145211063Y-104181562D01*
X145225444Y-104100001D01*
X145225444Y-104099998D01*
X145205818Y-103988694D01*
X145205817Y-103988692D01*
X145149304Y-103890808D01*
X145071761Y-103825742D01*
X145062722Y-103818157D01*
X145062720Y-103818156D01*
X145062717Y-103818155D01*
X144956518Y-103779500D01*
X144956513Y-103779500D01*
X144843487Y-103779500D01*
X144843481Y-103779500D01*
X144737282Y-103818155D01*
X144737279Y-103818156D01*
X144650695Y-103890808D01*
X144594182Y-103988692D01*
X144594181Y-103988694D01*
X144574556Y-104099998D01*
X141570500Y-104099998D01*
X141570500Y-103516809D01*
X141573868Y-103508677D01*
X141682548Y-103399997D01*
X143674258Y-103399997D01*
X143674258Y-103400002D01*
X143695093Y-103531555D01*
X143695094Y-103531558D01*
X143695095Y-103531562D01*
X143755567Y-103650245D01*
X143849755Y-103744433D01*
X143968438Y-103804905D01*
X143968443Y-103804905D01*
X143968444Y-103804906D01*
X144099997Y-103825742D01*
X144100000Y-103825742D01*
X144100003Y-103825742D01*
X144207067Y-103808784D01*
X144231562Y-103804905D01*
X144350245Y-103744433D01*
X144444433Y-103650245D01*
X144504905Y-103531562D01*
X144525742Y-103400000D01*
X144525742Y-103399998D01*
X144874556Y-103399998D01*
X144874556Y-103400001D01*
X144894181Y-103511305D01*
X144894182Y-103511307D01*
X144897359Y-103516809D01*
X144950695Y-103609191D01*
X145037278Y-103681843D01*
X145066808Y-103692591D01*
X145143481Y-103720499D01*
X145143487Y-103720500D01*
X145256513Y-103720500D01*
X145256518Y-103720499D01*
X145309617Y-103701171D01*
X145362722Y-103681843D01*
X145449305Y-103609191D01*
X145505817Y-103511308D01*
X145525444Y-103400000D01*
X145525444Y-103399998D01*
X145505818Y-103288694D01*
X145505817Y-103288692D01*
X145494125Y-103268441D01*
X145449305Y-103190809D01*
X145362722Y-103118157D01*
X145362720Y-103118156D01*
X145362717Y-103118155D01*
X145256518Y-103079500D01*
X145256513Y-103079500D01*
X145143487Y-103079500D01*
X145143481Y-103079500D01*
X145037282Y-103118155D01*
X145037279Y-103118156D01*
X144950695Y-103190808D01*
X144894182Y-103288692D01*
X144894181Y-103288694D01*
X144874556Y-103399998D01*
X144525742Y-103399998D01*
X144517220Y-103346195D01*
X144504906Y-103268444D01*
X144504905Y-103268441D01*
X144504905Y-103268438D01*
X144444433Y-103149755D01*
X144350245Y-103055567D01*
X144241185Y-102999998D01*
X146074556Y-102999998D01*
X146074556Y-103000001D01*
X146094181Y-103111305D01*
X146094182Y-103111307D01*
X146116380Y-103149755D01*
X146150695Y-103209191D01*
X146237278Y-103281843D01*
X146256101Y-103288694D01*
X146343481Y-103320499D01*
X146343487Y-103320500D01*
X146456513Y-103320500D01*
X146456518Y-103320499D01*
X146509617Y-103301171D01*
X146562722Y-103281843D01*
X146649305Y-103209191D01*
X146705817Y-103111308D01*
X146725444Y-103000000D01*
X146725444Y-102999998D01*
X148974556Y-102999998D01*
X148974556Y-103000001D01*
X148994181Y-103111305D01*
X148994182Y-103111307D01*
X149016380Y-103149755D01*
X149050695Y-103209191D01*
X149137278Y-103281843D01*
X149156101Y-103288694D01*
X149243481Y-103320499D01*
X149243487Y-103320500D01*
X149356513Y-103320500D01*
X149356518Y-103320499D01*
X149409617Y-103301171D01*
X149462722Y-103281843D01*
X149549305Y-103209191D01*
X149605817Y-103111308D01*
X149625444Y-103000000D01*
X149624443Y-102994325D01*
X149626347Y-102985733D01*
X149627630Y-102984202D01*
X152486931Y-100124903D01*
X152520500Y-100043860D01*
X152520500Y-99956139D01*
X152520500Y-99838724D01*
X152523868Y-99830592D01*
X152524608Y-99829914D01*
X152529580Y-99825742D01*
X152549305Y-99809191D01*
X152605817Y-99711308D01*
X152616357Y-99651537D01*
X152625444Y-99600001D01*
X152625444Y-99599998D01*
X152605818Y-99488694D01*
X152605817Y-99488692D01*
X152555357Y-99401292D01*
X152549305Y-99390809D01*
X152462722Y-99318157D01*
X152462720Y-99318156D01*
X152462717Y-99318155D01*
X152356518Y-99279500D01*
X152356513Y-99279500D01*
X152243487Y-99279500D01*
X152243481Y-99279500D01*
X152137282Y-99318155D01*
X152137279Y-99318156D01*
X152050695Y-99390808D01*
X151994182Y-99488692D01*
X151994181Y-99488694D01*
X151974556Y-99599998D01*
X151974556Y-99600001D01*
X151994181Y-99711305D01*
X151994182Y-99711307D01*
X152050695Y-99809191D01*
X152075392Y-99829914D01*
X152079456Y-99837722D01*
X152079500Y-99838724D01*
X152079500Y-99903902D01*
X152076132Y-99912034D01*
X149312034Y-102676132D01*
X149303902Y-102679500D01*
X149243481Y-102679500D01*
X149137282Y-102718155D01*
X149137279Y-102718156D01*
X149050695Y-102790808D01*
X148994182Y-102888692D01*
X148994181Y-102888694D01*
X148974556Y-102999998D01*
X146725444Y-102999998D01*
X146723404Y-102988430D01*
X146705818Y-102888694D01*
X146705817Y-102888692D01*
X146669473Y-102825742D01*
X146649305Y-102790809D01*
X146649304Y-102790808D01*
X146649302Y-102790805D01*
X146624608Y-102770084D01*
X146620544Y-102762277D01*
X146620500Y-102761275D01*
X146620500Y-101649997D01*
X147274258Y-101649997D01*
X147274258Y-101650002D01*
X147295093Y-101781555D01*
X147295094Y-101781558D01*
X147295095Y-101781562D01*
X147355567Y-101900245D01*
X147449755Y-101994433D01*
X147568438Y-102054905D01*
X147568443Y-102054905D01*
X147568444Y-102054906D01*
X147699997Y-102075742D01*
X147700000Y-102075742D01*
X147700003Y-102075742D01*
X147827382Y-102055567D01*
X147831562Y-102054905D01*
X147950245Y-101994433D01*
X148044433Y-101900245D01*
X148104905Y-101781562D01*
X148125742Y-101650000D01*
X148104905Y-101518438D01*
X148044433Y-101399755D01*
X147950245Y-101305567D01*
X147831562Y-101245095D01*
X147831559Y-101245094D01*
X147831558Y-101245094D01*
X147831555Y-101245093D01*
X147700003Y-101224258D01*
X147699997Y-101224258D01*
X147568444Y-101245093D01*
X147568441Y-101245094D01*
X147568439Y-101245094D01*
X147568438Y-101245095D01*
X147508008Y-101275885D01*
X147449754Y-101305567D01*
X147355567Y-101399754D01*
X147327040Y-101455742D01*
X147295095Y-101518438D01*
X147295094Y-101518439D01*
X147295094Y-101518441D01*
X147295093Y-101518444D01*
X147274258Y-101649997D01*
X146620500Y-101649997D01*
X146620500Y-101029997D01*
X149874258Y-101029997D01*
X149874258Y-101030002D01*
X149895093Y-101161555D01*
X149895094Y-101161558D01*
X149895095Y-101161562D01*
X149955567Y-101280245D01*
X150049755Y-101374433D01*
X150168438Y-101434905D01*
X150168443Y-101434905D01*
X150168444Y-101434906D01*
X150299997Y-101455742D01*
X150300000Y-101455742D01*
X150300003Y-101455742D01*
X150407067Y-101438784D01*
X150431562Y-101434905D01*
X150550245Y-101374433D01*
X150644433Y-101280245D01*
X150704905Y-101161562D01*
X150725742Y-101030000D01*
X150724237Y-101020500D01*
X150704906Y-100898444D01*
X150704905Y-100898441D01*
X150704905Y-100898438D01*
X150644433Y-100779755D01*
X150550245Y-100685567D01*
X150431562Y-100625095D01*
X150431559Y-100625094D01*
X150431558Y-100625094D01*
X150431555Y-100625093D01*
X150300003Y-100604258D01*
X150299997Y-100604258D01*
X150168444Y-100625093D01*
X150168441Y-100625094D01*
X150168439Y-100625094D01*
X150168438Y-100625095D01*
X150117928Y-100650831D01*
X150049754Y-100685567D01*
X149955567Y-100779754D01*
X149939491Y-100811305D01*
X149895095Y-100898438D01*
X149895094Y-100898439D01*
X149895094Y-100898441D01*
X149895093Y-100898444D01*
X149874258Y-101029997D01*
X146620500Y-101029997D01*
X146620500Y-100396097D01*
X146623867Y-100387966D01*
X148409459Y-98602373D01*
X148413652Y-98599702D01*
X148462722Y-98581843D01*
X148549305Y-98509191D01*
X148605817Y-98411308D01*
X148607812Y-98399998D01*
X148625444Y-98300001D01*
X148625444Y-98299998D01*
X148974556Y-98299998D01*
X148974556Y-98300001D01*
X148994181Y-98411305D01*
X148994182Y-98411307D01*
X148994183Y-98411308D01*
X149050695Y-98509191D01*
X149137278Y-98581843D01*
X149166808Y-98592591D01*
X149243481Y-98620499D01*
X149243487Y-98620500D01*
X149356513Y-98620500D01*
X149356518Y-98620499D01*
X149413660Y-98599700D01*
X149462722Y-98581843D01*
X149549305Y-98509191D01*
X149605817Y-98411308D01*
X149607812Y-98399998D01*
X149625444Y-98300001D01*
X149625444Y-98299998D01*
X149605818Y-98188694D01*
X149605817Y-98188692D01*
X149565094Y-98118157D01*
X149549305Y-98090809D01*
X149462722Y-98018157D01*
X149462720Y-98018156D01*
X149462717Y-98018155D01*
X149356518Y-97979500D01*
X149356513Y-97979500D01*
X149243487Y-97979500D01*
X149243481Y-97979500D01*
X149137282Y-98018155D01*
X149137279Y-98018156D01*
X149050695Y-98090808D01*
X148994182Y-98188692D01*
X148994181Y-98188694D01*
X148974556Y-98299998D01*
X148625444Y-98299998D01*
X148605818Y-98188694D01*
X148605817Y-98188692D01*
X148565094Y-98118157D01*
X148549305Y-98090809D01*
X148462722Y-98018157D01*
X148462720Y-98018156D01*
X148462717Y-98018155D01*
X148356518Y-97979500D01*
X148356513Y-97979500D01*
X148243487Y-97979500D01*
X148243481Y-97979500D01*
X148137282Y-98018155D01*
X148137279Y-98018156D01*
X148050695Y-98090808D01*
X147994182Y-98188692D01*
X147994181Y-98188694D01*
X147974556Y-98299998D01*
X147974556Y-98300001D01*
X147990546Y-98390682D01*
X147988641Y-98399275D01*
X147987353Y-98400811D01*
X146275097Y-100113069D01*
X146213070Y-100175095D01*
X146179500Y-100256141D01*
X146179500Y-102761275D01*
X146176132Y-102769407D01*
X146175392Y-102770084D01*
X146150697Y-102790805D01*
X146150695Y-102790808D01*
X146094182Y-102888692D01*
X146094181Y-102888694D01*
X146074556Y-102999998D01*
X144241185Y-102999998D01*
X144231562Y-102995095D01*
X144231559Y-102995094D01*
X144231558Y-102995094D01*
X144231555Y-102995093D01*
X144100003Y-102974258D01*
X144099997Y-102974258D01*
X143968444Y-102995093D01*
X143968441Y-102995094D01*
X143968439Y-102995094D01*
X143968438Y-102995095D01*
X143908008Y-103025885D01*
X143849754Y-103055567D01*
X143755567Y-103149754D01*
X143734649Y-103190808D01*
X143695095Y-103268438D01*
X143695094Y-103268439D01*
X143695094Y-103268441D01*
X143695093Y-103268444D01*
X143674258Y-103399997D01*
X141682548Y-103399997D01*
X143338677Y-101743868D01*
X143346809Y-101740500D01*
X144133805Y-101740500D01*
X144133806Y-101740500D01*
X144192044Y-101716376D01*
X144233226Y-101699319D01*
X146538410Y-99394133D01*
X146542601Y-99391463D01*
X146637722Y-99356843D01*
X146724305Y-99284191D01*
X146780817Y-99186308D01*
X146787263Y-99149755D01*
X146800444Y-99075001D01*
X146800444Y-99074998D01*
X146780818Y-98963694D01*
X146780817Y-98963692D01*
X146724304Y-98865808D01*
X146707701Y-98851877D01*
X146637722Y-98793157D01*
X146637720Y-98793156D01*
X146637717Y-98793155D01*
X146531518Y-98754500D01*
X146531513Y-98754500D01*
X146418487Y-98754500D01*
X146418481Y-98754500D01*
X146312282Y-98793155D01*
X146312279Y-98793156D01*
X146225695Y-98865808D01*
X146169182Y-98963692D01*
X146169181Y-98963694D01*
X146162409Y-99002102D01*
X146159216Y-99008237D01*
X143971323Y-101196132D01*
X143963191Y-101199500D01*
X143891569Y-101199500D01*
X143883437Y-101196132D01*
X143880069Y-101188000D01*
X143883437Y-101179868D01*
X144888210Y-100175095D01*
X145986931Y-99076374D01*
X146020500Y-98995331D01*
X146020500Y-98907610D01*
X146020500Y-98796098D01*
X146023868Y-98787966D01*
X146187966Y-98623868D01*
X146196098Y-98620500D01*
X146259986Y-98620500D01*
X146267377Y-98623189D01*
X146337278Y-98681843D01*
X146366808Y-98692591D01*
X146443481Y-98720499D01*
X146443487Y-98720500D01*
X146556513Y-98720500D01*
X146556518Y-98720499D01*
X146609617Y-98701171D01*
X146662722Y-98681843D01*
X146749305Y-98609191D01*
X146805817Y-98511308D01*
X146806191Y-98509191D01*
X146825444Y-98400001D01*
X146825444Y-98399998D01*
X146805818Y-98288694D01*
X146805817Y-98288692D01*
X146762157Y-98213070D01*
X146749305Y-98190809D01*
X146746784Y-98188694D01*
X146718434Y-98164905D01*
X146662722Y-98118157D01*
X146662720Y-98118156D01*
X146662717Y-98118155D01*
X146556518Y-98079500D01*
X146556513Y-98079500D01*
X146443487Y-98079500D01*
X146443481Y-98079500D01*
X146337282Y-98118155D01*
X146337279Y-98118156D01*
X146267378Y-98176810D01*
X146259986Y-98179500D01*
X146143860Y-98179500D01*
X146056140Y-98179500D01*
X145975097Y-98213069D01*
X145975095Y-98213070D01*
X145613070Y-98575095D01*
X145613069Y-98575096D01*
X145613069Y-98575097D01*
X145592868Y-98623868D01*
X145579500Y-98656141D01*
X145579500Y-98855373D01*
X145576132Y-98863505D01*
X143563505Y-100876132D01*
X143555373Y-100879500D01*
X142532037Y-100879500D01*
X142523905Y-100876132D01*
X142332174Y-100684401D01*
X142332173Y-100684400D01*
X142251130Y-100650831D01*
X141754073Y-100650831D01*
X141666352Y-100650831D01*
X141585309Y-100684400D01*
X141585307Y-100684401D01*
X141393577Y-100876132D01*
X141385445Y-100879500D01*
X138396098Y-100879500D01*
X138387966Y-100876132D01*
X138227636Y-100715802D01*
X138224268Y-100707670D01*
X138224442Y-100705676D01*
X138225444Y-100700000D01*
X138222855Y-100685317D01*
X138205818Y-100588694D01*
X138205817Y-100588692D01*
X138174094Y-100533746D01*
X138149305Y-100490809D01*
X138062722Y-100418157D01*
X138062720Y-100418156D01*
X138062717Y-100418155D01*
X137956518Y-100379500D01*
X137956513Y-100379500D01*
X137843487Y-100379500D01*
X137843481Y-100379500D01*
X137737282Y-100418155D01*
X137737279Y-100418156D01*
X137650695Y-100490808D01*
X137594182Y-100588692D01*
X137594181Y-100588694D01*
X137574556Y-100699998D01*
X137574556Y-100700001D01*
X137594181Y-100811305D01*
X137594182Y-100811307D01*
X137633553Y-100879500D01*
X137650695Y-100909191D01*
X137737278Y-100981843D01*
X137766808Y-100992591D01*
X137843481Y-101020499D01*
X137843487Y-101020500D01*
X137903902Y-101020500D01*
X137912034Y-101023868D01*
X138113069Y-101224903D01*
X138175097Y-101286931D01*
X138220649Y-101305799D01*
X138256139Y-101320500D01*
X138256140Y-101320500D01*
X141525401Y-101320500D01*
X141525403Y-101320500D01*
X141606446Y-101286931D01*
X141798178Y-101095199D01*
X141806310Y-101091831D01*
X142111172Y-101091831D01*
X142119304Y-101095199D01*
X142249008Y-101224903D01*
X142311036Y-101286931D01*
X142392079Y-101320500D01*
X142969191Y-101320500D01*
X142977323Y-101323868D01*
X142980691Y-101332000D01*
X142977323Y-101340132D01*
X141070682Y-103246772D01*
X141053623Y-103287955D01*
X141029500Y-103346195D01*
X141029500Y-108783190D01*
X141026132Y-108791322D01*
X134941432Y-114876021D01*
X134933300Y-114879389D01*
X134931501Y-114879247D01*
X134900003Y-114874258D01*
X134899997Y-114874258D01*
X134768444Y-114895093D01*
X134768441Y-114895094D01*
X134768439Y-114895094D01*
X134768438Y-114895095D01*
X134708008Y-114925885D01*
X134649754Y-114955567D01*
X134555567Y-115049754D01*
X134527467Y-115104905D01*
X134495095Y-115168438D01*
X134495094Y-115168439D01*
X134495094Y-115168441D01*
X134495093Y-115168444D01*
X134474258Y-115299997D01*
X132182542Y-115299997D01*
X131073868Y-114191323D01*
X131070500Y-114183191D01*
X131070500Y-107346194D01*
X131046376Y-107287955D01*
X131029319Y-107246774D01*
X126873868Y-103091323D01*
X126870500Y-103083191D01*
X126870500Y-102399997D01*
X126974258Y-102399997D01*
X126974258Y-102400002D01*
X126995093Y-102531555D01*
X126995094Y-102531558D01*
X126995095Y-102531562D01*
X127055567Y-102650245D01*
X127149755Y-102744433D01*
X127268438Y-102804905D01*
X127268443Y-102804905D01*
X127268444Y-102804906D01*
X127399997Y-102825742D01*
X127400000Y-102825742D01*
X127400003Y-102825742D01*
X127507067Y-102808784D01*
X127531562Y-102804905D01*
X127650245Y-102744433D01*
X127744433Y-102650245D01*
X127804905Y-102531562D01*
X127825742Y-102400000D01*
X127804905Y-102268438D01*
X127744433Y-102149755D01*
X127650245Y-102055567D01*
X127531562Y-101995095D01*
X127531559Y-101995094D01*
X127531558Y-101995094D01*
X127531555Y-101995093D01*
X127400003Y-101974258D01*
X127399997Y-101974258D01*
X127268444Y-101995093D01*
X127268441Y-101995094D01*
X127268439Y-101995094D01*
X127268438Y-101995095D01*
X127208008Y-102025885D01*
X127149754Y-102055567D01*
X127055567Y-102149754D01*
X127025885Y-102208008D01*
X126995095Y-102268438D01*
X126995094Y-102268439D01*
X126995094Y-102268441D01*
X126995093Y-102268444D01*
X126974258Y-102399997D01*
X126870500Y-102399997D01*
X126870500Y-100503858D01*
X127039499Y-100503858D01*
X127039500Y-100503860D01*
X127073069Y-100584903D01*
X127073070Y-100584904D01*
X131376132Y-104887966D01*
X131379500Y-104896098D01*
X131379500Y-113633363D01*
X131376132Y-113641495D01*
X131373221Y-113643609D01*
X131349757Y-113655564D01*
X131255567Y-113749754D01*
X131240149Y-113780014D01*
X131195095Y-113868438D01*
X131195094Y-113868439D01*
X131195094Y-113868441D01*
X131195093Y-113868444D01*
X131174258Y-113999997D01*
X131174258Y-114000002D01*
X131195093Y-114131555D01*
X131195094Y-114131558D01*
X131195095Y-114131562D01*
X131255567Y-114250245D01*
X131349755Y-114344433D01*
X131468438Y-114404905D01*
X131468443Y-114404905D01*
X131468444Y-114404906D01*
X131599997Y-114425742D01*
X131600000Y-114425742D01*
X131600003Y-114425742D01*
X131707067Y-114408784D01*
X131731562Y-114404905D01*
X131850245Y-114344433D01*
X131944433Y-114250245D01*
X132004905Y-114131562D01*
X132017268Y-114053504D01*
X132025742Y-114000002D01*
X132025742Y-113999997D01*
X132004906Y-113868444D01*
X132004905Y-113868441D01*
X132004905Y-113868438D01*
X131944433Y-113749755D01*
X131850245Y-113655567D01*
X131850242Y-113655564D01*
X131826779Y-113643609D01*
X131821063Y-113636916D01*
X131820500Y-113633363D01*
X131820500Y-107100630D01*
X132354500Y-107100630D01*
X132354500Y-111174370D01*
X132361491Y-111209517D01*
X132361492Y-111209518D01*
X132388122Y-111249374D01*
X132388124Y-111249376D01*
X132427983Y-111276009D01*
X132463130Y-111283000D01*
X132463131Y-111283000D01*
X136536869Y-111283000D01*
X136536870Y-111283000D01*
X136572017Y-111276009D01*
X136611876Y-111249376D01*
X136638509Y-111209517D01*
X136645500Y-111174370D01*
X136645500Y-107100630D01*
X136638509Y-107065483D01*
X136611876Y-107025624D01*
X136611874Y-107025622D01*
X136572018Y-106998992D01*
X136572019Y-106998992D01*
X136572017Y-106998991D01*
X136572014Y-106998990D01*
X136572013Y-106998990D01*
X136554202Y-106995447D01*
X136536870Y-106992000D01*
X132463130Y-106992000D01*
X132451522Y-106994308D01*
X132427986Y-106998990D01*
X132427981Y-106998992D01*
X132388125Y-107025622D01*
X132388122Y-107025625D01*
X132361492Y-107065481D01*
X132361491Y-107065483D01*
X132354500Y-107100630D01*
X131820500Y-107100630D01*
X131820500Y-104756141D01*
X131820500Y-104756140D01*
X131786931Y-104675097D01*
X131724903Y-104613069D01*
X127483868Y-100372034D01*
X127480500Y-100363902D01*
X127480500Y-100299998D01*
X142274556Y-100299998D01*
X142274556Y-100300001D01*
X142294181Y-100411305D01*
X142294182Y-100411307D01*
X142340291Y-100491170D01*
X142350695Y-100509191D01*
X142437278Y-100581843D01*
X142456101Y-100588694D01*
X142543481Y-100620499D01*
X142543487Y-100620500D01*
X142656513Y-100620500D01*
X142656518Y-100620499D01*
X142709617Y-100601171D01*
X142762722Y-100581843D01*
X142826663Y-100528189D01*
X142834055Y-100525500D01*
X143453802Y-100525500D01*
X143453810Y-100525501D01*
X143455145Y-100525501D01*
X143544854Y-100525501D01*
X143544855Y-100525501D01*
X143603460Y-100501225D01*
X143627736Y-100491170D01*
X143691170Y-100427736D01*
X143691170Y-100427734D01*
X147146439Y-96972466D01*
X150136233Y-96972466D01*
X150136233Y-96972469D01*
X150155858Y-97083773D01*
X150155859Y-97083775D01*
X150212372Y-97181659D01*
X150298955Y-97254311D01*
X150328485Y-97265059D01*
X150405158Y-97292967D01*
X150405164Y-97292968D01*
X150518190Y-97292968D01*
X150518195Y-97292967D01*
X150571294Y-97273639D01*
X150624399Y-97254311D01*
X150710982Y-97181659D01*
X150767494Y-97083776D01*
X150769042Y-97075001D01*
X150787121Y-96972469D01*
X150787121Y-96972466D01*
X150767495Y-96861162D01*
X150767494Y-96861160D01*
X150728232Y-96793155D01*
X150710982Y-96763277D01*
X150624399Y-96690625D01*
X150624397Y-96690624D01*
X150624394Y-96690623D01*
X150518195Y-96651968D01*
X150518190Y-96651968D01*
X150405164Y-96651968D01*
X150405158Y-96651968D01*
X150298959Y-96690623D01*
X150298956Y-96690624D01*
X150212372Y-96763276D01*
X150155859Y-96861160D01*
X150155858Y-96861162D01*
X150136233Y-96972466D01*
X147146439Y-96972466D01*
X147295037Y-96823868D01*
X147303169Y-96820500D01*
X147356513Y-96820500D01*
X147356518Y-96820499D01*
X147409617Y-96801171D01*
X147462722Y-96781843D01*
X147549305Y-96709191D01*
X147605817Y-96611308D01*
X147616585Y-96550245D01*
X147625444Y-96500001D01*
X147625444Y-96499998D01*
X150974556Y-96499998D01*
X150974556Y-96500001D01*
X150994181Y-96611305D01*
X150994182Y-96611307D01*
X151048221Y-96704906D01*
X151050695Y-96709191D01*
X151137278Y-96781843D01*
X151166808Y-96792591D01*
X151243481Y-96820499D01*
X151243487Y-96820500D01*
X151356513Y-96820500D01*
X151356518Y-96820499D01*
X151409617Y-96801171D01*
X151462722Y-96781843D01*
X151549305Y-96709191D01*
X151605817Y-96611308D01*
X151616585Y-96550245D01*
X151625444Y-96500001D01*
X151625444Y-96499998D01*
X151605818Y-96388694D01*
X151605817Y-96388692D01*
X151601698Y-96381558D01*
X151549305Y-96290809D01*
X151549304Y-96290808D01*
X151549302Y-96290805D01*
X151478048Y-96231016D01*
X151473984Y-96223209D01*
X151476631Y-96214815D01*
X151481500Y-96211404D01*
X151562722Y-96181843D01*
X151649305Y-96109191D01*
X151705817Y-96011308D01*
X151707855Y-95999755D01*
X151725444Y-95900000D01*
X151725444Y-95899998D01*
X151705818Y-95788694D01*
X151705817Y-95788692D01*
X151649304Y-95690808D01*
X151624617Y-95670093D01*
X151562722Y-95618157D01*
X151562720Y-95618156D01*
X151562717Y-95618155D01*
X151456518Y-95579500D01*
X151456513Y-95579500D01*
X151343487Y-95579500D01*
X151343481Y-95579500D01*
X151237282Y-95618155D01*
X151237279Y-95618156D01*
X151150695Y-95690808D01*
X151094182Y-95788692D01*
X151094181Y-95788694D01*
X151074556Y-95899998D01*
X151074556Y-95900000D01*
X151094181Y-96011305D01*
X151094182Y-96011307D01*
X151130953Y-96074997D01*
X151150695Y-96109191D01*
X151221950Y-96168982D01*
X151226014Y-96176789D01*
X151223368Y-96185183D01*
X151218491Y-96188597D01*
X151137282Y-96218155D01*
X151137279Y-96218156D01*
X151050695Y-96290808D01*
X150994182Y-96388692D01*
X150994181Y-96388694D01*
X150974556Y-96499998D01*
X147625444Y-96499998D01*
X147605818Y-96388694D01*
X147605817Y-96388692D01*
X147601698Y-96381558D01*
X147549305Y-96290809D01*
X147462722Y-96218157D01*
X147462720Y-96218156D01*
X147462717Y-96218155D01*
X147432915Y-96207308D01*
X147426425Y-96201362D01*
X147426042Y-96192569D01*
X147431988Y-96186079D01*
X147432895Y-96185702D01*
X147442578Y-96182179D01*
X147529161Y-96109527D01*
X147585673Y-96011644D01*
X147585733Y-96011308D01*
X147605300Y-95900337D01*
X147605300Y-95900334D01*
X147585674Y-95789030D01*
X147585673Y-95789028D01*
X147529160Y-95691144D01*
X147479242Y-95649258D01*
X147442578Y-95618493D01*
X147442576Y-95618492D01*
X147442573Y-95618491D01*
X147336374Y-95579836D01*
X147336369Y-95579836D01*
X147223343Y-95579836D01*
X147223337Y-95579836D01*
X147117138Y-95618491D01*
X147117135Y-95618492D01*
X147030551Y-95691144D01*
X146974038Y-95789028D01*
X146974037Y-95789030D01*
X146954412Y-95900334D01*
X146954412Y-95900337D01*
X146974037Y-96011641D01*
X146974038Y-96011643D01*
X147010615Y-96074997D01*
X147030551Y-96109527D01*
X147117134Y-96182179D01*
X147146942Y-96193027D01*
X147153429Y-96198973D01*
X147153814Y-96207766D01*
X147147867Y-96214255D01*
X147146941Y-96214639D01*
X147137280Y-96218155D01*
X147137279Y-96218156D01*
X147050695Y-96290808D01*
X146994182Y-96388692D01*
X146994181Y-96388694D01*
X146974556Y-96499998D01*
X146974556Y-96501006D01*
X146974198Y-96501006D01*
X146972592Y-96508254D01*
X146971303Y-96509790D01*
X143409963Y-100071132D01*
X143401831Y-100074500D01*
X142834055Y-100074500D01*
X142826663Y-100071810D01*
X142808348Y-100056442D01*
X142762722Y-100018157D01*
X142762720Y-100018156D01*
X142762717Y-100018155D01*
X142656518Y-99979500D01*
X142656513Y-99979500D01*
X142543487Y-99979500D01*
X142543481Y-99979500D01*
X142437282Y-100018155D01*
X142437279Y-100018156D01*
X142350695Y-100090808D01*
X142294182Y-100188692D01*
X142294181Y-100188694D01*
X142274556Y-100299998D01*
X127480500Y-100299998D01*
X127480500Y-99399997D01*
X133774258Y-99399997D01*
X133774258Y-99400002D01*
X133795093Y-99531555D01*
X133795094Y-99531558D01*
X133795095Y-99531562D01*
X133855567Y-99650245D01*
X133949755Y-99744433D01*
X134068438Y-99804905D01*
X134068443Y-99804905D01*
X134068444Y-99804906D01*
X134199997Y-99825742D01*
X134200000Y-99825742D01*
X134200003Y-99825742D01*
X134307067Y-99808784D01*
X134331562Y-99804905D01*
X134450245Y-99744433D01*
X134544433Y-99650245D01*
X134604905Y-99531562D01*
X134617784Y-99450245D01*
X134625742Y-99400002D01*
X134625742Y-99399997D01*
X136274258Y-99399997D01*
X136274258Y-99400002D01*
X136295093Y-99531555D01*
X136295094Y-99531558D01*
X136295095Y-99531562D01*
X136355567Y-99650245D01*
X136449755Y-99744433D01*
X136568438Y-99804905D01*
X136568443Y-99804905D01*
X136568444Y-99804906D01*
X136699997Y-99825742D01*
X136700000Y-99825742D01*
X136700003Y-99825742D01*
X136807067Y-99808784D01*
X136831562Y-99804905D01*
X136950245Y-99744433D01*
X137044433Y-99650245D01*
X137104905Y-99531562D01*
X137117784Y-99450245D01*
X137125742Y-99400002D01*
X137125742Y-99399997D01*
X137104906Y-99268444D01*
X137104905Y-99268441D01*
X137104905Y-99268438D01*
X137044433Y-99149755D01*
X136950245Y-99055567D01*
X136831562Y-98995095D01*
X136831559Y-98995094D01*
X136831558Y-98995094D01*
X136831555Y-98995093D01*
X136700003Y-98974258D01*
X136699997Y-98974258D01*
X136568444Y-98995093D01*
X136568441Y-98995094D01*
X136568439Y-98995094D01*
X136568438Y-98995095D01*
X136508008Y-99025885D01*
X136449754Y-99055567D01*
X136355567Y-99149754D01*
X136336944Y-99186305D01*
X136295095Y-99268438D01*
X136295094Y-99268439D01*
X136295094Y-99268441D01*
X136295093Y-99268444D01*
X136274258Y-99399997D01*
X134625742Y-99399997D01*
X134604906Y-99268444D01*
X134604905Y-99268441D01*
X134604905Y-99268438D01*
X134544433Y-99149755D01*
X134450245Y-99055567D01*
X134331562Y-98995095D01*
X134331559Y-98995094D01*
X134331558Y-98995094D01*
X134331555Y-98995093D01*
X134200003Y-98974258D01*
X134199997Y-98974258D01*
X134068444Y-98995093D01*
X134068441Y-98995094D01*
X134068439Y-98995094D01*
X134068438Y-98995095D01*
X134008008Y-99025885D01*
X133949754Y-99055567D01*
X133855567Y-99149754D01*
X133836944Y-99186305D01*
X133795095Y-99268438D01*
X133795094Y-99268439D01*
X133795094Y-99268441D01*
X133795093Y-99268444D01*
X133774258Y-99399997D01*
X127480500Y-99399997D01*
X127480500Y-97989323D01*
X127483868Y-97981191D01*
X127492000Y-97977823D01*
X127500132Y-97981191D01*
X127502245Y-97984099D01*
X127515567Y-98010245D01*
X127609755Y-98104433D01*
X127728438Y-98164905D01*
X127728443Y-98164905D01*
X127728444Y-98164906D01*
X127859997Y-98185742D01*
X127860000Y-98185742D01*
X127860003Y-98185742D01*
X127967067Y-98168784D01*
X127991562Y-98164905D01*
X128110245Y-98104433D01*
X128204433Y-98010245D01*
X128204435Y-98010242D01*
X128216391Y-97986779D01*
X128223084Y-97981063D01*
X128226637Y-97980500D01*
X134415229Y-97980500D01*
X134415231Y-97980500D01*
X134496274Y-97946931D01*
X134635364Y-97807841D01*
X143766713Y-97807841D01*
X143766713Y-97807844D01*
X143786338Y-97919148D01*
X143786339Y-97919150D01*
X143826853Y-97989323D01*
X143842852Y-98017034D01*
X143929435Y-98089686D01*
X143958965Y-98100434D01*
X144035638Y-98128342D01*
X144035644Y-98128343D01*
X144148670Y-98128343D01*
X144148675Y-98128342D01*
X144214362Y-98104433D01*
X144254879Y-98089686D01*
X144341462Y-98017034D01*
X144397974Y-97919151D01*
X144417601Y-97807843D01*
X144417601Y-97807841D01*
X144397975Y-97696537D01*
X144397974Y-97696535D01*
X144364940Y-97639318D01*
X144341462Y-97598652D01*
X144254879Y-97526000D01*
X144254877Y-97525999D01*
X144254874Y-97525998D01*
X144148675Y-97487343D01*
X144148670Y-97487343D01*
X144035644Y-97487343D01*
X144035638Y-97487343D01*
X143929439Y-97525998D01*
X143929436Y-97525999D01*
X143842852Y-97598651D01*
X143786339Y-97696535D01*
X143786338Y-97696537D01*
X143766713Y-97807841D01*
X134635364Y-97807841D01*
X135208796Y-97234409D01*
X141787158Y-97234409D01*
X141787158Y-97234414D01*
X141807993Y-97365967D01*
X141807994Y-97365970D01*
X141807995Y-97365974D01*
X141868467Y-97484657D01*
X141962655Y-97578845D01*
X142081338Y-97639317D01*
X142081343Y-97639317D01*
X142081344Y-97639318D01*
X142212897Y-97660154D01*
X142212900Y-97660154D01*
X142212903Y-97660154D01*
X142319967Y-97643196D01*
X142344462Y-97639317D01*
X142463145Y-97578845D01*
X142557333Y-97484657D01*
X142617805Y-97365974D01*
X142635490Y-97254312D01*
X142638642Y-97234414D01*
X142638642Y-97234409D01*
X142617806Y-97102856D01*
X142617805Y-97102853D01*
X142617805Y-97102850D01*
X142603614Y-97074998D01*
X143874556Y-97074998D01*
X143874556Y-97075001D01*
X143894181Y-97186305D01*
X143894182Y-97186307D01*
X143950695Y-97284191D01*
X144037278Y-97356843D01*
X144062346Y-97365967D01*
X144143481Y-97395499D01*
X144143487Y-97395500D01*
X144256513Y-97395500D01*
X144256518Y-97395499D01*
X144309617Y-97376171D01*
X144362722Y-97356843D01*
X144449305Y-97284191D01*
X144505817Y-97186308D01*
X144525444Y-97075000D01*
X144525444Y-97074998D01*
X144505818Y-96963694D01*
X144505817Y-96963692D01*
X144449304Y-96865808D01*
X144406041Y-96829506D01*
X144362722Y-96793157D01*
X144362720Y-96793156D01*
X144362717Y-96793155D01*
X144256518Y-96754500D01*
X144256513Y-96754500D01*
X144143487Y-96754500D01*
X144143481Y-96754500D01*
X144037282Y-96793155D01*
X144037279Y-96793156D01*
X143950695Y-96865808D01*
X143894182Y-96963692D01*
X143894181Y-96963694D01*
X143874556Y-97074998D01*
X142603614Y-97074998D01*
X142557333Y-96984167D01*
X142463145Y-96889979D01*
X142344462Y-96829507D01*
X142344459Y-96829506D01*
X142344458Y-96829506D01*
X142344455Y-96829505D01*
X142212903Y-96808670D01*
X142212897Y-96808670D01*
X142081344Y-96829505D01*
X142081341Y-96829506D01*
X142081339Y-96829506D01*
X142081338Y-96829507D01*
X142020908Y-96860297D01*
X141962654Y-96889979D01*
X141868467Y-96984166D01*
X141838785Y-97042420D01*
X141807995Y-97102850D01*
X141807994Y-97102851D01*
X141807994Y-97102853D01*
X141807993Y-97102856D01*
X141787158Y-97234409D01*
X135208796Y-97234409D01*
X136368208Y-96074997D01*
X143374258Y-96074997D01*
X143374258Y-96075000D01*
X143395093Y-96206555D01*
X143395094Y-96206558D01*
X143395095Y-96206562D01*
X143455567Y-96325245D01*
X143549755Y-96419433D01*
X143668438Y-96479905D01*
X143668443Y-96479905D01*
X143668444Y-96479906D01*
X143799997Y-96500742D01*
X143800000Y-96500742D01*
X143800003Y-96500742D01*
X143907067Y-96483784D01*
X143931562Y-96479905D01*
X144050245Y-96419433D01*
X144144433Y-96325245D01*
X144204905Y-96206562D01*
X144225742Y-96075000D01*
X144225620Y-96074230D01*
X144204906Y-95943444D01*
X144204905Y-95943441D01*
X144204905Y-95943438D01*
X144144433Y-95824755D01*
X144050245Y-95730567D01*
X143931562Y-95670095D01*
X143931559Y-95670094D01*
X143931558Y-95670094D01*
X143931555Y-95670093D01*
X143800003Y-95649258D01*
X143799997Y-95649258D01*
X143668444Y-95670093D01*
X143668441Y-95670094D01*
X143668439Y-95670094D01*
X143668438Y-95670095D01*
X143627127Y-95691144D01*
X143549754Y-95730567D01*
X143455567Y-95824754D01*
X143430344Y-95874258D01*
X143395095Y-95943438D01*
X143395094Y-95943439D01*
X143395094Y-95943441D01*
X143395093Y-95943444D01*
X143374258Y-96074997D01*
X136368208Y-96074997D01*
X137368208Y-95074997D01*
X143374258Y-95074997D01*
X143374258Y-95075002D01*
X143395093Y-95206555D01*
X143395094Y-95206558D01*
X143395095Y-95206562D01*
X143455567Y-95325245D01*
X143549755Y-95419433D01*
X143668438Y-95479905D01*
X143668443Y-95479905D01*
X143668444Y-95479906D01*
X143799997Y-95500742D01*
X143800000Y-95500742D01*
X143800003Y-95500742D01*
X143907067Y-95483784D01*
X143931562Y-95479905D01*
X144050245Y-95419433D01*
X144144433Y-95325245D01*
X144204905Y-95206562D01*
X144225742Y-95075000D01*
X144217110Y-95020500D01*
X144204906Y-94943444D01*
X144204905Y-94943441D01*
X144204905Y-94943438D01*
X144144433Y-94824755D01*
X144050245Y-94730567D01*
X143931562Y-94670095D01*
X143931559Y-94670094D01*
X143931558Y-94670094D01*
X143931555Y-94670093D01*
X143800003Y-94649258D01*
X143799997Y-94649258D01*
X143668444Y-94670093D01*
X143668441Y-94670094D01*
X143668439Y-94670094D01*
X143668438Y-94670095D01*
X143628436Y-94690477D01*
X143549754Y-94730567D01*
X143455567Y-94824754D01*
X143442704Y-94850000D01*
X143395095Y-94943438D01*
X143395094Y-94943439D01*
X143395094Y-94943441D01*
X143395093Y-94943444D01*
X143374258Y-95074997D01*
X137368208Y-95074997D01*
X138567609Y-93875596D01*
X138575741Y-93872228D01*
X146630630Y-93872228D01*
X146638762Y-93875596D01*
X147072363Y-94309197D01*
X147075731Y-94317329D01*
X147075556Y-94319326D01*
X147074556Y-94324998D01*
X147074556Y-94325001D01*
X147094181Y-94436305D01*
X147094182Y-94436307D01*
X147099256Y-94445095D01*
X147150695Y-94534191D01*
X147237278Y-94606843D01*
X147264231Y-94616653D01*
X147343481Y-94645499D01*
X147343487Y-94645500D01*
X147456513Y-94645500D01*
X147456518Y-94645499D01*
X147509617Y-94626171D01*
X147562722Y-94606843D01*
X147649305Y-94534191D01*
X147705817Y-94436308D01*
X147712220Y-94400000D01*
X147725444Y-94325001D01*
X147725444Y-94324998D01*
X147705818Y-94213694D01*
X147705817Y-94213692D01*
X147701698Y-94206558D01*
X147649305Y-94115809D01*
X147641812Y-94109522D01*
X147600667Y-94074997D01*
X147562722Y-94043157D01*
X147562720Y-94043156D01*
X147562717Y-94043155D01*
X147456518Y-94004500D01*
X147456513Y-94004500D01*
X147396098Y-94004500D01*
X147387966Y-94001132D01*
X147323326Y-93936492D01*
X147319958Y-93928360D01*
X147323326Y-93920228D01*
X147331458Y-93916860D01*
X147335392Y-93917554D01*
X147343483Y-93920499D01*
X147343487Y-93920500D01*
X147456513Y-93920500D01*
X147456518Y-93920499D01*
X147513512Y-93899754D01*
X147562722Y-93881843D01*
X147649305Y-93809191D01*
X147705817Y-93711308D01*
X147710650Y-93683903D01*
X147725444Y-93600001D01*
X147725444Y-93599998D01*
X147705818Y-93488694D01*
X147705817Y-93488692D01*
X147673837Y-93433300D01*
X147649305Y-93390809D01*
X147562722Y-93318157D01*
X147562720Y-93318156D01*
X147562717Y-93318155D01*
X147456518Y-93279500D01*
X147456513Y-93279500D01*
X147343487Y-93279500D01*
X147343481Y-93279500D01*
X147237282Y-93318155D01*
X147237279Y-93318156D01*
X147150695Y-93390808D01*
X147094182Y-93488692D01*
X147094181Y-93488694D01*
X147074556Y-93599998D01*
X147074556Y-93600001D01*
X147087001Y-93670581D01*
X147085096Y-93679174D01*
X147077673Y-93683903D01*
X147069080Y-93681998D01*
X147067544Y-93680710D01*
X146851632Y-93464798D01*
X146851631Y-93464797D01*
X146770588Y-93431228D01*
X138523503Y-93431228D01*
X138435783Y-93431228D01*
X138354740Y-93464797D01*
X138354738Y-93464798D01*
X137206251Y-94613285D01*
X137198119Y-94616653D01*
X137189987Y-94613285D01*
X137186619Y-94605153D01*
X137187366Y-94601075D01*
X137187867Y-94599754D01*
X137206894Y-94549586D01*
X137225057Y-94400000D01*
X137206894Y-94250414D01*
X137153460Y-94109522D01*
X137067862Y-93985511D01*
X137067859Y-93985508D01*
X137067857Y-93985506D01*
X136955075Y-93885590D01*
X136955073Y-93885588D01*
X136821648Y-93815562D01*
X136675342Y-93779500D01*
X136524658Y-93779500D01*
X136427120Y-93803541D01*
X136378351Y-93815562D01*
X136244928Y-93885587D01*
X136244924Y-93885590D01*
X136132142Y-93985506D01*
X136132136Y-93985513D01*
X136070367Y-94075002D01*
X136046540Y-94109522D01*
X136007033Y-94213694D01*
X135993106Y-94250415D01*
X135993105Y-94250416D01*
X135974943Y-94399998D01*
X135974943Y-94400001D01*
X135993105Y-94549583D01*
X135993106Y-94549586D01*
X136046540Y-94690478D01*
X136132138Y-94814489D01*
X136132140Y-94814491D01*
X136132142Y-94814493D01*
X136196588Y-94871587D01*
X136244927Y-94914412D01*
X136378352Y-94984438D01*
X136524658Y-95020500D01*
X136524661Y-95020500D01*
X136675339Y-95020500D01*
X136675342Y-95020500D01*
X136799445Y-94989910D01*
X136808144Y-94991234D01*
X136813361Y-94998324D01*
X136812037Y-95007025D01*
X136810327Y-95009208D01*
X134283405Y-97536132D01*
X134275273Y-97539500D01*
X128226637Y-97539500D01*
X128218505Y-97536132D01*
X128216391Y-97533221D01*
X128204435Y-97509757D01*
X128110245Y-97415567D01*
X128070859Y-97395499D01*
X127991562Y-97355095D01*
X127991559Y-97355094D01*
X127991558Y-97355094D01*
X127991555Y-97355093D01*
X127860003Y-97334258D01*
X127859997Y-97334258D01*
X127728444Y-97355093D01*
X127728441Y-97355094D01*
X127728439Y-97355094D01*
X127728438Y-97355095D01*
X127707095Y-97365970D01*
X127609754Y-97415567D01*
X127515567Y-97509754D01*
X127502247Y-97535897D01*
X127495554Y-97541613D01*
X127486779Y-97540923D01*
X127481063Y-97534230D01*
X127480500Y-97530676D01*
X127480500Y-96286533D01*
X127483867Y-96278402D01*
X127621820Y-96140448D01*
X127629951Y-96137081D01*
X127631740Y-96137222D01*
X127696919Y-96147545D01*
X127724294Y-96151882D01*
X127724296Y-96151882D01*
X127724299Y-96151882D01*
X127831363Y-96134924D01*
X127855858Y-96131045D01*
X127974541Y-96070573D01*
X128068729Y-95976385D01*
X128129201Y-95857702D01*
X128150038Y-95726140D01*
X128144495Y-95691145D01*
X128129202Y-95594584D01*
X128129201Y-95594581D01*
X128129201Y-95594578D01*
X128068729Y-95475895D01*
X127974541Y-95381707D01*
X127855858Y-95321235D01*
X127855855Y-95321234D01*
X127855854Y-95321234D01*
X127855851Y-95321233D01*
X127724299Y-95300398D01*
X127724293Y-95300398D01*
X127592740Y-95321233D01*
X127592737Y-95321234D01*
X127592735Y-95321234D01*
X127592734Y-95321235D01*
X127532304Y-95352025D01*
X127474050Y-95381707D01*
X127379863Y-95475894D01*
X127377819Y-95479906D01*
X127319391Y-95594578D01*
X127319390Y-95594579D01*
X127319390Y-95594581D01*
X127319389Y-95594584D01*
X127298554Y-95726137D01*
X127298554Y-95726142D01*
X127313211Y-95818684D01*
X127311157Y-95827243D01*
X127309985Y-95828615D01*
X127135097Y-96003505D01*
X127073070Y-96065531D01*
X127073069Y-96065532D01*
X127073069Y-96065533D01*
X127039659Y-96146194D01*
X127039500Y-96146577D01*
X127039500Y-100503858D01*
X127039499Y-100503858D01*
X126870500Y-100503858D01*
X126870500Y-96146195D01*
X126866404Y-96136307D01*
X126841010Y-96075000D01*
X126829319Y-96046774D01*
X124932542Y-94149997D01*
X133974258Y-94149997D01*
X133974258Y-94150002D01*
X133995093Y-94281555D01*
X133995094Y-94281558D01*
X133995095Y-94281562D01*
X134055567Y-94400245D01*
X134149755Y-94494433D01*
X134268438Y-94554905D01*
X134268443Y-94554905D01*
X134268444Y-94554906D01*
X134399997Y-94575742D01*
X134400000Y-94575742D01*
X134400003Y-94575742D01*
X134507067Y-94558784D01*
X134531562Y-94554905D01*
X134650245Y-94494433D01*
X134744433Y-94400245D01*
X134804905Y-94281562D01*
X134825742Y-94150000D01*
X134813863Y-94075000D01*
X134804906Y-94018444D01*
X134804905Y-94018441D01*
X134804905Y-94018438D01*
X134744433Y-93899755D01*
X134650245Y-93805567D01*
X134531562Y-93745095D01*
X134531559Y-93745094D01*
X134531558Y-93745094D01*
X134531555Y-93745093D01*
X134400003Y-93724258D01*
X134399997Y-93724258D01*
X134268444Y-93745093D01*
X134268441Y-93745094D01*
X134268439Y-93745094D01*
X134268438Y-93745095D01*
X134208008Y-93775885D01*
X134149754Y-93805567D01*
X134055567Y-93899754D01*
X134033309Y-93943438D01*
X133995095Y-94018438D01*
X133995094Y-94018439D01*
X133995094Y-94018441D01*
X133995093Y-94018444D01*
X133974258Y-94149997D01*
X124932542Y-94149997D01*
X124223977Y-93441432D01*
X124220609Y-93433300D01*
X124220749Y-93431514D01*
X124225742Y-93400000D01*
X124224286Y-93390809D01*
X124204906Y-93268444D01*
X124204905Y-93268441D01*
X124204905Y-93268438D01*
X124144433Y-93149755D01*
X124050245Y-93055567D01*
X123931562Y-92995095D01*
X123931559Y-92995094D01*
X123931558Y-92995094D01*
X123931555Y-92995093D01*
X123800003Y-92974258D01*
X123799997Y-92974258D01*
X123668444Y-92995093D01*
X123668441Y-92995094D01*
X123668439Y-92995094D01*
X123668438Y-92995095D01*
X123608008Y-93025885D01*
X123549754Y-93055567D01*
X123455567Y-93149754D01*
X123425885Y-93208008D01*
X123395095Y-93268438D01*
X123395094Y-93268439D01*
X123395094Y-93268441D01*
X123395093Y-93268444D01*
X123374258Y-93399997D01*
X123270500Y-93399997D01*
X123270500Y-93118280D01*
X123273868Y-93110148D01*
X123484018Y-92899998D01*
X137374943Y-92899998D01*
X137374943Y-92900001D01*
X137393105Y-93049583D01*
X137393106Y-93049586D01*
X137446540Y-93190478D01*
X137532138Y-93314489D01*
X137532140Y-93314491D01*
X137532142Y-93314493D01*
X137536276Y-93318155D01*
X137644927Y-93414412D01*
X137778352Y-93484438D01*
X137924658Y-93520500D01*
X137924661Y-93520500D01*
X138075339Y-93520500D01*
X138075342Y-93520500D01*
X138221648Y-93484438D01*
X138355073Y-93414412D01*
X138467862Y-93314489D01*
X138553460Y-93190478D01*
X138606894Y-93049586D01*
X138625057Y-92900000D01*
X138606894Y-92750414D01*
X138553460Y-92609522D01*
X138467862Y-92485511D01*
X138467859Y-92485508D01*
X138467857Y-92485506D01*
X138355075Y-92385590D01*
X138355073Y-92385588D01*
X138221648Y-92315562D01*
X138075342Y-92279500D01*
X137924658Y-92279500D01*
X137804200Y-92309191D01*
X137778352Y-92315562D01*
X137778350Y-92315563D01*
X137644928Y-92385587D01*
X137644924Y-92385590D01*
X137532142Y-92485506D01*
X137532136Y-92485513D01*
X137446540Y-92609522D01*
X137393106Y-92750415D01*
X137393105Y-92750416D01*
X137374943Y-92899998D01*
X123484018Y-92899998D01*
X123810148Y-92573868D01*
X123818280Y-92570500D01*
X123871058Y-92570500D01*
X123879190Y-92573868D01*
X123949755Y-92644433D01*
X124068438Y-92704905D01*
X124068443Y-92704905D01*
X124068444Y-92704906D01*
X124199997Y-92725742D01*
X124200000Y-92725742D01*
X124200003Y-92725742D01*
X124307067Y-92708784D01*
X124331562Y-92704905D01*
X124450245Y-92644433D01*
X124544433Y-92550245D01*
X124604905Y-92431562D01*
X124623277Y-92315563D01*
X124625742Y-92300002D01*
X124625742Y-92299997D01*
X124604906Y-92168444D01*
X124604905Y-92168441D01*
X124604905Y-92168438D01*
X124570033Y-92099998D01*
X147074556Y-92099998D01*
X147074556Y-92100001D01*
X147094181Y-92211305D01*
X147094182Y-92211307D01*
X147133553Y-92279500D01*
X147150695Y-92309191D01*
X147237278Y-92381843D01*
X147266808Y-92392591D01*
X147343481Y-92420499D01*
X147343487Y-92420500D01*
X147456513Y-92420500D01*
X147456518Y-92420499D01*
X147509617Y-92401171D01*
X147562722Y-92381843D01*
X147649305Y-92309191D01*
X147705817Y-92211308D01*
X147706656Y-92206555D01*
X147725444Y-92100001D01*
X147725444Y-92099998D01*
X147705818Y-91988694D01*
X147705817Y-91988692D01*
X147649305Y-91890809D01*
X147562722Y-91818157D01*
X147562720Y-91818156D01*
X147562717Y-91818155D01*
X147456518Y-91779500D01*
X147456513Y-91779500D01*
X147343487Y-91779500D01*
X147343481Y-91779500D01*
X147237282Y-91818155D01*
X147237279Y-91818156D01*
X147150695Y-91890808D01*
X147094182Y-91988692D01*
X147094181Y-91988694D01*
X147074556Y-92099998D01*
X124570033Y-92099998D01*
X124544433Y-92049755D01*
X124450245Y-91955567D01*
X124331562Y-91895095D01*
X124331559Y-91895094D01*
X124331558Y-91895094D01*
X124331555Y-91895093D01*
X124200003Y-91874258D01*
X124199997Y-91874258D01*
X124068444Y-91895093D01*
X124068441Y-91895094D01*
X124068439Y-91895094D01*
X124068438Y-91895095D01*
X124008008Y-91925885D01*
X123949754Y-91955567D01*
X123879190Y-92026132D01*
X123871058Y-92029500D01*
X123647665Y-92029500D01*
X123641068Y-92032231D01*
X123618544Y-92041560D01*
X123618545Y-92041561D01*
X123598764Y-92049755D01*
X123548243Y-92070682D01*
X122770680Y-92848245D01*
X122769448Y-92851222D01*
X122769448Y-92851223D01*
X122729500Y-92947666D01*
X122729500Y-110553804D01*
X122729499Y-110553804D01*
X120100500Y-110553804D01*
X120100500Y-104049997D01*
X120274258Y-104049997D01*
X120274258Y-104050002D01*
X120295093Y-104181555D01*
X120295094Y-104181558D01*
X120295095Y-104181562D01*
X120355567Y-104300245D01*
X120447190Y-104391868D01*
X120450558Y-104400000D01*
X120447190Y-104408132D01*
X120355567Y-104499754D01*
X120325885Y-104558008D01*
X120295095Y-104618438D01*
X120295094Y-104618439D01*
X120295094Y-104618441D01*
X120295093Y-104618444D01*
X120274258Y-104749997D01*
X120274258Y-104750002D01*
X120295093Y-104881555D01*
X120295094Y-104881558D01*
X120295095Y-104881562D01*
X120348992Y-104987341D01*
X120355567Y-105000245D01*
X120447190Y-105091868D01*
X120450558Y-105100000D01*
X120447190Y-105108132D01*
X120355567Y-105199754D01*
X120329966Y-105250000D01*
X120295095Y-105318438D01*
X120295094Y-105318439D01*
X120295094Y-105318441D01*
X120295093Y-105318444D01*
X120274258Y-105449997D01*
X120274258Y-105450002D01*
X120295093Y-105581555D01*
X120295094Y-105581558D01*
X120295095Y-105581562D01*
X120355567Y-105700245D01*
X120449755Y-105794433D01*
X120568438Y-105854905D01*
X120568443Y-105854905D01*
X120568444Y-105854906D01*
X120699997Y-105875742D01*
X120700000Y-105875742D01*
X120700003Y-105875742D01*
X120807067Y-105858784D01*
X120831562Y-105854905D01*
X120950245Y-105794433D01*
X121044433Y-105700245D01*
X121104905Y-105581562D01*
X121112893Y-105531125D01*
X121125742Y-105450002D01*
X121125742Y-105449997D01*
X121104906Y-105318444D01*
X121104905Y-105318441D01*
X121104905Y-105318438D01*
X121044433Y-105199755D01*
X120952810Y-105108132D01*
X120949442Y-105100000D01*
X120952810Y-105091868D01*
X120994950Y-105049728D01*
X121044433Y-105000245D01*
X121104905Y-104881562D01*
X121119714Y-104788060D01*
X121125742Y-104750002D01*
X121125742Y-104749997D01*
X121104906Y-104618444D01*
X121104905Y-104618441D01*
X121104905Y-104618438D01*
X121044433Y-104499755D01*
X120952810Y-104408132D01*
X120949442Y-104400000D01*
X120952810Y-104391868D01*
X120962835Y-104381843D01*
X121044433Y-104300245D01*
X121104905Y-104181562D01*
X121122313Y-104071651D01*
X121125742Y-104050002D01*
X121125742Y-104049997D01*
X121104906Y-103918444D01*
X121104905Y-103918441D01*
X121104905Y-103918438D01*
X121044433Y-103799755D01*
X120950245Y-103705567D01*
X120831562Y-103645095D01*
X120831559Y-103645094D01*
X120831558Y-103645094D01*
X120831555Y-103645093D01*
X120700003Y-103624258D01*
X120699997Y-103624258D01*
X120568444Y-103645093D01*
X120568441Y-103645094D01*
X120568439Y-103645094D01*
X120568438Y-103645095D01*
X120558331Y-103650245D01*
X120449754Y-103705567D01*
X120355567Y-103799754D01*
X120342326Y-103825742D01*
X120295095Y-103918438D01*
X120295094Y-103918439D01*
X120295094Y-103918441D01*
X120295093Y-103918444D01*
X120274258Y-104049997D01*
X120100500Y-104049997D01*
X120100500Y-94849997D01*
X120374258Y-94849997D01*
X120374258Y-94850002D01*
X120395093Y-94981555D01*
X120395094Y-94981558D01*
X120395095Y-94981562D01*
X120442703Y-95074997D01*
X120455567Y-95100245D01*
X120547190Y-95191868D01*
X120550558Y-95200000D01*
X120547190Y-95208132D01*
X120455567Y-95299754D01*
X120455239Y-95300398D01*
X120395095Y-95418438D01*
X120395094Y-95418439D01*
X120395094Y-95418441D01*
X120395093Y-95418444D01*
X120374258Y-95549997D01*
X120374258Y-95550002D01*
X120395093Y-95681555D01*
X120395094Y-95681558D01*
X120395095Y-95681562D01*
X120449852Y-95789028D01*
X120455567Y-95800245D01*
X120547190Y-95891868D01*
X120550558Y-95900000D01*
X120547190Y-95908132D01*
X120455567Y-95999754D01*
X120449509Y-96011644D01*
X120395095Y-96118438D01*
X120395094Y-96118439D01*
X120395094Y-96118441D01*
X120395093Y-96118444D01*
X120374258Y-96249997D01*
X120374258Y-96250002D01*
X120395093Y-96381555D01*
X120395094Y-96381558D01*
X120395095Y-96381562D01*
X120455567Y-96500245D01*
X120549755Y-96594433D01*
X120668438Y-96654905D01*
X120668443Y-96654905D01*
X120668444Y-96654906D01*
X120799997Y-96675742D01*
X120800000Y-96675742D01*
X120800003Y-96675742D01*
X120907067Y-96658784D01*
X120931562Y-96654905D01*
X121050245Y-96594433D01*
X121144433Y-96500245D01*
X121204905Y-96381562D01*
X121217823Y-96300000D01*
X121225742Y-96250002D01*
X121225742Y-96249997D01*
X121204906Y-96118444D01*
X121204905Y-96118441D01*
X121204905Y-96118438D01*
X121144433Y-95999755D01*
X121052810Y-95908132D01*
X121049442Y-95900000D01*
X121052810Y-95891868D01*
X121086983Y-95857695D01*
X121144433Y-95800245D01*
X121204905Y-95681562D01*
X121225742Y-95550000D01*
X121217940Y-95500742D01*
X121204906Y-95418444D01*
X121204905Y-95418441D01*
X121204905Y-95418438D01*
X121144433Y-95299755D01*
X121052810Y-95208132D01*
X121049442Y-95200000D01*
X121052810Y-95191868D01*
X121144433Y-95100245D01*
X121204905Y-94981562D01*
X121225742Y-94850000D01*
X121221743Y-94824754D01*
X121204906Y-94718444D01*
X121204905Y-94718441D01*
X121204905Y-94718438D01*
X121144433Y-94599755D01*
X121050245Y-94505567D01*
X120931562Y-94445095D01*
X120931559Y-94445094D01*
X120931558Y-94445094D01*
X120931555Y-94445093D01*
X120800003Y-94424258D01*
X120799997Y-94424258D01*
X120668444Y-94445093D01*
X120668441Y-94445094D01*
X120668439Y-94445094D01*
X120668438Y-94445095D01*
X120608008Y-94475885D01*
X120549754Y-94505567D01*
X120455567Y-94599754D01*
X120451955Y-94606843D01*
X120395095Y-94718438D01*
X120395094Y-94718439D01*
X120395094Y-94718441D01*
X120395093Y-94718444D01*
X120374258Y-94849997D01*
X120100500Y-94849997D01*
X120100500Y-91085397D01*
X140809658Y-91085397D01*
X140809658Y-91085402D01*
X140830493Y-91216955D01*
X140830494Y-91216958D01*
X140830495Y-91216962D01*
X140890967Y-91335645D01*
X140985155Y-91429833D01*
X141103838Y-91490305D01*
X141103843Y-91490305D01*
X141103844Y-91490306D01*
X141235397Y-91511142D01*
X141235400Y-91511142D01*
X141235403Y-91511142D01*
X141342467Y-91494184D01*
X141366962Y-91490305D01*
X141485645Y-91429833D01*
X141579833Y-91335645D01*
X141640305Y-91216962D01*
X141661142Y-91085400D01*
X141643526Y-90974178D01*
X141640306Y-90953844D01*
X141640305Y-90953841D01*
X141640305Y-90953838D01*
X141579833Y-90835155D01*
X141485645Y-90740967D01*
X141366962Y-90680495D01*
X141366959Y-90680494D01*
X141366958Y-90680494D01*
X141366955Y-90680493D01*
X141235403Y-90659658D01*
X141235397Y-90659658D01*
X141103844Y-90680493D01*
X141103841Y-90680494D01*
X141103839Y-90680494D01*
X141103838Y-90680495D01*
X141043408Y-90711285D01*
X140985154Y-90740967D01*
X140890967Y-90835154D01*
X140869431Y-90877421D01*
X140830495Y-90953838D01*
X140830494Y-90953839D01*
X140830494Y-90953841D01*
X140830493Y-90953844D01*
X140809658Y-91085397D01*
X120100500Y-91085397D01*
X120100500Y-85812000D01*
X120103868Y-85803868D01*
X120112000Y-85800500D01*
X144888500Y-85800500D01*
X144896632Y-85803868D01*
G37*
%TD.AperFunction*%
%TD*%
M02*
