%TF.GenerationSoftware,KiCad,Pcbnew,8.0.6*%
%TF.CreationDate,2025-09-09T16:11:23-07:00*%
%TF.ProjectId,Multimodal_Actuator_mk2,4d756c74-696d-46f6-9461-6c5f41637475,rev?*%
%TF.SameCoordinates,Original*%
%TF.FileFunction,Legend,Bot*%
%TF.FilePolarity,Positive*%
%FSLAX46Y46*%
G04 Gerber Fmt 4.6, Leading zero omitted, Abs format (unit mm)*
G04 Created by KiCad (PCBNEW 8.0.6) date 2025-09-09 16:11:23*
%MOMM*%
%LPD*%
G01*
G04 APERTURE LIST*
%ADD10C,0.031750*%
%ADD11C,0.200000*%
%ADD12C,0.152400*%
%ADD13C,0.120000*%
%ADD14C,0.127000*%
G04 APERTURE END LIST*
D10*
X130322594Y-108031635D02*
X130328642Y-108061874D01*
X130328642Y-108061874D02*
X130346784Y-108092112D01*
X130346784Y-108092112D02*
X130358880Y-108092112D01*
X130358880Y-108092112D02*
X130377023Y-108061874D01*
X130377023Y-108061874D02*
X130389118Y-108001397D01*
X130389118Y-108001397D02*
X130395165Y-107940921D01*
X130395165Y-107940921D02*
X130401213Y-107819969D01*
X130401213Y-107819969D02*
X130401213Y-107729254D01*
X130401213Y-107729254D02*
X130395165Y-107608302D01*
X130395165Y-107608302D02*
X130389118Y-107547826D01*
X130389118Y-107547826D02*
X130377023Y-107487350D01*
X130377023Y-107487350D02*
X130358880Y-107457112D01*
X130358880Y-107457112D02*
X130346784Y-107457112D01*
X130346784Y-107457112D02*
X130328642Y-107487350D01*
X130328642Y-107487350D02*
X130322594Y-107517588D01*
X130274213Y-107517588D02*
X130268165Y-107487350D01*
X130268165Y-107487350D02*
X130256070Y-107457112D01*
X130256070Y-107457112D02*
X130225832Y-107457112D01*
X130225832Y-107457112D02*
X130213737Y-107487350D01*
X130213737Y-107487350D02*
X130207689Y-107517588D01*
X130207689Y-107517588D02*
X130201642Y-107578064D01*
X130201642Y-107578064D02*
X130201642Y-107638540D01*
X130201642Y-107638540D02*
X130207689Y-107729254D01*
X130207689Y-107729254D02*
X130280261Y-108092112D01*
X130280261Y-108092112D02*
X130201642Y-108092112D01*
X130123023Y-107457112D02*
X130110928Y-107457112D01*
X130110928Y-107457112D02*
X130098832Y-107487350D01*
X130098832Y-107487350D02*
X130092785Y-107517588D01*
X130092785Y-107517588D02*
X130086737Y-107578064D01*
X130086737Y-107578064D02*
X130080690Y-107699016D01*
X130080690Y-107699016D02*
X130080690Y-107850207D01*
X130080690Y-107850207D02*
X130086737Y-107971159D01*
X130086737Y-107971159D02*
X130092785Y-108031635D01*
X130092785Y-108031635D02*
X130098832Y-108061874D01*
X130098832Y-108061874D02*
X130110928Y-108092112D01*
X130110928Y-108092112D02*
X130123023Y-108092112D01*
X130123023Y-108092112D02*
X130135118Y-108061874D01*
X130135118Y-108061874D02*
X130141166Y-108031635D01*
X130141166Y-108031635D02*
X130147213Y-107971159D01*
X130147213Y-107971159D02*
X130153261Y-107850207D01*
X130153261Y-107850207D02*
X130153261Y-107699016D01*
X130153261Y-107699016D02*
X130147213Y-107578064D01*
X130147213Y-107578064D02*
X130141166Y-107517588D01*
X130141166Y-107517588D02*
X130135118Y-107487350D01*
X130135118Y-107487350D02*
X130123023Y-107457112D01*
X130032309Y-107517588D02*
X130026261Y-107487350D01*
X130026261Y-107487350D02*
X130014166Y-107457112D01*
X130014166Y-107457112D02*
X129983928Y-107457112D01*
X129983928Y-107457112D02*
X129971833Y-107487350D01*
X129971833Y-107487350D02*
X129965785Y-107517588D01*
X129965785Y-107517588D02*
X129959738Y-107578064D01*
X129959738Y-107578064D02*
X129959738Y-107638540D01*
X129959738Y-107638540D02*
X129965785Y-107729254D01*
X129965785Y-107729254D02*
X130038357Y-108092112D01*
X130038357Y-108092112D02*
X129959738Y-108092112D01*
X129917405Y-107457112D02*
X129838786Y-107457112D01*
X129838786Y-107457112D02*
X129881119Y-107699016D01*
X129881119Y-107699016D02*
X129862976Y-107699016D01*
X129862976Y-107699016D02*
X129850881Y-107729254D01*
X129850881Y-107729254D02*
X129844833Y-107759493D01*
X129844833Y-107759493D02*
X129838786Y-107819969D01*
X129838786Y-107819969D02*
X129838786Y-107971159D01*
X129838786Y-107971159D02*
X129844833Y-108031635D01*
X129844833Y-108031635D02*
X129850881Y-108061874D01*
X129850881Y-108061874D02*
X129862976Y-108092112D01*
X129862976Y-108092112D02*
X129899262Y-108092112D01*
X129899262Y-108092112D02*
X129911357Y-108061874D01*
X129911357Y-108061874D02*
X129917405Y-108031635D01*
X130302594Y-110431635D02*
X130308642Y-110461874D01*
X130308642Y-110461874D02*
X130326784Y-110492112D01*
X130326784Y-110492112D02*
X130338880Y-110492112D01*
X130338880Y-110492112D02*
X130357023Y-110461874D01*
X130357023Y-110461874D02*
X130369118Y-110401397D01*
X130369118Y-110401397D02*
X130375165Y-110340921D01*
X130375165Y-110340921D02*
X130381213Y-110219969D01*
X130381213Y-110219969D02*
X130381213Y-110129254D01*
X130381213Y-110129254D02*
X130375165Y-110008302D01*
X130375165Y-110008302D02*
X130369118Y-109947826D01*
X130369118Y-109947826D02*
X130357023Y-109887350D01*
X130357023Y-109887350D02*
X130338880Y-109857112D01*
X130338880Y-109857112D02*
X130326784Y-109857112D01*
X130326784Y-109857112D02*
X130308642Y-109887350D01*
X130308642Y-109887350D02*
X130302594Y-109917588D01*
X130254213Y-109917588D02*
X130248165Y-109887350D01*
X130248165Y-109887350D02*
X130236070Y-109857112D01*
X130236070Y-109857112D02*
X130205832Y-109857112D01*
X130205832Y-109857112D02*
X130193737Y-109887350D01*
X130193737Y-109887350D02*
X130187689Y-109917588D01*
X130187689Y-109917588D02*
X130181642Y-109978064D01*
X130181642Y-109978064D02*
X130181642Y-110038540D01*
X130181642Y-110038540D02*
X130187689Y-110129254D01*
X130187689Y-110129254D02*
X130260261Y-110492112D01*
X130260261Y-110492112D02*
X130181642Y-110492112D01*
X130103023Y-109857112D02*
X130090928Y-109857112D01*
X130090928Y-109857112D02*
X130078832Y-109887350D01*
X130078832Y-109887350D02*
X130072785Y-109917588D01*
X130072785Y-109917588D02*
X130066737Y-109978064D01*
X130066737Y-109978064D02*
X130060690Y-110099016D01*
X130060690Y-110099016D02*
X130060690Y-110250207D01*
X130060690Y-110250207D02*
X130066737Y-110371159D01*
X130066737Y-110371159D02*
X130072785Y-110431635D01*
X130072785Y-110431635D02*
X130078832Y-110461874D01*
X130078832Y-110461874D02*
X130090928Y-110492112D01*
X130090928Y-110492112D02*
X130103023Y-110492112D01*
X130103023Y-110492112D02*
X130115118Y-110461874D01*
X130115118Y-110461874D02*
X130121166Y-110431635D01*
X130121166Y-110431635D02*
X130127213Y-110371159D01*
X130127213Y-110371159D02*
X130133261Y-110250207D01*
X130133261Y-110250207D02*
X130133261Y-110099016D01*
X130133261Y-110099016D02*
X130127213Y-109978064D01*
X130127213Y-109978064D02*
X130121166Y-109917588D01*
X130121166Y-109917588D02*
X130115118Y-109887350D01*
X130115118Y-109887350D02*
X130103023Y-109857112D01*
X130012309Y-109917588D02*
X130006261Y-109887350D01*
X130006261Y-109887350D02*
X129994166Y-109857112D01*
X129994166Y-109857112D02*
X129963928Y-109857112D01*
X129963928Y-109857112D02*
X129951833Y-109887350D01*
X129951833Y-109887350D02*
X129945785Y-109917588D01*
X129945785Y-109917588D02*
X129939738Y-109978064D01*
X129939738Y-109978064D02*
X129939738Y-110038540D01*
X129939738Y-110038540D02*
X129945785Y-110129254D01*
X129945785Y-110129254D02*
X130018357Y-110492112D01*
X130018357Y-110492112D02*
X129939738Y-110492112D01*
X129830881Y-110068778D02*
X129830881Y-110492112D01*
X129861119Y-109826874D02*
X129891357Y-110280445D01*
X129891357Y-110280445D02*
X129812738Y-110280445D01*
X130322594Y-108831635D02*
X130328642Y-108861874D01*
X130328642Y-108861874D02*
X130346784Y-108892112D01*
X130346784Y-108892112D02*
X130358880Y-108892112D01*
X130358880Y-108892112D02*
X130377023Y-108861874D01*
X130377023Y-108861874D02*
X130389118Y-108801397D01*
X130389118Y-108801397D02*
X130395165Y-108740921D01*
X130395165Y-108740921D02*
X130401213Y-108619969D01*
X130401213Y-108619969D02*
X130401213Y-108529254D01*
X130401213Y-108529254D02*
X130395165Y-108408302D01*
X130395165Y-108408302D02*
X130389118Y-108347826D01*
X130389118Y-108347826D02*
X130377023Y-108287350D01*
X130377023Y-108287350D02*
X130358880Y-108257112D01*
X130358880Y-108257112D02*
X130346784Y-108257112D01*
X130346784Y-108257112D02*
X130328642Y-108287350D01*
X130328642Y-108287350D02*
X130322594Y-108317588D01*
X130274213Y-108317588D02*
X130268165Y-108287350D01*
X130268165Y-108287350D02*
X130256070Y-108257112D01*
X130256070Y-108257112D02*
X130225832Y-108257112D01*
X130225832Y-108257112D02*
X130213737Y-108287350D01*
X130213737Y-108287350D02*
X130207689Y-108317588D01*
X130207689Y-108317588D02*
X130201642Y-108378064D01*
X130201642Y-108378064D02*
X130201642Y-108438540D01*
X130201642Y-108438540D02*
X130207689Y-108529254D01*
X130207689Y-108529254D02*
X130280261Y-108892112D01*
X130280261Y-108892112D02*
X130201642Y-108892112D01*
X130123023Y-108257112D02*
X130110928Y-108257112D01*
X130110928Y-108257112D02*
X130098832Y-108287350D01*
X130098832Y-108287350D02*
X130092785Y-108317588D01*
X130092785Y-108317588D02*
X130086737Y-108378064D01*
X130086737Y-108378064D02*
X130080690Y-108499016D01*
X130080690Y-108499016D02*
X130080690Y-108650207D01*
X130080690Y-108650207D02*
X130086737Y-108771159D01*
X130086737Y-108771159D02*
X130092785Y-108831635D01*
X130092785Y-108831635D02*
X130098832Y-108861874D01*
X130098832Y-108861874D02*
X130110928Y-108892112D01*
X130110928Y-108892112D02*
X130123023Y-108892112D01*
X130123023Y-108892112D02*
X130135118Y-108861874D01*
X130135118Y-108861874D02*
X130141166Y-108831635D01*
X130141166Y-108831635D02*
X130147213Y-108771159D01*
X130147213Y-108771159D02*
X130153261Y-108650207D01*
X130153261Y-108650207D02*
X130153261Y-108499016D01*
X130153261Y-108499016D02*
X130147213Y-108378064D01*
X130147213Y-108378064D02*
X130141166Y-108317588D01*
X130141166Y-108317588D02*
X130135118Y-108287350D01*
X130135118Y-108287350D02*
X130123023Y-108257112D01*
X130002071Y-108257112D02*
X129989976Y-108257112D01*
X129989976Y-108257112D02*
X129977880Y-108287350D01*
X129977880Y-108287350D02*
X129971833Y-108317588D01*
X129971833Y-108317588D02*
X129965785Y-108378064D01*
X129965785Y-108378064D02*
X129959738Y-108499016D01*
X129959738Y-108499016D02*
X129959738Y-108650207D01*
X129959738Y-108650207D02*
X129965785Y-108771159D01*
X129965785Y-108771159D02*
X129971833Y-108831635D01*
X129971833Y-108831635D02*
X129977880Y-108861874D01*
X129977880Y-108861874D02*
X129989976Y-108892112D01*
X129989976Y-108892112D02*
X130002071Y-108892112D01*
X130002071Y-108892112D02*
X130014166Y-108861874D01*
X130014166Y-108861874D02*
X130020214Y-108831635D01*
X130020214Y-108831635D02*
X130026261Y-108771159D01*
X130026261Y-108771159D02*
X130032309Y-108650207D01*
X130032309Y-108650207D02*
X130032309Y-108499016D01*
X130032309Y-108499016D02*
X130026261Y-108378064D01*
X130026261Y-108378064D02*
X130020214Y-108317588D01*
X130020214Y-108317588D02*
X130014166Y-108287350D01*
X130014166Y-108287350D02*
X130002071Y-108257112D01*
X129850881Y-108468778D02*
X129850881Y-108892112D01*
X129881119Y-108226874D02*
X129911357Y-108680445D01*
X129911357Y-108680445D02*
X129832738Y-108680445D01*
X128423761Y-92757112D02*
X128423761Y-93210683D01*
X128423761Y-93210683D02*
X128429808Y-93301397D01*
X128429808Y-93301397D02*
X128441904Y-93361874D01*
X128441904Y-93361874D02*
X128460046Y-93392112D01*
X128460046Y-93392112D02*
X128472142Y-93392112D01*
X128308856Y-92757112D02*
X128333046Y-92757112D01*
X128333046Y-92757112D02*
X128345142Y-92787350D01*
X128345142Y-92787350D02*
X128351189Y-92817588D01*
X128351189Y-92817588D02*
X128363284Y-92908302D01*
X128363284Y-92908302D02*
X128369332Y-93029254D01*
X128369332Y-93029254D02*
X128369332Y-93271159D01*
X128369332Y-93271159D02*
X128363284Y-93331635D01*
X128363284Y-93331635D02*
X128357237Y-93361874D01*
X128357237Y-93361874D02*
X128345142Y-93392112D01*
X128345142Y-93392112D02*
X128320951Y-93392112D01*
X128320951Y-93392112D02*
X128308856Y-93361874D01*
X128308856Y-93361874D02*
X128302808Y-93331635D01*
X128302808Y-93331635D02*
X128296761Y-93271159D01*
X128296761Y-93271159D02*
X128296761Y-93119969D01*
X128296761Y-93119969D02*
X128302808Y-93059493D01*
X128302808Y-93059493D02*
X128308856Y-93029254D01*
X128308856Y-93029254D02*
X128320951Y-92999016D01*
X128320951Y-92999016D02*
X128345142Y-92999016D01*
X128345142Y-92999016D02*
X128357237Y-93029254D01*
X128357237Y-93029254D02*
X128363284Y-93059493D01*
X128363284Y-93059493D02*
X128369332Y-93119969D01*
X128218142Y-92757112D02*
X128206047Y-92757112D01*
X128206047Y-92757112D02*
X128193951Y-92787350D01*
X128193951Y-92787350D02*
X128187904Y-92817588D01*
X128187904Y-92817588D02*
X128181856Y-92878064D01*
X128181856Y-92878064D02*
X128175809Y-92999016D01*
X128175809Y-92999016D02*
X128175809Y-93150207D01*
X128175809Y-93150207D02*
X128181856Y-93271159D01*
X128181856Y-93271159D02*
X128187904Y-93331635D01*
X128187904Y-93331635D02*
X128193951Y-93361874D01*
X128193951Y-93361874D02*
X128206047Y-93392112D01*
X128206047Y-93392112D02*
X128218142Y-93392112D01*
X128218142Y-93392112D02*
X128230237Y-93361874D01*
X128230237Y-93361874D02*
X128236285Y-93331635D01*
X128236285Y-93331635D02*
X128242332Y-93271159D01*
X128242332Y-93271159D02*
X128248380Y-93150207D01*
X128248380Y-93150207D02*
X128248380Y-92999016D01*
X128248380Y-92999016D02*
X128242332Y-92878064D01*
X128242332Y-92878064D02*
X128236285Y-92817588D01*
X128236285Y-92817588D02*
X128230237Y-92787350D01*
X128230237Y-92787350D02*
X128218142Y-92757112D01*
X128097190Y-92757112D02*
X128085095Y-92757112D01*
X128085095Y-92757112D02*
X128072999Y-92787350D01*
X128072999Y-92787350D02*
X128066952Y-92817588D01*
X128066952Y-92817588D02*
X128060904Y-92878064D01*
X128060904Y-92878064D02*
X128054857Y-92999016D01*
X128054857Y-92999016D02*
X128054857Y-93150207D01*
X128054857Y-93150207D02*
X128060904Y-93271159D01*
X128060904Y-93271159D02*
X128066952Y-93331635D01*
X128066952Y-93331635D02*
X128072999Y-93361874D01*
X128072999Y-93361874D02*
X128085095Y-93392112D01*
X128085095Y-93392112D02*
X128097190Y-93392112D01*
X128097190Y-93392112D02*
X128109285Y-93361874D01*
X128109285Y-93361874D02*
X128115333Y-93331635D01*
X128115333Y-93331635D02*
X128121380Y-93271159D01*
X128121380Y-93271159D02*
X128127428Y-93150207D01*
X128127428Y-93150207D02*
X128127428Y-92999016D01*
X128127428Y-92999016D02*
X128121380Y-92878064D01*
X128121380Y-92878064D02*
X128115333Y-92817588D01*
X128115333Y-92817588D02*
X128109285Y-92787350D01*
X128109285Y-92787350D02*
X128097190Y-92757112D01*
X127933905Y-93392112D02*
X128006476Y-93392112D01*
X127970190Y-93392112D02*
X127970190Y-92757112D01*
X127970190Y-92757112D02*
X127982286Y-92847826D01*
X127982286Y-92847826D02*
X127994381Y-92908302D01*
X127994381Y-92908302D02*
X128006476Y-92938540D01*
X142402594Y-110192112D02*
X142444927Y-109889731D01*
X142475165Y-110192112D02*
X142475165Y-109557112D01*
X142475165Y-109557112D02*
X142426784Y-109557112D01*
X142426784Y-109557112D02*
X142414689Y-109587350D01*
X142414689Y-109587350D02*
X142408642Y-109617588D01*
X142408642Y-109617588D02*
X142402594Y-109678064D01*
X142402594Y-109678064D02*
X142402594Y-109768778D01*
X142402594Y-109768778D02*
X142408642Y-109829254D01*
X142408642Y-109829254D02*
X142414689Y-109859493D01*
X142414689Y-109859493D02*
X142426784Y-109889731D01*
X142426784Y-109889731D02*
X142475165Y-109889731D01*
X142360261Y-109557112D02*
X142281642Y-109557112D01*
X142281642Y-109557112D02*
X142323975Y-109799016D01*
X142323975Y-109799016D02*
X142305832Y-109799016D01*
X142305832Y-109799016D02*
X142293737Y-109829254D01*
X142293737Y-109829254D02*
X142287689Y-109859493D01*
X142287689Y-109859493D02*
X142281642Y-109919969D01*
X142281642Y-109919969D02*
X142281642Y-110071159D01*
X142281642Y-110071159D02*
X142287689Y-110131635D01*
X142287689Y-110131635D02*
X142293737Y-110161874D01*
X142293737Y-110161874D02*
X142305832Y-110192112D01*
X142305832Y-110192112D02*
X142342118Y-110192112D01*
X142342118Y-110192112D02*
X142354213Y-110161874D01*
X142354213Y-110161874D02*
X142360261Y-110131635D01*
X142203023Y-109557112D02*
X142190928Y-109557112D01*
X142190928Y-109557112D02*
X142178832Y-109587350D01*
X142178832Y-109587350D02*
X142172785Y-109617588D01*
X142172785Y-109617588D02*
X142166737Y-109678064D01*
X142166737Y-109678064D02*
X142160690Y-109799016D01*
X142160690Y-109799016D02*
X142160690Y-109950207D01*
X142160690Y-109950207D02*
X142166737Y-110071159D01*
X142166737Y-110071159D02*
X142172785Y-110131635D01*
X142172785Y-110131635D02*
X142178832Y-110161874D01*
X142178832Y-110161874D02*
X142190928Y-110192112D01*
X142190928Y-110192112D02*
X142203023Y-110192112D01*
X142203023Y-110192112D02*
X142215118Y-110161874D01*
X142215118Y-110161874D02*
X142221166Y-110131635D01*
X142221166Y-110131635D02*
X142227213Y-110071159D01*
X142227213Y-110071159D02*
X142233261Y-109950207D01*
X142233261Y-109950207D02*
X142233261Y-109799016D01*
X142233261Y-109799016D02*
X142227213Y-109678064D01*
X142227213Y-109678064D02*
X142221166Y-109617588D01*
X142221166Y-109617588D02*
X142215118Y-109587350D01*
X142215118Y-109587350D02*
X142203023Y-109557112D01*
X142082071Y-109557112D02*
X142069976Y-109557112D01*
X142069976Y-109557112D02*
X142057880Y-109587350D01*
X142057880Y-109587350D02*
X142051833Y-109617588D01*
X142051833Y-109617588D02*
X142045785Y-109678064D01*
X142045785Y-109678064D02*
X142039738Y-109799016D01*
X142039738Y-109799016D02*
X142039738Y-109950207D01*
X142039738Y-109950207D02*
X142045785Y-110071159D01*
X142045785Y-110071159D02*
X142051833Y-110131635D01*
X142051833Y-110131635D02*
X142057880Y-110161874D01*
X142057880Y-110161874D02*
X142069976Y-110192112D01*
X142069976Y-110192112D02*
X142082071Y-110192112D01*
X142082071Y-110192112D02*
X142094166Y-110161874D01*
X142094166Y-110161874D02*
X142100214Y-110131635D01*
X142100214Y-110131635D02*
X142106261Y-110071159D01*
X142106261Y-110071159D02*
X142112309Y-109950207D01*
X142112309Y-109950207D02*
X142112309Y-109799016D01*
X142112309Y-109799016D02*
X142106261Y-109678064D01*
X142106261Y-109678064D02*
X142100214Y-109617588D01*
X142100214Y-109617588D02*
X142094166Y-109587350D01*
X142094166Y-109587350D02*
X142082071Y-109557112D01*
X141918786Y-110192112D02*
X141991357Y-110192112D01*
X141955071Y-110192112D02*
X141955071Y-109557112D01*
X141955071Y-109557112D02*
X141967167Y-109647826D01*
X141967167Y-109647826D02*
X141979262Y-109708302D01*
X141979262Y-109708302D02*
X141991357Y-109738540D01*
X142542887Y-97528188D02*
X142028840Y-97528188D01*
X142028840Y-97528188D02*
X141968364Y-97522141D01*
X141968364Y-97522141D02*
X141938126Y-97516093D01*
X141938126Y-97516093D02*
X141907887Y-97503998D01*
X141907887Y-97503998D02*
X141907887Y-97479807D01*
X141907887Y-97479807D02*
X141938126Y-97467712D01*
X141938126Y-97467712D02*
X141968364Y-97461665D01*
X141968364Y-97461665D02*
X142028840Y-97455617D01*
X142028840Y-97455617D02*
X142542887Y-97455617D01*
X142482411Y-97401188D02*
X142512649Y-97395140D01*
X142512649Y-97395140D02*
X142542887Y-97383045D01*
X142542887Y-97383045D02*
X142542887Y-97352807D01*
X142542887Y-97352807D02*
X142512649Y-97340712D01*
X142512649Y-97340712D02*
X142482411Y-97334664D01*
X142482411Y-97334664D02*
X142421935Y-97328617D01*
X142421935Y-97328617D02*
X142361459Y-97328617D01*
X142361459Y-97328617D02*
X142270745Y-97334664D01*
X142270745Y-97334664D02*
X141907887Y-97407236D01*
X141907887Y-97407236D02*
X141907887Y-97328617D01*
X142542887Y-97249998D02*
X142542887Y-97237903D01*
X142542887Y-97237903D02*
X142512649Y-97225807D01*
X142512649Y-97225807D02*
X142482411Y-97219760D01*
X142482411Y-97219760D02*
X142421935Y-97213712D01*
X142421935Y-97213712D02*
X142300983Y-97207665D01*
X142300983Y-97207665D02*
X142149792Y-97207665D01*
X142149792Y-97207665D02*
X142028840Y-97213712D01*
X142028840Y-97213712D02*
X141968364Y-97219760D01*
X141968364Y-97219760D02*
X141938126Y-97225807D01*
X141938126Y-97225807D02*
X141907887Y-97237903D01*
X141907887Y-97237903D02*
X141907887Y-97249998D01*
X141907887Y-97249998D02*
X141938126Y-97262093D01*
X141938126Y-97262093D02*
X141968364Y-97268141D01*
X141968364Y-97268141D02*
X142028840Y-97274188D01*
X142028840Y-97274188D02*
X142149792Y-97280236D01*
X142149792Y-97280236D02*
X142300983Y-97280236D01*
X142300983Y-97280236D02*
X142421935Y-97274188D01*
X142421935Y-97274188D02*
X142482411Y-97268141D01*
X142482411Y-97268141D02*
X142512649Y-97262093D01*
X142512649Y-97262093D02*
X142542887Y-97249998D01*
X142542887Y-97129046D02*
X142542887Y-97116951D01*
X142542887Y-97116951D02*
X142512649Y-97104855D01*
X142512649Y-97104855D02*
X142482411Y-97098808D01*
X142482411Y-97098808D02*
X142421935Y-97092760D01*
X142421935Y-97092760D02*
X142300983Y-97086713D01*
X142300983Y-97086713D02*
X142149792Y-97086713D01*
X142149792Y-97086713D02*
X142028840Y-97092760D01*
X142028840Y-97092760D02*
X141968364Y-97098808D01*
X141968364Y-97098808D02*
X141938126Y-97104855D01*
X141938126Y-97104855D02*
X141907887Y-97116951D01*
X141907887Y-97116951D02*
X141907887Y-97129046D01*
X141907887Y-97129046D02*
X141938126Y-97141141D01*
X141938126Y-97141141D02*
X141968364Y-97147189D01*
X141968364Y-97147189D02*
X142028840Y-97153236D01*
X142028840Y-97153236D02*
X142149792Y-97159284D01*
X142149792Y-97159284D02*
X142300983Y-97159284D01*
X142300983Y-97159284D02*
X142421935Y-97153236D01*
X142421935Y-97153236D02*
X142482411Y-97147189D01*
X142482411Y-97147189D02*
X142512649Y-97141141D01*
X142512649Y-97141141D02*
X142542887Y-97129046D01*
X142331221Y-96977856D02*
X141907887Y-96977856D01*
X142573126Y-97008094D02*
X142119554Y-97038332D01*
X142119554Y-97038332D02*
X142119554Y-96959713D01*
X130282594Y-109631635D02*
X130288642Y-109661874D01*
X130288642Y-109661874D02*
X130306784Y-109692112D01*
X130306784Y-109692112D02*
X130318880Y-109692112D01*
X130318880Y-109692112D02*
X130337023Y-109661874D01*
X130337023Y-109661874D02*
X130349118Y-109601397D01*
X130349118Y-109601397D02*
X130355165Y-109540921D01*
X130355165Y-109540921D02*
X130361213Y-109419969D01*
X130361213Y-109419969D02*
X130361213Y-109329254D01*
X130361213Y-109329254D02*
X130355165Y-109208302D01*
X130355165Y-109208302D02*
X130349118Y-109147826D01*
X130349118Y-109147826D02*
X130337023Y-109087350D01*
X130337023Y-109087350D02*
X130318880Y-109057112D01*
X130318880Y-109057112D02*
X130306784Y-109057112D01*
X130306784Y-109057112D02*
X130288642Y-109087350D01*
X130288642Y-109087350D02*
X130282594Y-109117588D01*
X130173737Y-109268778D02*
X130173737Y-109692112D01*
X130203975Y-109026874D02*
X130234213Y-109480445D01*
X130234213Y-109480445D02*
X130155594Y-109480445D01*
X130083023Y-109057112D02*
X130070928Y-109057112D01*
X130070928Y-109057112D02*
X130058832Y-109087350D01*
X130058832Y-109087350D02*
X130052785Y-109117588D01*
X130052785Y-109117588D02*
X130046737Y-109178064D01*
X130046737Y-109178064D02*
X130040690Y-109299016D01*
X130040690Y-109299016D02*
X130040690Y-109450207D01*
X130040690Y-109450207D02*
X130046737Y-109571159D01*
X130046737Y-109571159D02*
X130052785Y-109631635D01*
X130052785Y-109631635D02*
X130058832Y-109661874D01*
X130058832Y-109661874D02*
X130070928Y-109692112D01*
X130070928Y-109692112D02*
X130083023Y-109692112D01*
X130083023Y-109692112D02*
X130095118Y-109661874D01*
X130095118Y-109661874D02*
X130101166Y-109631635D01*
X130101166Y-109631635D02*
X130107213Y-109571159D01*
X130107213Y-109571159D02*
X130113261Y-109450207D01*
X130113261Y-109450207D02*
X130113261Y-109299016D01*
X130113261Y-109299016D02*
X130107213Y-109178064D01*
X130107213Y-109178064D02*
X130101166Y-109117588D01*
X130101166Y-109117588D02*
X130095118Y-109087350D01*
X130095118Y-109087350D02*
X130083023Y-109057112D01*
X129962071Y-109057112D02*
X129949976Y-109057112D01*
X129949976Y-109057112D02*
X129937880Y-109087350D01*
X129937880Y-109087350D02*
X129931833Y-109117588D01*
X129931833Y-109117588D02*
X129925785Y-109178064D01*
X129925785Y-109178064D02*
X129919738Y-109299016D01*
X129919738Y-109299016D02*
X129919738Y-109450207D01*
X129919738Y-109450207D02*
X129925785Y-109571159D01*
X129925785Y-109571159D02*
X129931833Y-109631635D01*
X129931833Y-109631635D02*
X129937880Y-109661874D01*
X129937880Y-109661874D02*
X129949976Y-109692112D01*
X129949976Y-109692112D02*
X129962071Y-109692112D01*
X129962071Y-109692112D02*
X129974166Y-109661874D01*
X129974166Y-109661874D02*
X129980214Y-109631635D01*
X129980214Y-109631635D02*
X129986261Y-109571159D01*
X129986261Y-109571159D02*
X129992309Y-109450207D01*
X129992309Y-109450207D02*
X129992309Y-109299016D01*
X129992309Y-109299016D02*
X129986261Y-109178064D01*
X129986261Y-109178064D02*
X129980214Y-109117588D01*
X129980214Y-109117588D02*
X129974166Y-109087350D01*
X129974166Y-109087350D02*
X129962071Y-109057112D01*
X129877405Y-109057112D02*
X129798786Y-109057112D01*
X129798786Y-109057112D02*
X129841119Y-109299016D01*
X129841119Y-109299016D02*
X129822976Y-109299016D01*
X129822976Y-109299016D02*
X129810881Y-109329254D01*
X129810881Y-109329254D02*
X129804833Y-109359493D01*
X129804833Y-109359493D02*
X129798786Y-109419969D01*
X129798786Y-109419969D02*
X129798786Y-109571159D01*
X129798786Y-109571159D02*
X129804833Y-109631635D01*
X129804833Y-109631635D02*
X129810881Y-109661874D01*
X129810881Y-109661874D02*
X129822976Y-109692112D01*
X129822976Y-109692112D02*
X129859262Y-109692112D01*
X129859262Y-109692112D02*
X129871357Y-109661874D01*
X129871357Y-109661874D02*
X129877405Y-109631635D01*
X144631635Y-108997405D02*
X144661874Y-108991357D01*
X144661874Y-108991357D02*
X144692112Y-108973215D01*
X144692112Y-108973215D02*
X144692112Y-108961119D01*
X144692112Y-108961119D02*
X144661874Y-108942976D01*
X144661874Y-108942976D02*
X144601397Y-108930881D01*
X144601397Y-108930881D02*
X144540921Y-108924834D01*
X144540921Y-108924834D02*
X144419969Y-108918786D01*
X144419969Y-108918786D02*
X144329254Y-108918786D01*
X144329254Y-108918786D02*
X144208302Y-108924834D01*
X144208302Y-108924834D02*
X144147826Y-108930881D01*
X144147826Y-108930881D02*
X144087350Y-108942976D01*
X144087350Y-108942976D02*
X144057112Y-108961119D01*
X144057112Y-108961119D02*
X144057112Y-108973215D01*
X144057112Y-108973215D02*
X144087350Y-108991357D01*
X144087350Y-108991357D02*
X144117588Y-108997405D01*
X144057112Y-109112310D02*
X144057112Y-109051834D01*
X144057112Y-109051834D02*
X144359493Y-109045786D01*
X144359493Y-109045786D02*
X144329254Y-109051834D01*
X144329254Y-109051834D02*
X144299016Y-109063929D01*
X144299016Y-109063929D02*
X144299016Y-109094167D01*
X144299016Y-109094167D02*
X144329254Y-109106262D01*
X144329254Y-109106262D02*
X144359493Y-109112310D01*
X144359493Y-109112310D02*
X144419969Y-109118357D01*
X144419969Y-109118357D02*
X144571159Y-109118357D01*
X144571159Y-109118357D02*
X144631635Y-109112310D01*
X144631635Y-109112310D02*
X144661874Y-109106262D01*
X144661874Y-109106262D02*
X144692112Y-109094167D01*
X144692112Y-109094167D02*
X144692112Y-109063929D01*
X144692112Y-109063929D02*
X144661874Y-109051834D01*
X144661874Y-109051834D02*
X144631635Y-109045786D01*
X144057112Y-109196976D02*
X144057112Y-109209071D01*
X144057112Y-109209071D02*
X144087350Y-109221167D01*
X144087350Y-109221167D02*
X144117588Y-109227214D01*
X144117588Y-109227214D02*
X144178064Y-109233262D01*
X144178064Y-109233262D02*
X144299016Y-109239309D01*
X144299016Y-109239309D02*
X144450207Y-109239309D01*
X144450207Y-109239309D02*
X144571159Y-109233262D01*
X144571159Y-109233262D02*
X144631635Y-109227214D01*
X144631635Y-109227214D02*
X144661874Y-109221167D01*
X144661874Y-109221167D02*
X144692112Y-109209071D01*
X144692112Y-109209071D02*
X144692112Y-109196976D01*
X144692112Y-109196976D02*
X144661874Y-109184881D01*
X144661874Y-109184881D02*
X144631635Y-109178833D01*
X144631635Y-109178833D02*
X144571159Y-109172786D01*
X144571159Y-109172786D02*
X144450207Y-109166738D01*
X144450207Y-109166738D02*
X144299016Y-109166738D01*
X144299016Y-109166738D02*
X144178064Y-109172786D01*
X144178064Y-109172786D02*
X144117588Y-109178833D01*
X144117588Y-109178833D02*
X144087350Y-109184881D01*
X144087350Y-109184881D02*
X144057112Y-109196976D01*
X144057112Y-109317928D02*
X144057112Y-109330023D01*
X144057112Y-109330023D02*
X144087350Y-109342119D01*
X144087350Y-109342119D02*
X144117588Y-109348166D01*
X144117588Y-109348166D02*
X144178064Y-109354214D01*
X144178064Y-109354214D02*
X144299016Y-109360261D01*
X144299016Y-109360261D02*
X144450207Y-109360261D01*
X144450207Y-109360261D02*
X144571159Y-109354214D01*
X144571159Y-109354214D02*
X144631635Y-109348166D01*
X144631635Y-109348166D02*
X144661874Y-109342119D01*
X144661874Y-109342119D02*
X144692112Y-109330023D01*
X144692112Y-109330023D02*
X144692112Y-109317928D01*
X144692112Y-109317928D02*
X144661874Y-109305833D01*
X144661874Y-109305833D02*
X144631635Y-109299785D01*
X144631635Y-109299785D02*
X144571159Y-109293738D01*
X144571159Y-109293738D02*
X144450207Y-109287690D01*
X144450207Y-109287690D02*
X144299016Y-109287690D01*
X144299016Y-109287690D02*
X144178064Y-109293738D01*
X144178064Y-109293738D02*
X144117588Y-109299785D01*
X144117588Y-109299785D02*
X144087350Y-109305833D01*
X144087350Y-109305833D02*
X144057112Y-109317928D01*
X144692112Y-109481213D02*
X144692112Y-109408642D01*
X144692112Y-109444928D02*
X144057112Y-109444928D01*
X144057112Y-109444928D02*
X144147826Y-109432832D01*
X144147826Y-109432832D02*
X144208302Y-109420737D01*
X144208302Y-109420737D02*
X144238540Y-109408642D01*
X148187261Y-104157112D02*
X148187261Y-104610683D01*
X148187261Y-104610683D02*
X148193308Y-104701397D01*
X148193308Y-104701397D02*
X148205404Y-104761874D01*
X148205404Y-104761874D02*
X148223546Y-104792112D01*
X148223546Y-104792112D02*
X148235642Y-104792112D01*
X148126784Y-104792112D02*
X148126784Y-104157112D01*
X148126784Y-104157112D02*
X148078403Y-104157112D01*
X148078403Y-104157112D02*
X148066308Y-104187350D01*
X148066308Y-104187350D02*
X148060261Y-104217588D01*
X148060261Y-104217588D02*
X148054213Y-104278064D01*
X148054213Y-104278064D02*
X148054213Y-104368778D01*
X148054213Y-104368778D02*
X148060261Y-104429254D01*
X148060261Y-104429254D02*
X148066308Y-104459493D01*
X148066308Y-104459493D02*
X148078403Y-104489731D01*
X148078403Y-104489731D02*
X148126784Y-104489731D01*
X148005832Y-104217588D02*
X147999784Y-104187350D01*
X147999784Y-104187350D02*
X147987689Y-104157112D01*
X147987689Y-104157112D02*
X147957451Y-104157112D01*
X147957451Y-104157112D02*
X147945356Y-104187350D01*
X147945356Y-104187350D02*
X147939308Y-104217588D01*
X147939308Y-104217588D02*
X147933261Y-104278064D01*
X147933261Y-104278064D02*
X147933261Y-104338540D01*
X147933261Y-104338540D02*
X147939308Y-104429254D01*
X147939308Y-104429254D02*
X148011880Y-104792112D01*
X148011880Y-104792112D02*
X147933261Y-104792112D01*
X147854642Y-104157112D02*
X147842547Y-104157112D01*
X147842547Y-104157112D02*
X147830451Y-104187350D01*
X147830451Y-104187350D02*
X147824404Y-104217588D01*
X147824404Y-104217588D02*
X147818356Y-104278064D01*
X147818356Y-104278064D02*
X147812309Y-104399016D01*
X147812309Y-104399016D02*
X147812309Y-104550207D01*
X147812309Y-104550207D02*
X147818356Y-104671159D01*
X147818356Y-104671159D02*
X147824404Y-104731635D01*
X147824404Y-104731635D02*
X147830451Y-104761874D01*
X147830451Y-104761874D02*
X147842547Y-104792112D01*
X147842547Y-104792112D02*
X147854642Y-104792112D01*
X147854642Y-104792112D02*
X147866737Y-104761874D01*
X147866737Y-104761874D02*
X147872785Y-104731635D01*
X147872785Y-104731635D02*
X147878832Y-104671159D01*
X147878832Y-104671159D02*
X147884880Y-104550207D01*
X147884880Y-104550207D02*
X147884880Y-104399016D01*
X147884880Y-104399016D02*
X147878832Y-104278064D01*
X147878832Y-104278064D02*
X147872785Y-104217588D01*
X147872785Y-104217588D02*
X147866737Y-104187350D01*
X147866737Y-104187350D02*
X147854642Y-104157112D01*
X147733690Y-104157112D02*
X147721595Y-104157112D01*
X147721595Y-104157112D02*
X147709499Y-104187350D01*
X147709499Y-104187350D02*
X147703452Y-104217588D01*
X147703452Y-104217588D02*
X147697404Y-104278064D01*
X147697404Y-104278064D02*
X147691357Y-104399016D01*
X147691357Y-104399016D02*
X147691357Y-104550207D01*
X147691357Y-104550207D02*
X147697404Y-104671159D01*
X147697404Y-104671159D02*
X147703452Y-104731635D01*
X147703452Y-104731635D02*
X147709499Y-104761874D01*
X147709499Y-104761874D02*
X147721595Y-104792112D01*
X147721595Y-104792112D02*
X147733690Y-104792112D01*
X147733690Y-104792112D02*
X147745785Y-104761874D01*
X147745785Y-104761874D02*
X147751833Y-104731635D01*
X147751833Y-104731635D02*
X147757880Y-104671159D01*
X147757880Y-104671159D02*
X147763928Y-104550207D01*
X147763928Y-104550207D02*
X147763928Y-104399016D01*
X147763928Y-104399016D02*
X147757880Y-104278064D01*
X147757880Y-104278064D02*
X147751833Y-104217588D01*
X147751833Y-104217588D02*
X147745785Y-104187350D01*
X147745785Y-104187350D02*
X147733690Y-104157112D01*
X147642976Y-104217588D02*
X147636928Y-104187350D01*
X147636928Y-104187350D02*
X147624833Y-104157112D01*
X147624833Y-104157112D02*
X147594595Y-104157112D01*
X147594595Y-104157112D02*
X147582500Y-104187350D01*
X147582500Y-104187350D02*
X147576452Y-104217588D01*
X147576452Y-104217588D02*
X147570405Y-104278064D01*
X147570405Y-104278064D02*
X147570405Y-104338540D01*
X147570405Y-104338540D02*
X147576452Y-104429254D01*
X147576452Y-104429254D02*
X147649024Y-104792112D01*
X147649024Y-104792112D02*
X147570405Y-104792112D01*
X159002594Y-106692112D02*
X159044927Y-106389731D01*
X159075165Y-106692112D02*
X159075165Y-106057112D01*
X159075165Y-106057112D02*
X159026784Y-106057112D01*
X159026784Y-106057112D02*
X159014689Y-106087350D01*
X159014689Y-106087350D02*
X159008642Y-106117588D01*
X159008642Y-106117588D02*
X159002594Y-106178064D01*
X159002594Y-106178064D02*
X159002594Y-106268778D01*
X159002594Y-106268778D02*
X159008642Y-106329254D01*
X159008642Y-106329254D02*
X159014689Y-106359493D01*
X159014689Y-106359493D02*
X159026784Y-106389731D01*
X159026784Y-106389731D02*
X159075165Y-106389731D01*
X158881642Y-106692112D02*
X158954213Y-106692112D01*
X158917927Y-106692112D02*
X158917927Y-106057112D01*
X158917927Y-106057112D02*
X158930023Y-106147826D01*
X158930023Y-106147826D02*
X158942118Y-106208302D01*
X158942118Y-106208302D02*
X158954213Y-106238540D01*
X158803023Y-106057112D02*
X158790928Y-106057112D01*
X158790928Y-106057112D02*
X158778832Y-106087350D01*
X158778832Y-106087350D02*
X158772785Y-106117588D01*
X158772785Y-106117588D02*
X158766737Y-106178064D01*
X158766737Y-106178064D02*
X158760690Y-106299016D01*
X158760690Y-106299016D02*
X158760690Y-106450207D01*
X158760690Y-106450207D02*
X158766737Y-106571159D01*
X158766737Y-106571159D02*
X158772785Y-106631635D01*
X158772785Y-106631635D02*
X158778832Y-106661874D01*
X158778832Y-106661874D02*
X158790928Y-106692112D01*
X158790928Y-106692112D02*
X158803023Y-106692112D01*
X158803023Y-106692112D02*
X158815118Y-106661874D01*
X158815118Y-106661874D02*
X158821166Y-106631635D01*
X158821166Y-106631635D02*
X158827213Y-106571159D01*
X158827213Y-106571159D02*
X158833261Y-106450207D01*
X158833261Y-106450207D02*
X158833261Y-106299016D01*
X158833261Y-106299016D02*
X158827213Y-106178064D01*
X158827213Y-106178064D02*
X158821166Y-106117588D01*
X158821166Y-106117588D02*
X158815118Y-106087350D01*
X158815118Y-106087350D02*
X158803023Y-106057112D01*
X158682071Y-106057112D02*
X158669976Y-106057112D01*
X158669976Y-106057112D02*
X158657880Y-106087350D01*
X158657880Y-106087350D02*
X158651833Y-106117588D01*
X158651833Y-106117588D02*
X158645785Y-106178064D01*
X158645785Y-106178064D02*
X158639738Y-106299016D01*
X158639738Y-106299016D02*
X158639738Y-106450207D01*
X158639738Y-106450207D02*
X158645785Y-106571159D01*
X158645785Y-106571159D02*
X158651833Y-106631635D01*
X158651833Y-106631635D02*
X158657880Y-106661874D01*
X158657880Y-106661874D02*
X158669976Y-106692112D01*
X158669976Y-106692112D02*
X158682071Y-106692112D01*
X158682071Y-106692112D02*
X158694166Y-106661874D01*
X158694166Y-106661874D02*
X158700214Y-106631635D01*
X158700214Y-106631635D02*
X158706261Y-106571159D01*
X158706261Y-106571159D02*
X158712309Y-106450207D01*
X158712309Y-106450207D02*
X158712309Y-106299016D01*
X158712309Y-106299016D02*
X158706261Y-106178064D01*
X158706261Y-106178064D02*
X158700214Y-106117588D01*
X158700214Y-106117588D02*
X158694166Y-106087350D01*
X158694166Y-106087350D02*
X158682071Y-106057112D01*
X158597405Y-106057112D02*
X158518786Y-106057112D01*
X158518786Y-106057112D02*
X158561119Y-106299016D01*
X158561119Y-106299016D02*
X158542976Y-106299016D01*
X158542976Y-106299016D02*
X158530881Y-106329254D01*
X158530881Y-106329254D02*
X158524833Y-106359493D01*
X158524833Y-106359493D02*
X158518786Y-106419969D01*
X158518786Y-106419969D02*
X158518786Y-106571159D01*
X158518786Y-106571159D02*
X158524833Y-106631635D01*
X158524833Y-106631635D02*
X158530881Y-106661874D01*
X158530881Y-106661874D02*
X158542976Y-106692112D01*
X158542976Y-106692112D02*
X158579262Y-106692112D01*
X158579262Y-106692112D02*
X158591357Y-106661874D01*
X158591357Y-106661874D02*
X158597405Y-106631635D01*
X152331635Y-102897405D02*
X152361874Y-102891357D01*
X152361874Y-102891357D02*
X152392112Y-102873215D01*
X152392112Y-102873215D02*
X152392112Y-102861119D01*
X152392112Y-102861119D02*
X152361874Y-102842976D01*
X152361874Y-102842976D02*
X152301397Y-102830881D01*
X152301397Y-102830881D02*
X152240921Y-102824834D01*
X152240921Y-102824834D02*
X152119969Y-102818786D01*
X152119969Y-102818786D02*
X152029254Y-102818786D01*
X152029254Y-102818786D02*
X151908302Y-102824834D01*
X151908302Y-102824834D02*
X151847826Y-102830881D01*
X151847826Y-102830881D02*
X151787350Y-102842976D01*
X151787350Y-102842976D02*
X151757112Y-102861119D01*
X151757112Y-102861119D02*
X151757112Y-102873215D01*
X151757112Y-102873215D02*
X151787350Y-102891357D01*
X151787350Y-102891357D02*
X151817588Y-102897405D01*
X151817588Y-102945786D02*
X151787350Y-102951834D01*
X151787350Y-102951834D02*
X151757112Y-102963929D01*
X151757112Y-102963929D02*
X151757112Y-102994167D01*
X151757112Y-102994167D02*
X151787350Y-103006262D01*
X151787350Y-103006262D02*
X151817588Y-103012310D01*
X151817588Y-103012310D02*
X151878064Y-103018357D01*
X151878064Y-103018357D02*
X151938540Y-103018357D01*
X151938540Y-103018357D02*
X152029254Y-103012310D01*
X152029254Y-103012310D02*
X152392112Y-102939738D01*
X152392112Y-102939738D02*
X152392112Y-103018357D01*
X151757112Y-103096976D02*
X151757112Y-103109071D01*
X151757112Y-103109071D02*
X151787350Y-103121167D01*
X151787350Y-103121167D02*
X151817588Y-103127214D01*
X151817588Y-103127214D02*
X151878064Y-103133262D01*
X151878064Y-103133262D02*
X151999016Y-103139309D01*
X151999016Y-103139309D02*
X152150207Y-103139309D01*
X152150207Y-103139309D02*
X152271159Y-103133262D01*
X152271159Y-103133262D02*
X152331635Y-103127214D01*
X152331635Y-103127214D02*
X152361874Y-103121167D01*
X152361874Y-103121167D02*
X152392112Y-103109071D01*
X152392112Y-103109071D02*
X152392112Y-103096976D01*
X152392112Y-103096976D02*
X152361874Y-103084881D01*
X152361874Y-103084881D02*
X152331635Y-103078833D01*
X152331635Y-103078833D02*
X152271159Y-103072786D01*
X152271159Y-103072786D02*
X152150207Y-103066738D01*
X152150207Y-103066738D02*
X151999016Y-103066738D01*
X151999016Y-103066738D02*
X151878064Y-103072786D01*
X151878064Y-103072786D02*
X151817588Y-103078833D01*
X151817588Y-103078833D02*
X151787350Y-103084881D01*
X151787350Y-103084881D02*
X151757112Y-103096976D01*
X151757112Y-103217928D02*
X151757112Y-103230023D01*
X151757112Y-103230023D02*
X151787350Y-103242119D01*
X151787350Y-103242119D02*
X151817588Y-103248166D01*
X151817588Y-103248166D02*
X151878064Y-103254214D01*
X151878064Y-103254214D02*
X151999016Y-103260261D01*
X151999016Y-103260261D02*
X152150207Y-103260261D01*
X152150207Y-103260261D02*
X152271159Y-103254214D01*
X152271159Y-103254214D02*
X152331635Y-103248166D01*
X152331635Y-103248166D02*
X152361874Y-103242119D01*
X152361874Y-103242119D02*
X152392112Y-103230023D01*
X152392112Y-103230023D02*
X152392112Y-103217928D01*
X152392112Y-103217928D02*
X152361874Y-103205833D01*
X152361874Y-103205833D02*
X152331635Y-103199785D01*
X152331635Y-103199785D02*
X152271159Y-103193738D01*
X152271159Y-103193738D02*
X152150207Y-103187690D01*
X152150207Y-103187690D02*
X151999016Y-103187690D01*
X151999016Y-103187690D02*
X151878064Y-103193738D01*
X151878064Y-103193738D02*
X151817588Y-103199785D01*
X151817588Y-103199785D02*
X151787350Y-103205833D01*
X151787350Y-103205833D02*
X151757112Y-103217928D01*
X151757112Y-103375166D02*
X151757112Y-103314690D01*
X151757112Y-103314690D02*
X152059493Y-103308642D01*
X152059493Y-103308642D02*
X152029254Y-103314690D01*
X152029254Y-103314690D02*
X151999016Y-103326785D01*
X151999016Y-103326785D02*
X151999016Y-103357023D01*
X151999016Y-103357023D02*
X152029254Y-103369118D01*
X152029254Y-103369118D02*
X152059493Y-103375166D01*
X152059493Y-103375166D02*
X152119969Y-103381213D01*
X152119969Y-103381213D02*
X152271159Y-103381213D01*
X152271159Y-103381213D02*
X152331635Y-103375166D01*
X152331635Y-103375166D02*
X152361874Y-103369118D01*
X152361874Y-103369118D02*
X152392112Y-103357023D01*
X152392112Y-103357023D02*
X152392112Y-103326785D01*
X152392112Y-103326785D02*
X152361874Y-103314690D01*
X152361874Y-103314690D02*
X152331635Y-103308642D01*
X143192112Y-93997405D02*
X142889731Y-93955072D01*
X143192112Y-93924834D02*
X142557112Y-93924834D01*
X142557112Y-93924834D02*
X142557112Y-93973215D01*
X142557112Y-93973215D02*
X142587350Y-93985310D01*
X142587350Y-93985310D02*
X142617588Y-93991357D01*
X142617588Y-93991357D02*
X142678064Y-93997405D01*
X142678064Y-93997405D02*
X142768778Y-93997405D01*
X142768778Y-93997405D02*
X142829254Y-93991357D01*
X142829254Y-93991357D02*
X142859493Y-93985310D01*
X142859493Y-93985310D02*
X142889731Y-93973215D01*
X142889731Y-93973215D02*
X142889731Y-93924834D01*
X142617588Y-94045786D02*
X142587350Y-94051834D01*
X142587350Y-94051834D02*
X142557112Y-94063929D01*
X142557112Y-94063929D02*
X142557112Y-94094167D01*
X142557112Y-94094167D02*
X142587350Y-94106262D01*
X142587350Y-94106262D02*
X142617588Y-94112310D01*
X142617588Y-94112310D02*
X142678064Y-94118357D01*
X142678064Y-94118357D02*
X142738540Y-94118357D01*
X142738540Y-94118357D02*
X142829254Y-94112310D01*
X142829254Y-94112310D02*
X143192112Y-94039738D01*
X143192112Y-94039738D02*
X143192112Y-94118357D01*
X142557112Y-94196976D02*
X142557112Y-94209071D01*
X142557112Y-94209071D02*
X142587350Y-94221167D01*
X142587350Y-94221167D02*
X142617588Y-94227214D01*
X142617588Y-94227214D02*
X142678064Y-94233262D01*
X142678064Y-94233262D02*
X142799016Y-94239309D01*
X142799016Y-94239309D02*
X142950207Y-94239309D01*
X142950207Y-94239309D02*
X143071159Y-94233262D01*
X143071159Y-94233262D02*
X143131635Y-94227214D01*
X143131635Y-94227214D02*
X143161874Y-94221167D01*
X143161874Y-94221167D02*
X143192112Y-94209071D01*
X143192112Y-94209071D02*
X143192112Y-94196976D01*
X143192112Y-94196976D02*
X143161874Y-94184881D01*
X143161874Y-94184881D02*
X143131635Y-94178833D01*
X143131635Y-94178833D02*
X143071159Y-94172786D01*
X143071159Y-94172786D02*
X142950207Y-94166738D01*
X142950207Y-94166738D02*
X142799016Y-94166738D01*
X142799016Y-94166738D02*
X142678064Y-94172786D01*
X142678064Y-94172786D02*
X142617588Y-94178833D01*
X142617588Y-94178833D02*
X142587350Y-94184881D01*
X142587350Y-94184881D02*
X142557112Y-94196976D01*
X143192112Y-94360261D02*
X143192112Y-94287690D01*
X143192112Y-94323976D02*
X142557112Y-94323976D01*
X142557112Y-94323976D02*
X142647826Y-94311880D01*
X142647826Y-94311880D02*
X142708302Y-94299785D01*
X142708302Y-94299785D02*
X142738540Y-94287690D01*
X142768778Y-94469118D02*
X143192112Y-94469118D01*
X142526874Y-94438880D02*
X142980445Y-94408642D01*
X142980445Y-94408642D02*
X142980445Y-94487261D01*
X143878189Y-86757112D02*
X143878189Y-87271159D01*
X143878189Y-87271159D02*
X143872142Y-87331635D01*
X143872142Y-87331635D02*
X143866094Y-87361874D01*
X143866094Y-87361874D02*
X143853999Y-87392112D01*
X143853999Y-87392112D02*
X143829808Y-87392112D01*
X143829808Y-87392112D02*
X143817713Y-87361874D01*
X143817713Y-87361874D02*
X143811666Y-87331635D01*
X143811666Y-87331635D02*
X143805618Y-87271159D01*
X143805618Y-87271159D02*
X143805618Y-86757112D01*
X143751189Y-86817588D02*
X143745141Y-86787350D01*
X143745141Y-86787350D02*
X143733046Y-86757112D01*
X143733046Y-86757112D02*
X143702808Y-86757112D01*
X143702808Y-86757112D02*
X143690713Y-86787350D01*
X143690713Y-86787350D02*
X143684665Y-86817588D01*
X143684665Y-86817588D02*
X143678618Y-86878064D01*
X143678618Y-86878064D02*
X143678618Y-86938540D01*
X143678618Y-86938540D02*
X143684665Y-87029254D01*
X143684665Y-87029254D02*
X143757237Y-87392112D01*
X143757237Y-87392112D02*
X143678618Y-87392112D01*
X143599999Y-86757112D02*
X143587904Y-86757112D01*
X143587904Y-86757112D02*
X143575808Y-86787350D01*
X143575808Y-86787350D02*
X143569761Y-86817588D01*
X143569761Y-86817588D02*
X143563713Y-86878064D01*
X143563713Y-86878064D02*
X143557666Y-86999016D01*
X143557666Y-86999016D02*
X143557666Y-87150207D01*
X143557666Y-87150207D02*
X143563713Y-87271159D01*
X143563713Y-87271159D02*
X143569761Y-87331635D01*
X143569761Y-87331635D02*
X143575808Y-87361874D01*
X143575808Y-87361874D02*
X143587904Y-87392112D01*
X143587904Y-87392112D02*
X143599999Y-87392112D01*
X143599999Y-87392112D02*
X143612094Y-87361874D01*
X143612094Y-87361874D02*
X143618142Y-87331635D01*
X143618142Y-87331635D02*
X143624189Y-87271159D01*
X143624189Y-87271159D02*
X143630237Y-87150207D01*
X143630237Y-87150207D02*
X143630237Y-86999016D01*
X143630237Y-86999016D02*
X143624189Y-86878064D01*
X143624189Y-86878064D02*
X143618142Y-86817588D01*
X143618142Y-86817588D02*
X143612094Y-86787350D01*
X143612094Y-86787350D02*
X143599999Y-86757112D01*
X143479047Y-86757112D02*
X143466952Y-86757112D01*
X143466952Y-86757112D02*
X143454856Y-86787350D01*
X143454856Y-86787350D02*
X143448809Y-86817588D01*
X143448809Y-86817588D02*
X143442761Y-86878064D01*
X143442761Y-86878064D02*
X143436714Y-86999016D01*
X143436714Y-86999016D02*
X143436714Y-87150207D01*
X143436714Y-87150207D02*
X143442761Y-87271159D01*
X143442761Y-87271159D02*
X143448809Y-87331635D01*
X143448809Y-87331635D02*
X143454856Y-87361874D01*
X143454856Y-87361874D02*
X143466952Y-87392112D01*
X143466952Y-87392112D02*
X143479047Y-87392112D01*
X143479047Y-87392112D02*
X143491142Y-87361874D01*
X143491142Y-87361874D02*
X143497190Y-87331635D01*
X143497190Y-87331635D02*
X143503237Y-87271159D01*
X143503237Y-87271159D02*
X143509285Y-87150207D01*
X143509285Y-87150207D02*
X143509285Y-86999016D01*
X143509285Y-86999016D02*
X143503237Y-86878064D01*
X143503237Y-86878064D02*
X143497190Y-86817588D01*
X143497190Y-86817588D02*
X143491142Y-86787350D01*
X143491142Y-86787350D02*
X143479047Y-86757112D01*
X143315762Y-87392112D02*
X143388333Y-87392112D01*
X143352047Y-87392112D02*
X143352047Y-86757112D01*
X143352047Y-86757112D02*
X143364143Y-86847826D01*
X143364143Y-86847826D02*
X143376238Y-86908302D01*
X143376238Y-86908302D02*
X143388333Y-86938540D01*
X143892112Y-93297405D02*
X143589731Y-93255072D01*
X143892112Y-93224834D02*
X143257112Y-93224834D01*
X143257112Y-93224834D02*
X143257112Y-93273215D01*
X143257112Y-93273215D02*
X143287350Y-93285310D01*
X143287350Y-93285310D02*
X143317588Y-93291357D01*
X143317588Y-93291357D02*
X143378064Y-93297405D01*
X143378064Y-93297405D02*
X143468778Y-93297405D01*
X143468778Y-93297405D02*
X143529254Y-93291357D01*
X143529254Y-93291357D02*
X143559493Y-93285310D01*
X143559493Y-93285310D02*
X143589731Y-93273215D01*
X143589731Y-93273215D02*
X143589731Y-93224834D01*
X143317588Y-93345786D02*
X143287350Y-93351834D01*
X143287350Y-93351834D02*
X143257112Y-93363929D01*
X143257112Y-93363929D02*
X143257112Y-93394167D01*
X143257112Y-93394167D02*
X143287350Y-93406262D01*
X143287350Y-93406262D02*
X143317588Y-93412310D01*
X143317588Y-93412310D02*
X143378064Y-93418357D01*
X143378064Y-93418357D02*
X143438540Y-93418357D01*
X143438540Y-93418357D02*
X143529254Y-93412310D01*
X143529254Y-93412310D02*
X143892112Y-93339738D01*
X143892112Y-93339738D02*
X143892112Y-93418357D01*
X143257112Y-93496976D02*
X143257112Y-93509071D01*
X143257112Y-93509071D02*
X143287350Y-93521167D01*
X143287350Y-93521167D02*
X143317588Y-93527214D01*
X143317588Y-93527214D02*
X143378064Y-93533262D01*
X143378064Y-93533262D02*
X143499016Y-93539309D01*
X143499016Y-93539309D02*
X143650207Y-93539309D01*
X143650207Y-93539309D02*
X143771159Y-93533262D01*
X143771159Y-93533262D02*
X143831635Y-93527214D01*
X143831635Y-93527214D02*
X143861874Y-93521167D01*
X143861874Y-93521167D02*
X143892112Y-93509071D01*
X143892112Y-93509071D02*
X143892112Y-93496976D01*
X143892112Y-93496976D02*
X143861874Y-93484881D01*
X143861874Y-93484881D02*
X143831635Y-93478833D01*
X143831635Y-93478833D02*
X143771159Y-93472786D01*
X143771159Y-93472786D02*
X143650207Y-93466738D01*
X143650207Y-93466738D02*
X143499016Y-93466738D01*
X143499016Y-93466738D02*
X143378064Y-93472786D01*
X143378064Y-93472786D02*
X143317588Y-93478833D01*
X143317588Y-93478833D02*
X143287350Y-93484881D01*
X143287350Y-93484881D02*
X143257112Y-93496976D01*
X143892112Y-93660261D02*
X143892112Y-93587690D01*
X143892112Y-93623976D02*
X143257112Y-93623976D01*
X143257112Y-93623976D02*
X143347826Y-93611880D01*
X143347826Y-93611880D02*
X143408302Y-93599785D01*
X143408302Y-93599785D02*
X143438540Y-93587690D01*
X143257112Y-93702594D02*
X143257112Y-93781213D01*
X143257112Y-93781213D02*
X143499016Y-93738880D01*
X143499016Y-93738880D02*
X143499016Y-93757023D01*
X143499016Y-93757023D02*
X143529254Y-93769118D01*
X143529254Y-93769118D02*
X143559493Y-93775166D01*
X143559493Y-93775166D02*
X143619969Y-93781213D01*
X143619969Y-93781213D02*
X143771159Y-93781213D01*
X143771159Y-93781213D02*
X143831635Y-93775166D01*
X143831635Y-93775166D02*
X143861874Y-93769118D01*
X143861874Y-93769118D02*
X143892112Y-93757023D01*
X143892112Y-93757023D02*
X143892112Y-93720737D01*
X143892112Y-93720737D02*
X143861874Y-93708642D01*
X143861874Y-93708642D02*
X143831635Y-93702594D01*
X142402594Y-99392112D02*
X142444927Y-99089731D01*
X142475165Y-99392112D02*
X142475165Y-98757112D01*
X142475165Y-98757112D02*
X142426784Y-98757112D01*
X142426784Y-98757112D02*
X142414689Y-98787350D01*
X142414689Y-98787350D02*
X142408642Y-98817588D01*
X142408642Y-98817588D02*
X142402594Y-98878064D01*
X142402594Y-98878064D02*
X142402594Y-98968778D01*
X142402594Y-98968778D02*
X142408642Y-99029254D01*
X142408642Y-99029254D02*
X142414689Y-99059493D01*
X142414689Y-99059493D02*
X142426784Y-99089731D01*
X142426784Y-99089731D02*
X142475165Y-99089731D01*
X142354213Y-98817588D02*
X142348165Y-98787350D01*
X142348165Y-98787350D02*
X142336070Y-98757112D01*
X142336070Y-98757112D02*
X142305832Y-98757112D01*
X142305832Y-98757112D02*
X142293737Y-98787350D01*
X142293737Y-98787350D02*
X142287689Y-98817588D01*
X142287689Y-98817588D02*
X142281642Y-98878064D01*
X142281642Y-98878064D02*
X142281642Y-98938540D01*
X142281642Y-98938540D02*
X142287689Y-99029254D01*
X142287689Y-99029254D02*
X142360261Y-99392112D01*
X142360261Y-99392112D02*
X142281642Y-99392112D01*
X142203023Y-98757112D02*
X142190928Y-98757112D01*
X142190928Y-98757112D02*
X142178832Y-98787350D01*
X142178832Y-98787350D02*
X142172785Y-98817588D01*
X142172785Y-98817588D02*
X142166737Y-98878064D01*
X142166737Y-98878064D02*
X142160690Y-98999016D01*
X142160690Y-98999016D02*
X142160690Y-99150207D01*
X142160690Y-99150207D02*
X142166737Y-99271159D01*
X142166737Y-99271159D02*
X142172785Y-99331635D01*
X142172785Y-99331635D02*
X142178832Y-99361874D01*
X142178832Y-99361874D02*
X142190928Y-99392112D01*
X142190928Y-99392112D02*
X142203023Y-99392112D01*
X142203023Y-99392112D02*
X142215118Y-99361874D01*
X142215118Y-99361874D02*
X142221166Y-99331635D01*
X142221166Y-99331635D02*
X142227213Y-99271159D01*
X142227213Y-99271159D02*
X142233261Y-99150207D01*
X142233261Y-99150207D02*
X142233261Y-98999016D01*
X142233261Y-98999016D02*
X142227213Y-98878064D01*
X142227213Y-98878064D02*
X142221166Y-98817588D01*
X142221166Y-98817588D02*
X142215118Y-98787350D01*
X142215118Y-98787350D02*
X142203023Y-98757112D01*
X142082071Y-98757112D02*
X142069976Y-98757112D01*
X142069976Y-98757112D02*
X142057880Y-98787350D01*
X142057880Y-98787350D02*
X142051833Y-98817588D01*
X142051833Y-98817588D02*
X142045785Y-98878064D01*
X142045785Y-98878064D02*
X142039738Y-98999016D01*
X142039738Y-98999016D02*
X142039738Y-99150207D01*
X142039738Y-99150207D02*
X142045785Y-99271159D01*
X142045785Y-99271159D02*
X142051833Y-99331635D01*
X142051833Y-99331635D02*
X142057880Y-99361874D01*
X142057880Y-99361874D02*
X142069976Y-99392112D01*
X142069976Y-99392112D02*
X142082071Y-99392112D01*
X142082071Y-99392112D02*
X142094166Y-99361874D01*
X142094166Y-99361874D02*
X142100214Y-99331635D01*
X142100214Y-99331635D02*
X142106261Y-99271159D01*
X142106261Y-99271159D02*
X142112309Y-99150207D01*
X142112309Y-99150207D02*
X142112309Y-98999016D01*
X142112309Y-98999016D02*
X142106261Y-98878064D01*
X142106261Y-98878064D02*
X142100214Y-98817588D01*
X142100214Y-98817588D02*
X142094166Y-98787350D01*
X142094166Y-98787350D02*
X142082071Y-98757112D01*
X141979262Y-99392112D02*
X141955071Y-99392112D01*
X141955071Y-99392112D02*
X141942976Y-99361874D01*
X141942976Y-99361874D02*
X141936928Y-99331635D01*
X141936928Y-99331635D02*
X141924833Y-99240921D01*
X141924833Y-99240921D02*
X141918786Y-99119969D01*
X141918786Y-99119969D02*
X141918786Y-98878064D01*
X141918786Y-98878064D02*
X141924833Y-98817588D01*
X141924833Y-98817588D02*
X141930881Y-98787350D01*
X141930881Y-98787350D02*
X141942976Y-98757112D01*
X141942976Y-98757112D02*
X141967167Y-98757112D01*
X141967167Y-98757112D02*
X141979262Y-98787350D01*
X141979262Y-98787350D02*
X141985309Y-98817588D01*
X141985309Y-98817588D02*
X141991357Y-98878064D01*
X141991357Y-98878064D02*
X141991357Y-99029254D01*
X141991357Y-99029254D02*
X141985309Y-99089731D01*
X141985309Y-99089731D02*
X141979262Y-99119969D01*
X141979262Y-99119969D02*
X141967167Y-99150207D01*
X141967167Y-99150207D02*
X141942976Y-99150207D01*
X141942976Y-99150207D02*
X141930881Y-99119969D01*
X141930881Y-99119969D02*
X141924833Y-99089731D01*
X141924833Y-99089731D02*
X141918786Y-99029254D01*
X126778189Y-116757112D02*
X126778189Y-117271159D01*
X126778189Y-117271159D02*
X126772142Y-117331635D01*
X126772142Y-117331635D02*
X126766094Y-117361874D01*
X126766094Y-117361874D02*
X126753999Y-117392112D01*
X126753999Y-117392112D02*
X126729808Y-117392112D01*
X126729808Y-117392112D02*
X126717713Y-117361874D01*
X126717713Y-117361874D02*
X126711666Y-117331635D01*
X126711666Y-117331635D02*
X126705618Y-117271159D01*
X126705618Y-117271159D02*
X126705618Y-116757112D01*
X126590713Y-116757112D02*
X126614903Y-116757112D01*
X126614903Y-116757112D02*
X126626999Y-116787350D01*
X126626999Y-116787350D02*
X126633046Y-116817588D01*
X126633046Y-116817588D02*
X126645141Y-116908302D01*
X126645141Y-116908302D02*
X126651189Y-117029254D01*
X126651189Y-117029254D02*
X126651189Y-117271159D01*
X126651189Y-117271159D02*
X126645141Y-117331635D01*
X126645141Y-117331635D02*
X126639094Y-117361874D01*
X126639094Y-117361874D02*
X126626999Y-117392112D01*
X126626999Y-117392112D02*
X126602808Y-117392112D01*
X126602808Y-117392112D02*
X126590713Y-117361874D01*
X126590713Y-117361874D02*
X126584665Y-117331635D01*
X126584665Y-117331635D02*
X126578618Y-117271159D01*
X126578618Y-117271159D02*
X126578618Y-117119969D01*
X126578618Y-117119969D02*
X126584665Y-117059493D01*
X126584665Y-117059493D02*
X126590713Y-117029254D01*
X126590713Y-117029254D02*
X126602808Y-116999016D01*
X126602808Y-116999016D02*
X126626999Y-116999016D01*
X126626999Y-116999016D02*
X126639094Y-117029254D01*
X126639094Y-117029254D02*
X126645141Y-117059493D01*
X126645141Y-117059493D02*
X126651189Y-117119969D01*
X126499999Y-116757112D02*
X126487904Y-116757112D01*
X126487904Y-116757112D02*
X126475808Y-116787350D01*
X126475808Y-116787350D02*
X126469761Y-116817588D01*
X126469761Y-116817588D02*
X126463713Y-116878064D01*
X126463713Y-116878064D02*
X126457666Y-116999016D01*
X126457666Y-116999016D02*
X126457666Y-117150207D01*
X126457666Y-117150207D02*
X126463713Y-117271159D01*
X126463713Y-117271159D02*
X126469761Y-117331635D01*
X126469761Y-117331635D02*
X126475808Y-117361874D01*
X126475808Y-117361874D02*
X126487904Y-117392112D01*
X126487904Y-117392112D02*
X126499999Y-117392112D01*
X126499999Y-117392112D02*
X126512094Y-117361874D01*
X126512094Y-117361874D02*
X126518142Y-117331635D01*
X126518142Y-117331635D02*
X126524189Y-117271159D01*
X126524189Y-117271159D02*
X126530237Y-117150207D01*
X126530237Y-117150207D02*
X126530237Y-116999016D01*
X126530237Y-116999016D02*
X126524189Y-116878064D01*
X126524189Y-116878064D02*
X126518142Y-116817588D01*
X126518142Y-116817588D02*
X126512094Y-116787350D01*
X126512094Y-116787350D02*
X126499999Y-116757112D01*
X126379047Y-116757112D02*
X126366952Y-116757112D01*
X126366952Y-116757112D02*
X126354856Y-116787350D01*
X126354856Y-116787350D02*
X126348809Y-116817588D01*
X126348809Y-116817588D02*
X126342761Y-116878064D01*
X126342761Y-116878064D02*
X126336714Y-116999016D01*
X126336714Y-116999016D02*
X126336714Y-117150207D01*
X126336714Y-117150207D02*
X126342761Y-117271159D01*
X126342761Y-117271159D02*
X126348809Y-117331635D01*
X126348809Y-117331635D02*
X126354856Y-117361874D01*
X126354856Y-117361874D02*
X126366952Y-117392112D01*
X126366952Y-117392112D02*
X126379047Y-117392112D01*
X126379047Y-117392112D02*
X126391142Y-117361874D01*
X126391142Y-117361874D02*
X126397190Y-117331635D01*
X126397190Y-117331635D02*
X126403237Y-117271159D01*
X126403237Y-117271159D02*
X126409285Y-117150207D01*
X126409285Y-117150207D02*
X126409285Y-116999016D01*
X126409285Y-116999016D02*
X126403237Y-116878064D01*
X126403237Y-116878064D02*
X126397190Y-116817588D01*
X126397190Y-116817588D02*
X126391142Y-116787350D01*
X126391142Y-116787350D02*
X126379047Y-116757112D01*
X126215762Y-117392112D02*
X126288333Y-117392112D01*
X126252047Y-117392112D02*
X126252047Y-116757112D01*
X126252047Y-116757112D02*
X126264143Y-116847826D01*
X126264143Y-116847826D02*
X126276238Y-116908302D01*
X126276238Y-116908302D02*
X126288333Y-116938540D01*
X156192112Y-96197405D02*
X155889731Y-96155072D01*
X156192112Y-96124834D02*
X155557112Y-96124834D01*
X155557112Y-96124834D02*
X155557112Y-96173215D01*
X155557112Y-96173215D02*
X155587350Y-96185310D01*
X155587350Y-96185310D02*
X155617588Y-96191357D01*
X155617588Y-96191357D02*
X155678064Y-96197405D01*
X155678064Y-96197405D02*
X155768778Y-96197405D01*
X155768778Y-96197405D02*
X155829254Y-96191357D01*
X155829254Y-96191357D02*
X155859493Y-96185310D01*
X155859493Y-96185310D02*
X155889731Y-96173215D01*
X155889731Y-96173215D02*
X155889731Y-96124834D01*
X155557112Y-96239738D02*
X155557112Y-96318357D01*
X155557112Y-96318357D02*
X155799016Y-96276024D01*
X155799016Y-96276024D02*
X155799016Y-96294167D01*
X155799016Y-96294167D02*
X155829254Y-96306262D01*
X155829254Y-96306262D02*
X155859493Y-96312310D01*
X155859493Y-96312310D02*
X155919969Y-96318357D01*
X155919969Y-96318357D02*
X156071159Y-96318357D01*
X156071159Y-96318357D02*
X156131635Y-96312310D01*
X156131635Y-96312310D02*
X156161874Y-96306262D01*
X156161874Y-96306262D02*
X156192112Y-96294167D01*
X156192112Y-96294167D02*
X156192112Y-96257881D01*
X156192112Y-96257881D02*
X156161874Y-96245786D01*
X156161874Y-96245786D02*
X156131635Y-96239738D01*
X155557112Y-96396976D02*
X155557112Y-96409071D01*
X155557112Y-96409071D02*
X155587350Y-96421167D01*
X155587350Y-96421167D02*
X155617588Y-96427214D01*
X155617588Y-96427214D02*
X155678064Y-96433262D01*
X155678064Y-96433262D02*
X155799016Y-96439309D01*
X155799016Y-96439309D02*
X155950207Y-96439309D01*
X155950207Y-96439309D02*
X156071159Y-96433262D01*
X156071159Y-96433262D02*
X156131635Y-96427214D01*
X156131635Y-96427214D02*
X156161874Y-96421167D01*
X156161874Y-96421167D02*
X156192112Y-96409071D01*
X156192112Y-96409071D02*
X156192112Y-96396976D01*
X156192112Y-96396976D02*
X156161874Y-96384881D01*
X156161874Y-96384881D02*
X156131635Y-96378833D01*
X156131635Y-96378833D02*
X156071159Y-96372786D01*
X156071159Y-96372786D02*
X155950207Y-96366738D01*
X155950207Y-96366738D02*
X155799016Y-96366738D01*
X155799016Y-96366738D02*
X155678064Y-96372786D01*
X155678064Y-96372786D02*
X155617588Y-96378833D01*
X155617588Y-96378833D02*
X155587350Y-96384881D01*
X155587350Y-96384881D02*
X155557112Y-96396976D01*
X155557112Y-96517928D02*
X155557112Y-96530023D01*
X155557112Y-96530023D02*
X155587350Y-96542119D01*
X155587350Y-96542119D02*
X155617588Y-96548166D01*
X155617588Y-96548166D02*
X155678064Y-96554214D01*
X155678064Y-96554214D02*
X155799016Y-96560261D01*
X155799016Y-96560261D02*
X155950207Y-96560261D01*
X155950207Y-96560261D02*
X156071159Y-96554214D01*
X156071159Y-96554214D02*
X156131635Y-96548166D01*
X156131635Y-96548166D02*
X156161874Y-96542119D01*
X156161874Y-96542119D02*
X156192112Y-96530023D01*
X156192112Y-96530023D02*
X156192112Y-96517928D01*
X156192112Y-96517928D02*
X156161874Y-96505833D01*
X156161874Y-96505833D02*
X156131635Y-96499785D01*
X156131635Y-96499785D02*
X156071159Y-96493738D01*
X156071159Y-96493738D02*
X155950207Y-96487690D01*
X155950207Y-96487690D02*
X155799016Y-96487690D01*
X155799016Y-96487690D02*
X155678064Y-96493738D01*
X155678064Y-96493738D02*
X155617588Y-96499785D01*
X155617588Y-96499785D02*
X155587350Y-96505833D01*
X155587350Y-96505833D02*
X155557112Y-96517928D01*
X155768778Y-96669118D02*
X156192112Y-96669118D01*
X155526874Y-96638880D02*
X155980445Y-96608642D01*
X155980445Y-96608642D02*
X155980445Y-96687261D01*
D11*
%TO.C,J6001*%
X120550000Y-90160000D02*
X120550000Y-87640000D01*
X121550000Y-90160000D02*
X120550000Y-90160000D01*
X121550000Y-98550000D02*
X121550000Y-90160000D01*
X123590000Y-100100000D02*
X135750000Y-100100000D01*
X135750000Y-86100000D02*
X122600000Y-86100000D01*
X135750000Y-91030000D02*
X135750000Y-86100000D01*
X135750000Y-96800000D02*
X135750000Y-93630000D01*
X135750000Y-100100000D02*
X135750000Y-99310000D01*
D12*
%TO.C,U2004*%
X141272900Y-97100139D02*
X141272900Y-97399859D01*
X143127100Y-97399859D02*
X143127100Y-97100139D01*
X143546200Y-98443799D02*
G75*
G02*
X143393800Y-98443799I-76200J0D01*
G01*
X143393800Y-98443799D02*
G75*
G02*
X143546200Y-98443799I76200J0D01*
G01*
D13*
%TO.C,JP2002*%
X146450000Y-103300000D02*
X146450000Y-102700000D01*
X147150000Y-102000000D02*
X148550000Y-102000000D01*
X148550000Y-104000000D02*
X147150000Y-104000000D01*
X149250000Y-102700000D02*
X149250000Y-103300000D01*
X146450000Y-102700000D02*
G75*
G02*
X147150000Y-102000000I699999J1D01*
G01*
X147150000Y-104000000D02*
G75*
G02*
X146450000Y-103300000I-1J699999D01*
G01*
X148550000Y-102000000D02*
G75*
G02*
X149250000Y-102700000I0J-700000D01*
G01*
X149250000Y-103300000D02*
G75*
G02*
X148550000Y-104000000I-700000J0D01*
G01*
D14*
%TO.C,U2001*%
X144286500Y-85861500D02*
X154313500Y-85861500D01*
X144286500Y-100888500D02*
X144286500Y-85861500D01*
X154313500Y-85861500D02*
X154313500Y-100888500D01*
X154313500Y-100888500D02*
X144286500Y-100888500D01*
D11*
X144386500Y-100888500D02*
G75*
G02*
X144186500Y-100888500I-100000J0D01*
G01*
X144186500Y-100888500D02*
G75*
G02*
X144386500Y-100888500I100000J0D01*
G01*
D14*
%TO.C,U6001*%
X128750000Y-112135000D02*
X132650000Y-112135000D01*
X128750000Y-122265000D02*
X132650000Y-122265000D01*
D11*
X134945000Y-112255000D02*
G75*
G02*
X134745000Y-112255000I-100000J0D01*
G01*
X134745000Y-112255000D02*
G75*
G02*
X134945000Y-112255000I100000J0D01*
G01*
%TD*%
M02*
