M48
; DRILL file {KiCad 8.0.6} date 2025-09-09T16:10:55-0700
; FORMAT={-:-/ absolute / inch / decimal}
; #@! TF.CreationDate,2025-09-09T16:10:55-07:00
; #@! TF.GenerationSoftware,Kicad,Pcbnew,8.0.6
; #@! TF.FileFunction,Plated,1,4,PTH
FMAT,2
INCH
; #@! TA.AperFunction,Plated,PTH,ViaDrill
T1C0.0079
; #@! TA.AperFunction,Plated,PTH,ComponentDrill
T2C0.0079
; #@! TA.AperFunction,Plated,PTH,ViaDrill
T3C0.0118
; #@! TA.AperFunction,Plated,PTH,ComponentDrill
T4C0.0197
; #@! TA.AperFunction,Plated,PTH,ComponentDrill
T5C0.0320
; #@! TA.AperFunction,Plated,PTH,ComponentDrill
T6C0.0433
; #@! TA.AperFunction,Plated,PTH,ComponentDrill
T7C0.0709
; #@! TA.AperFunction,Plated,PTH,ComponentDrill
T8C0.1063
%
G90
G05
T1
X5.3031Y-4.7402
X5.4291Y-3.9646
X5.6142Y-3.9488
X5.6729Y-3.8507
X5.6772Y-3.8219
X5.7047Y-4.0984
X5.7165Y-4.0709
X5.7638Y-4.0551
X5.7667Y-3.9006
X5.7677Y-3.874
X5.7984Y-3.7756
X5.7992Y-3.7992
X5.8031Y-3.626
X5.8031Y-3.685
X5.8031Y-3.7136
X5.8386Y-3.8701
X5.878Y-3.8701
X5.878Y-4.0551
X5.9237Y-3.8178
X5.9567Y-3.7992
X5.9606Y-3.7756
X5.9961Y-3.9213
T2
X5.5787Y-4.5571
X5.5787Y-4.6161
X5.6378Y-4.5571
X5.6378Y-4.6161
X5.6969Y-4.5571
X5.6969Y-4.6161
T3
X4.752Y-4.0965
X4.752Y-4.124
X4.752Y-4.1516
X4.7559Y-3.7343
X4.7559Y-3.7618
X4.7559Y-3.7894
X4.874Y-3.6772
X4.874Y-3.9055
X4.8898Y-3.6339
X5.0157Y-4.0315
X5.0285Y-3.7687
X5.0339Y-3.8488
X5.1811Y-4.4882
X5.1811Y-4.689
X5.252Y-3.9646
X5.2559Y-3.8031
X5.2835Y-3.9134
X5.2913Y-3.7067
X5.311Y-4.5394
X5.311Y-4.5892
X5.311Y-4.6378
X5.3307Y-4.7874
X5.3819Y-3.9134
X5.5315Y-4.4016
X5.5604Y-3.586
X5.563Y-4.4016
X5.5866Y-4.3268
X5.5889Y-3.9949
X5.5906Y-3.4606
X5.5989Y-3.8281
X5.626Y-4.3465
X5.6496Y-4.4222
X5.6512Y-4.1432
X5.6614Y-3.7431
X5.6614Y-3.7825
X5.6732Y-4.0197
X5.6732Y-4.0709
X5.6772Y-3.7107
X5.685Y-4.3819
X5.7512Y-4.4123
X5.7579Y-3.563
X5.7992Y-4.6811
X5.8071Y-4.5157
X5.815Y-4.002
X5.8386Y-3.6043
X5.9173Y-3.6043
X5.9173Y-3.9776
X5.9961Y-3.5354
X5.998Y-3.877
X6.0688Y-3.9541
X6.0752Y-3.9233
X6.0827Y-3.7037
X6.0866Y-3.625
X6.1378Y-3.5709
X6.1378Y-3.7598
X6.1654Y-3.7913
X6.1654Y-3.849
T4
X5.0039Y-4.1339
X5.378Y-3.7165
X5.4331Y-3.6575
X6.1299Y-3.4173
X6.1299Y-3.5
X6.2087Y-3.6535
T5
X6.0543Y-4.1882
X6.0543Y-4.2882
X6.0543Y-4.3882
X6.0543Y-4.4882
X6.3543Y-4.1882
X6.3543Y-4.2882
X6.3543Y-4.3882
X6.3543Y-4.4882
T6
X6.1165Y-4.7244
X6.3165Y-4.7244
T7
X4.8878Y-4.533
X5.4193Y-4.533
T8
X5.0118Y-4.2968
X5.2953Y-4.2968
M30
