%TF.GenerationSoftware,KiCad,Pcbnew,8.0.6*%
%TF.CreationDate,2025-09-09T16:11:22-07:00*%
%TF.ProjectId,Multimodal_Actuator_mk2,4d756c74-696d-46f6-9461-6c5f41637475,rev?*%
%TF.SameCoordinates,Original*%
%TF.FileFunction,Paste,Bot*%
%TF.FilePolarity,Positive*%
%FSLAX46Y46*%
G04 Gerber Fmt 4.6, Leading zero omitted, Abs format (unit mm)*
G04 Created by KiCad (PCBNEW 8.0.6) date 2025-09-09 16:11:22*
%MOMM*%
%LPD*%
G01*
G04 APERTURE LIST*
G04 Aperture macros list*
%AMRoundRect*
0 Rectangle with rounded corners*
0 $1 Rounding radius*
0 $2 $3 $4 $5 $6 $7 $8 $9 X,Y pos of 4 corners*
0 Add a 4 corners polygon primitive as box body*
4,1,4,$2,$3,$4,$5,$6,$7,$8,$9,$2,$3,0*
0 Add four circle primitives for the rounded corners*
1,1,$1+$1,$2,$3*
1,1,$1+$1,$4,$5*
1,1,$1+$1,$6,$7*
1,1,$1+$1,$8,$9*
0 Add four rect primitives between the rounded corners*
20,1,$1+$1,$2,$3,$4,$5,0*
20,1,$1+$1,$4,$5,$6,$7,0*
20,1,$1+$1,$6,$7,$8,$9,0*
20,1,$1+$1,$8,$9,$2,$3,0*%
G04 Aperture macros list end*
%ADD10RoundRect,0.079500X0.079500X0.100500X-0.079500X0.100500X-0.079500X-0.100500X0.079500X-0.100500X0*%
%ADD11R,1.500000X0.800000*%
%ADD12R,1.900000X1.400000*%
%ADD13R,1.400000X1.800000*%
%ADD14R,0.406400X0.508000*%
%ADD15RoundRect,0.079500X0.100500X-0.079500X0.100500X0.079500X-0.100500X0.079500X-0.100500X-0.079500X0*%
%ADD16RoundRect,0.079500X-0.079500X-0.100500X0.079500X-0.100500X0.079500X0.100500X-0.079500X0.100500X0*%
%ADD17RoundRect,0.079500X-0.100500X0.079500X-0.100500X-0.079500X0.100500X-0.079500X0.100500X0.079500X0*%
%ADD18R,1.150000X0.700000*%
%ADD19R,0.700000X1.150000*%
%ADD20R,0.700000X0.700000*%
%ADD21RoundRect,0.075000X0.910000X0.225000X-0.910000X0.225000X-0.910000X-0.225000X0.910000X-0.225000X0*%
G04 APERTURE END LIST*
D10*
%TO.C,C2023*%
X131565000Y-107800000D03*
X130875000Y-107800000D03*
%TD*%
%TO.C,C2024*%
X131565000Y-110200000D03*
X130875000Y-110200000D03*
%TD*%
%TO.C,C2004*%
X131565000Y-108600000D03*
X130875000Y-108600000D03*
%TD*%
D11*
%TO.C,J6001*%
X125050000Y-91160000D03*
X125450000Y-92260000D03*
X125050000Y-93360000D03*
X124850000Y-94460000D03*
X125050000Y-95560000D03*
X124850000Y-96660000D03*
X125050000Y-97760000D03*
X125050000Y-98860000D03*
D12*
X121200000Y-86500000D03*
X122200000Y-99650000D03*
D13*
X135350000Y-92350000D03*
X135350000Y-98050000D03*
%TD*%
D10*
%TO.C,R3001*%
X143565000Y-109900000D03*
X142875000Y-109900000D03*
%TD*%
D14*
%TO.C,U2004*%
X142699999Y-97899998D03*
X141700001Y-97899998D03*
X142200000Y-96600000D03*
%TD*%
D10*
%TO.C,C4003*%
X131565000Y-109400000D03*
X130875000Y-109400000D03*
%TD*%
D15*
%TO.C,C5001*%
X144400000Y-110565000D03*
X144400000Y-109875000D03*
%TD*%
D16*
%TO.C,R1003*%
X157345000Y-106390000D03*
X158035000Y-106390000D03*
%TD*%
D15*
%TO.C,C2005*%
X152100000Y-102315000D03*
X152100000Y-101625000D03*
%TD*%
D17*
%TO.C,R2014*%
X142800000Y-92765000D03*
X142800000Y-93455000D03*
%TD*%
D18*
%TO.C,U2001*%
X145175000Y-99075000D03*
X145175000Y-98075000D03*
X145175000Y-97075000D03*
X145175000Y-96075000D03*
X145175000Y-95075000D03*
X145175000Y-94075000D03*
X145175000Y-93075000D03*
X145175000Y-92075000D03*
X145175000Y-91075000D03*
X145175000Y-90075000D03*
D19*
X147300000Y-90150000D03*
X148300000Y-90150000D03*
X149300000Y-90150000D03*
X150300000Y-90150000D03*
X151300000Y-90150000D03*
D18*
X153425000Y-90075000D03*
X153425000Y-91075000D03*
X153425000Y-92075000D03*
X153425000Y-93075000D03*
X153425000Y-94075000D03*
X153425000Y-95075000D03*
X153425000Y-96075000D03*
X153425000Y-97075000D03*
X153425000Y-98075000D03*
X153425000Y-99075000D03*
D19*
X151300000Y-99000000D03*
X150300000Y-99000000D03*
X149300000Y-99000000D03*
X148300000Y-99000000D03*
X147300000Y-99000000D03*
D20*
X146550000Y-97625000D03*
X146550000Y-96525000D03*
X146550000Y-95425000D03*
X146550000Y-94325000D03*
X146550000Y-93225000D03*
X146550000Y-92125000D03*
X152050000Y-92125000D03*
X152050000Y-93225000D03*
X152050000Y-94325000D03*
X152050000Y-95425000D03*
X152050000Y-96525000D03*
X152050000Y-97625000D03*
X150950000Y-97625000D03*
X149850000Y-97625000D03*
X148750000Y-97625000D03*
X147650000Y-97625000D03*
X153300000Y-100225000D03*
X152300000Y-100225000D03*
X151300000Y-100225000D03*
X150300000Y-100225000D03*
X149300000Y-100225000D03*
X148300000Y-100225000D03*
X147300000Y-100225000D03*
X146300000Y-100225000D03*
X145300000Y-100225000D03*
X144950000Y-89075000D03*
X153650000Y-89075000D03*
X144950000Y-86525000D03*
X153650000Y-86525000D03*
X148725000Y-96300000D03*
X149875000Y-96300000D03*
X147575000Y-95150000D03*
X148725000Y-95150000D03*
X149875000Y-95150000D03*
X151025000Y-95150000D03*
X148725000Y-94000000D03*
X149875000Y-94000000D03*
X147575000Y-92850000D03*
X148725000Y-92850000D03*
X149875000Y-92850000D03*
X151025000Y-92850000D03*
%TD*%
D17*
%TO.C,R2013*%
X143600000Y-92075000D03*
X143600000Y-92765000D03*
%TD*%
D10*
%TO.C,R2009*%
X143665000Y-99100000D03*
X142975000Y-99100000D03*
%TD*%
D21*
%TO.C,U6001*%
X133175000Y-112755000D03*
X133175000Y-114025000D03*
X133175000Y-115295000D03*
X133175000Y-116565000D03*
X133175000Y-117835000D03*
X133175000Y-119105000D03*
X133175000Y-120375000D03*
X133175000Y-121645000D03*
X128225000Y-121645000D03*
X128225000Y-120375000D03*
X128225000Y-119105000D03*
X128225000Y-117835000D03*
X128225000Y-116565000D03*
X128225000Y-115295000D03*
X128225000Y-114025000D03*
X128225000Y-112755000D03*
%TD*%
D15*
%TO.C,R3004*%
X155900000Y-97790000D03*
X155900000Y-97100000D03*
%TD*%
M02*
